<?xml version="1.0" encoding="UTF-8" standalone="no"?>
<!-- Created with Inkscape (http://www.inkscape.org/) -->

<svg
   width="10.960713mm"
   height="53.167999mm"
   viewBox="0 0 10.960714 53.167999"
   version="1.1"
   id="svg70682"
   inkscape:version="1.2.1 (9c6d41e410, 2022-07-14)"
   sodipodi:docname="!.svg"
   xmlns:inkscape="http://www.inkscape.org/namespaces/inkscape"
   xmlns:sodipodi="http://sodipodi.sourceforge.net/DTD/sodipodi-0.dtd"
   xmlns="http://www.w3.org/2000/svg"
   xmlns:svg="http://www.w3.org/2000/svg">
  <sodipodi:namedview
     id="namedview70684"
     pagecolor="#ffffff"
     bordercolor="#000000"
     borderopacity="0.25"
     inkscape:showpageshadow="2"
     inkscape:pageopacity="0.0"
     inkscape:pagecheckerboard="0"
     inkscape:deskcolor="#d1d1d1"
     inkscape:document-units="mm"
     showgrid="false"
     inkscape:zoom="0.7483165"
     inkscape:cx="-20.044994"
     inkscape:cy="51.448819"
     inkscape:window-width="1920"
     inkscape:window-height="1001"
     inkscape:window-x="-9"
     inkscape:window-y="-9"
     inkscape:window-maximized="1"
     inkscape:current-layer="layer1" />
  <defs
     id="defs70679" />
  <g
     inkscape:label="Capa 1"
     inkscape:groupmode="layer"
     id="layer1"
     transform="translate(-23.688652,-107.08885)">
    <path
       style="color:#000000;fill:#000000;stroke-linecap:round;stroke-linejoin:round"
       d="m 27.828125,142.98828 a 1.4111151,1.4111151 0 0 0 -0.998047,0.41406 l -0.148437,0.14844 a 1.4111151,1.4111151 0 0 0 0,1.99609 1.4111151,1.4111151 0 0 0 1.996093,0 l 0.148438,-0.14843 a 1.4111151,1.4111151 0 0 0 0,-1.9961 1.4111151,1.4111151 0 0 0 -0.998047,-0.41406 z"
       id="path29801-3" />
    <path
       style="color:#000000;fill:#000000;stroke-linecap:round;stroke-linejoin:round;-inkscape-stroke:none"
       d="m 31.0625,119.33789 a 1.41111,1.41111 0 0 0 -1.59375,1.20117 l -2.722656,19.45899 a 1.41111,1.41111 0 0 0 1.201172,1.59375 1.41111,1.41111 0 0 0 1.59375,-1.20313 l 2.722656,-19.45703 A 1.41111,1.41111 0 0 0 31.0625,119.33789 Z"
       id="path26677" />
  </g>
</svg>
