<?xml version="1.0" encoding="UTF-8" standalone="no"?>
<!-- Created with Inkscape (http://www.inkscape.org/) -->

<svg
   width="10.607143mm"
   height="53.167999mm"
   viewBox="0 0 10.607144 53.167999"
   version="1.1"
   id="svg70682"
   inkscape:version="1.2.1 (9c6d41e410, 2022-07-14)"
   sodipodi:docname="(.svg"
   xmlns:inkscape="http://www.inkscape.org/namespaces/inkscape"
   xmlns:sodipodi="http://sodipodi.sourceforge.net/DTD/sodipodi-0.dtd"
   xmlns="http://www.w3.org/2000/svg"
   xmlns:svg="http://www.w3.org/2000/svg">
  <sodipodi:namedview
     id="namedview70684"
     pagecolor="#ffffff"
     bordercolor="#000000"
     borderopacity="0.25"
     inkscape:showpageshadow="2"
     inkscape:pageopacity="0.0"
     inkscape:pagecheckerboard="0"
     inkscape:deskcolor="#d1d1d1"
     inkscape:document-units="mm"
     showgrid="false"
     inkscape:zoom="0.7483165"
     inkscape:cx="377.51406"
     inkscape:cy="242.54443"
     inkscape:window-width="1920"
     inkscape:window-height="1001"
     inkscape:window-x="-9"
     inkscape:window-y="-9"
     inkscape:window-maximized="1"
     inkscape:current-layer="layer1" />
  <defs
     id="defs70679" />
  <g
     inkscape:label="Capa 1"
     inkscape:groupmode="layer"
     id="layer1"
     transform="translate(-0.52916664)">
    <path
       style="color:#000000;fill:#000000;stroke-linecap:round;stroke-linejoin:round;-inkscape-stroke:none"
       d="m 9.5480585,16.158203 a 1.4111151,1.4111151 0 0 0 -1.0800774,0.04297 C 4.4597142,18.051142 2.1657525,22.348193 1.643762,26.84961 1.1217715,31.351028 2.3567565,36.245567 5.8898557,39.435548 A 1.4111151,1.4111151 0 0 0 7.8839964,39.333984 1.4111151,1.4111151 0 0 0 7.7824339,37.341797 C 5.0876341,34.908704 4.0110076,30.929293 4.4464963,27.173828 4.8819851,23.418364 6.8139617,20.073339 9.6515735,18.763672 A 1.4111151,1.4111151 0 0 0 10.341027,16.892578 1.4111151,1.4111151 0 0 0 9.5480585,16.158203 Z"
       id="path42931" />
  </g>
</svg>
