<?xml version="1.0" encoding="UTF-8" standalone="no"?>
<!-- Created with Inkscape (http://www.inkscape.org/) -->

<svg
   width="21.78286mm"
   height="53.167999mm"
   viewBox="0 0 21.78286 53.167999"
   version="1.1"
   id="svg206849"
   inkscape:version="1.2.1 (9c6d41e410, 2022-07-14)"
   sodipodi:docname="3.svg"
   xmlns:inkscape="http://www.inkscape.org/namespaces/inkscape"
   xmlns:sodipodi="http://sodipodi.sourceforge.net/DTD/sodipodi-0.dtd"
   xmlns="http://www.w3.org/2000/svg"
   xmlns:svg="http://www.w3.org/2000/svg">
  <sodipodi:namedview
     id="namedview206851"
     pagecolor="#ffffff"
     bordercolor="#000000"
     borderopacity="0.25"
     inkscape:showpageshadow="2"
     inkscape:pageopacity="0.0"
     inkscape:pagecheckerboard="0"
     inkscape:deskcolor="#d1d1d1"
     inkscape:document-units="mm"
     showgrid="false"
     inkscape:zoom="1.8680931"
     inkscape:cx="228.57533"
     inkscape:cy="22.750472"
     inkscape:window-width="1920"
     inkscape:window-height="1001"
     inkscape:window-x="-9"
     inkscape:window-y="-9"
     inkscape:window-maximized="1"
     inkscape:current-layer="layer1" />
  <defs
     id="defs206846" />
  <g
     inkscape:label="Capa 1"
     inkscape:groupmode="layer"
     id="layer1"
     transform="translate(117.11773,-194.8873)">
    <path
       style="color:#000000;fill:#000000;stroke-linecap:round;stroke-linejoin:round"
       d="m -102.42773,217.14844 c -1.92278,-0.25688 -4.37806,-0.22446 -7.54688,0.0742 a 1.41111,1.41111 0 0 0 -1.27148,1.53711 1.41111,1.41111 0 0 0 1.53711,1.27148 c 6.06548,-0.57169 8.90037,0.1801 9.843746,0.95508 0.471687,0.38749 0.629955,0.74824 0.705078,1.35156 0.07512,0.60332 -0.01663,1.42579 -0.197266,2.3418 -0.179418,0.90986 -1.031438,1.73032 -2.568358,2.31445 -1.53692,0.58413 -3.61272,0.82131 -5.51953,0.63477 -1.90681,-0.18654 -3.62361,-0.82066 -4.51953,-1.625 -0.89593,-0.80435 -1.22246,-1.54676 -0.58399,-3.17188 a 1.41111,1.41111 0 0 0 -0.79687,-1.82812 1.41111,1.41111 0 0 0 -1.83008,0.79687 c -0.96882,2.46597 -0.26429,4.87679 1.32617,6.30469 1.59046,1.42789 3.81478,2.10564 6.12891,2.33203 2.31412,0.22639 4.73742,-0.022 6.79687,-0.80469 2.059456,-0.78273 3.902657,-2.20898 4.335939,-4.40625 0.201936,-1.02405 0.369112,-2.10913 0.228516,-3.23828 -0.140596,-1.12914 -0.674029,-2.32662 -1.714844,-3.18164 -1.040815,-0.85502 -2.430741,-1.40132 -4.353511,-1.6582 z"
       id="path194495" />
    <path
       style="color:#000000;fill:#000000;stroke-linecap:round;stroke-linejoin:round;-inkscape-stroke:none"
       d="m -102.62695,210.85352 c -2.9413,0.0624 -7.00414,0.366 -12.13672,0.88867 a 1.41111,1.41111 0 0 0 -1.25977,1.54687 1.41111,1.41111 0 0 0 1.54688,1.25977 c 5.09198,-0.51854 9.10871,-0.81358 11.91015,-0.87305 0.66358,-0.0141 1.01112,0.025 1.53321,0.0371 -2.09548,0.90442 -5.42011,2.08108 -10.23828,3.55078 a 1.41111,1.41111 0 0 0 -0.93946,1.76172 1.41111,1.41111 0 0 0 1.76172,0.9375 c 5.01854,-1.53081 8.58204,-2.76706 10.871095,-3.77539 1.144525,-0.50417 1.958261,-0.92288 2.589844,-1.43945 0.315791,-0.25829 0.632991,-0.53291 0.830078,-1.09375 0.197087,-0.56085 -0.03351,-1.45419 -0.433594,-1.84766 -0.800169,-0.78695 -1.489671,-0.75335 -2.433594,-0.85547 -0.943922,-0.10211 -2.130909,-0.12887 -3.601559,-0.0976 z"
       id="path194501" />
  </g>
</svg>
