<?xml version="1.0" encoding="UTF-8" standalone="no"?>
<!-- Created with Inkscape (http://www.inkscape.org/) -->

<svg
   width="22.349392mm"
   height="53.167999mm"
   viewBox="0 0 22.349392 53.167999"
   version="1.1"
   id="svg206849"
   inkscape:version="1.2.1 (9c6d41e410, 2022-07-14)"
   sodipodi:docname="5.svg"
   xmlns:inkscape="http://www.inkscape.org/namespaces/inkscape"
   xmlns:sodipodi="http://sodipodi.sourceforge.net/DTD/sodipodi-0.dtd"
   xmlns="http://www.w3.org/2000/svg"
   xmlns:svg="http://www.w3.org/2000/svg">
  <sodipodi:namedview
     id="namedview206851"
     pagecolor="#ffffff"
     bordercolor="#000000"
     borderopacity="0.25"
     inkscape:showpageshadow="2"
     inkscape:pageopacity="0.0"
     inkscape:pagecheckerboard="0"
     inkscape:deskcolor="#d1d1d1"
     inkscape:document-units="mm"
     showgrid="false"
     inkscape:zoom="1.8680931"
     inkscape:cx="-89.395973"
     inkscape:cy="-12.579673"
     inkscape:window-width="1920"
     inkscape:window-height="1001"
     inkscape:window-x="-9"
     inkscape:window-y="-9"
     inkscape:window-maximized="1"
     inkscape:current-layer="layer1" />
  <defs
     id="defs206846" />
  <g
     inkscape:label="Capa 1"
     inkscape:groupmode="layer"
     id="layer1"
     transform="translate(41.927044,-204.32101)">
    <path
       style="color:#000000;fill:#000000;stroke-linecap:round;stroke-linejoin:round"
       d="m -31.199219,225.69336 c -2.474247,0.0781 -5.339186,0.45388 -8.625,1.07422 a 1.41111,1.41111 0 0 0 -1.123047,1.64844 1.41111,1.41111 0 0 0 1.648438,1.125 c 6.37262,-1.20312 10.983034,-1.2864 13.5,-0.45313 1.258483,0.41664 1.956569,0.98051 2.369141,1.71875 0.412571,0.73824 0.58062,1.77893 0.332031,3.28711 -0.161807,0.98167 -1.142123,1.95857 -2.910156,2.68164 -1.768034,0.72307 -4.154789,1.09088 -6.373047,0.99805 -2.218258,-0.0928 -4.25726,-0.67912 -5.347657,-1.50196 -0.545198,-0.41141 -0.854399,-0.83756 -0.998046,-1.32226 -0.143648,-0.48471 -0.146019,-1.08767 0.183593,-1.95508 a 1.41111,1.41111 0 0 0 -0.818359,-1.82031 1.41111,1.41111 0 0 0 -1.820313,0.8164 c -0.499351,1.31409 -0.590077,2.61421 -0.25,3.76172 0.340078,1.14752 1.086357,2.08251 2.001954,2.77344 1.831192,1.38185 4.331796,1.95964 6.929687,2.06836 2.597891,0.10872 5.30283,-0.28369 7.560547,-1.20703 2.257717,-0.92334 4.238366,-2.47645 4.626953,-4.83399 0.317261,-1.92481 0.152491,-3.6794 -0.654297,-5.12304 -0.806788,-1.44364 -2.216371,-2.4491 -3.945312,-3.02149 -1.728942,-0.57239 -3.812863,-0.79299 -6.28711,-0.71484 z"
       id="path194495-4" />
    <path
       style="color:#000000;fill:#000000;stroke-linecap:round;stroke-linejoin:round"
       d="m -22.193359,219.93555 c -6.438592,0.70084 -11.005891,0.81073 -17.689453,0.6875 a 1.41111,1.41111 0 0 0 -1.4375,1.38476 1.41111,1.41111 0 0 0 1.384765,1.43555 c 6.739105,0.12426 11.497733,0.01 18.048828,-0.70313 a 1.41111,1.41111 0 0 0 1.25,-1.55468 1.41111,1.41111 0 0 0 -1.55664,-1.25 z"
       id="path196727" />
    <path
       style="color:#000000;fill:#000000;stroke-linecap:round;stroke-linejoin:round;-inkscape-stroke:none"
       d="m -38.755859,220.99609 a 1.41111,1.41111 0 0 0 -1.990235,0.14649 1.41111,1.41111 0 0 0 0.144532,1.99023 c 0.257964,0.22293 0.276336,0.30549 0.302734,0.43555 0.0264,0.13006 0.02152,0.37627 -0.07227,0.76758 -0.187577,0.78262 -0.730749,2.01298 -0.882812,3.58789 a 1.41111,1.41111 0 0 0 1.269531,1.53906 1.41111,1.41111 0 0 0 1.539063,-1.26758 c 0.09947,-1.03017 0.536294,-2.02433 0.818359,-3.20117 0.141032,-0.58842 0.242251,-1.25661 0.09375,-1.98828 -0.148502,-0.73167 -0.586502,-1.46002 -1.222656,-2.00977 z"
       id="path196731" />
  </g>
</svg>
