<?xml version="1.0" encoding="UTF-8" standalone="no"?>
<!-- Created with Inkscape (http://www.inkscape.org/) -->

<svg
   width="23.624086mm"
   height="53.167999mm"
   viewBox="0 0 23.624086 53.167999"
   version="1.1"
   id="svg206849"
   inkscape:version="1.2.1 (9c6d41e410, 2022-07-14)"
   sodipodi:docname="6.svg"
   xmlns:inkscape="http://www.inkscape.org/namespaces/inkscape"
   xmlns:sodipodi="http://sodipodi.sourceforge.net/DTD/sodipodi-0.dtd"
   xmlns="http://www.w3.org/2000/svg"
   xmlns:svg="http://www.w3.org/2000/svg">
  <sodipodi:namedview
     id="namedview206851"
     pagecolor="#ffffff"
     bordercolor="#000000"
     borderopacity="0.25"
     inkscape:showpageshadow="2"
     inkscape:pageopacity="0.0"
     inkscape:pagecheckerboard="0"
     inkscape:deskcolor="#d1d1d1"
     inkscape:document-units="mm"
     showgrid="false"
     inkscape:zoom="1.8680931"
     inkscape:cx="-55.136438"
     inkscape:cy="121.24663"
     inkscape:window-width="1920"
     inkscape:window-height="1001"
     inkscape:window-x="-9"
     inkscape:window-y="-9"
     inkscape:window-maximized="1"
     inkscape:current-layer="layer1" />
  <defs
     id="defs206846" />
  <g
     inkscape:label="Capa 1"
     inkscape:groupmode="layer"
     id="layer1"
     transform="translate(4.4025297,-168.95578)">
    <path
       style="color:#000000;fill:#000000;stroke-linecap:round;stroke-linejoin:round;-inkscape-stroke:none"
       d="m 11.693359,183.83984 c -4.5235644,-0.18705 -8.2441456,1.54389 -10.833984,4.09571 -2.5898384,2.55182 -4.1039765,5.88565 -4.4492188,9.08007 -0.3452422,3.19443 0.5089139,6.39602 2.98437505,8.23829 2.47546115,1.84226 6.24320725,2.02318 10.98046875,0.0469 3.882512,-1.61972 6.327746,-3.8024 7.486328,-6.12305 1.158582,-2.32064 0.916728,-4.89151 -0.644531,-6.51367 -1.561259,-1.62216 -4.175541,-2.13559 -7.091797,-1.29492 -2.9162565,0.84067 -6.237741,2.99161 -9.75390625,6.91992 a 1.41111,1.41111 0 0 0 0.11132813,1.99219 1.41111,1.41111 0 0 0 1.99218752,-0.10938 c 3.265053,-3.64777 6.2153894,-5.45235 8.4335936,-6.09179 2.218204,-0.63945 3.600633,-0.16006 4.275391,0.54101 0.674757,0.70108 0.907876,1.78355 0.152344,3.29688 -0.755533,1.51333 -2.613454,3.34693 -6.0468755,4.7793 -4.2083595,1.75565 -6.7571476,1.37344 -8.2089844,0.29296 -1.45183673,-1.08047 -2.1347109,-3.16041 -1.86328122,-5.67187 0.27142962,-2.51146 1.52659677,-5.30737 3.62304692,-7.37305 2.0964501,-2.06567 4.9783411,-3.44055 8.7363282,-3.28515 a 1.41111,1.41111 0 0 0 1.46875,-1.35157 1.41111,1.41111 0 0 0 -1.351563,-1.46875 z"
       id="path196783" />
  </g>
</svg>
