<?xml version="1.0" encoding="UTF-8" standalone="no"?>
<!-- Created with Inkscape (http://www.inkscape.org/) -->

<svg
   width="24.042856mm"
   height="53.167999mm"
   viewBox="0 0 24.042856 53.167999"
   version="1.1"
   id="svg70682"
   inkscape:version="1.2.1 (9c6d41e410, 2022-07-14)"
   sodipodi:docname="7.svg"
   xmlns:inkscape="http://www.inkscape.org/namespaces/inkscape"
   xmlns:sodipodi="http://sodipodi.sourceforge.net/DTD/sodipodi-0.dtd"
   xmlns="http://www.w3.org/2000/svg"
   xmlns:svg="http://www.w3.org/2000/svg">
  <sodipodi:namedview
     id="namedview70684"
     pagecolor="#ffffff"
     bordercolor="#000000"
     borderopacity="0.25"
     inkscape:showpageshadow="2"
     inkscape:pageopacity="0.0"
     inkscape:pagecheckerboard="0"
     inkscape:deskcolor="#d1d1d1"
     inkscape:document-units="mm"
     showgrid="false"
     inkscape:zoom="0.7483165"
     inkscape:cx="240.53993"
     inkscape:cy="-124.94713"
     inkscape:window-width="1920"
     inkscape:window-height="1001"
     inkscape:window-x="-9"
     inkscape:window-y="-9"
     inkscape:window-maximized="1"
     inkscape:current-layer="layer1" />
  <defs
     id="defs70679" />
  <g
     inkscape:label="Capa 1"
     inkscape:groupmode="layer"
     id="layer1"
     transform="translate(42.562126,-153.73743)">
    <path
       style="color:#000000;fill:#000000;stroke-linecap:round;stroke-linejoin:round;-inkscape-stroke:none"
       d="m -39.552734,169.55859 a 1.41111,1.41111 0 0 0 -1.433594,1.39063 1.41111,1.41111 0 0 0 1.390625,1.43164 c 7.705742,0.11647 10.056882,0.086 12.875,0.0898 -1.723823,0.93674 -3.478649,2.11349 -4.832031,3.94922 -2.189722,2.97015 -2.831324,7.42855 0.179687,12.9336 a 1.41111,1.41111 0 0 0 1.914063,0.56054 1.41111,1.41111 0 0 0 0.560547,-1.91601 c -2.655689,-4.85541 -1.998812,-7.7104 -0.382813,-9.90235 1.615999,-2.19194 4.532319,-3.64876 6.634766,-4.49414 1.051223,-0.42269 1.733775,-0.59356 2.423828,-0.97656 0.172513,-0.0958 0.481196,-0.0244 0.787109,-0.875 0.152957,-0.42528 -0.01775,-1.17151 -0.296875,-1.47656 -0.279123,-0.30505 -0.489096,-0.36141 -0.636719,-0.41407 -0.590491,-0.21061 -0.819182,-0.15674 -1.351562,-0.17578 -2.12952,-0.0762 -7.227612,0.0353 -17.832031,-0.125 z"
       id="path194501-5" />
  </g>
</svg>
