<?xml version="1.0" encoding="UTF-8" standalone="no"?>
<!-- Created with Inkscape (http://www.inkscape.org/) -->

<svg
   width="24.042856mm"
   height="53.167999mm"
   viewBox="0 0 24.042856 53.167999"
   version="1.1"
   id="svg70682"
   inkscape:version="1.2.1 (9c6d41e410, 2022-07-14)"
   sodipodi:docname="8.svg"
   xmlns:inkscape="http://www.inkscape.org/namespaces/inkscape"
   xmlns:sodipodi="http://sodipodi.sourceforge.net/DTD/sodipodi-0.dtd"
   xmlns="http://www.w3.org/2000/svg"
   xmlns:svg="http://www.w3.org/2000/svg">
  <sodipodi:namedview
     id="namedview70684"
     pagecolor="#ffffff"
     bordercolor="#000000"
     borderopacity="0.25"
     inkscape:showpageshadow="2"
     inkscape:pageopacity="0.0"
     inkscape:pagecheckerboard="0"
     inkscape:deskcolor="#d1d1d1"
     inkscape:document-units="mm"
     showgrid="false"
     inkscape:zoom="0.7483165"
     inkscape:cx="312.70191"
     inkscape:cy="-44.767154"
     inkscape:window-width="1920"
     inkscape:window-height="1001"
     inkscape:window-x="-9"
     inkscape:window-y="-9"
     inkscape:window-maximized="1"
     inkscape:current-layer="layer1" />
  <defs
     id="defs70679" />
  <g
     inkscape:label="Capa 1"
     inkscape:groupmode="layer"
     id="layer1"
     transform="translate(61.774578,-132.457)">
    <path
       style="color:#000000;fill:#000000;stroke-linecap:round;stroke-linejoin:round;-inkscape-stroke:none"
       d="m -49.869141,147.63477 c -2.661724,-0.007 -5.36641,0.46737 -7.447265,1.97656 -0.444614,0.32246 -0.840619,0.70382 -1.078125,1.26953 -0.237506,0.56571 -0.192376,1.29749 0.05078,1.80469 0.486313,1.01439 1.285336,1.43184 2.185547,1.90625 0.856288,0.45126 2.150467,0.8915 3.259766,1.32226 -1.286245,0.32174 -2.925034,0.58226 -3.859375,0.96875 -1.829419,0.75675 -3.093205,1.62437 -3.78125,2.8418 -0.688046,1.21743 -0.496037,2.73052 0.189453,3.79492 0.685489,1.06441 1.737412,1.87828 2.982422,2.58203 2.490019,1.4075 5.82977,2.34071 9.037109,2.45899 3.207338,0.11827 6.474566,-0.56271 8.177734,-3.11328 0.825433,-1.23613 1.15461,-2.59678 0.896485,-3.83594 -0.258125,-1.23916 -1.016676,-2.23983 -1.939453,-3.0625 -1.845555,-1.64534 -4.48294,-2.78009 -7.074219,-3.80078 -2.591279,-1.0207 -5.163043,-1.90969 -6.572266,-2.65235 -0.372305,-0.1962 -0.347849,-0.20193 -0.505859,-0.33203 1.339461,-0.84812 3.319565,-1.31191 5.472656,-1.30664 2.293866,0.006 4.693734,0.47651 6.386719,1.10938 0.846492,0.31643 1.516827,0.68258 1.867187,0.96093 0.35036,0.27835 0.215834,0.33216 0.248047,0.0352 0.03221,-0.297 0.180882,-0.19861 -0.402344,0.0664 -0.583225,0.26501 -1.694015,0.57066 -3.332031,0.78906 a 1.4111151,1.4111151 0 0 0 -1.21289,1.58594 1.4111151,1.4111151 0 0 0 1.585937,1.21289 c 1.79865,-0.23982 3.117162,-0.55873 4.126953,-1.01758 1.009791,-0.45885 1.914321,-1.18388 2.039063,-2.33399 0.124742,-1.1501 -0.582439,-1.97927 -1.296875,-2.54687 -0.714437,-0.5676 -1.6023,-1.01053 -2.634766,-1.39649 -2.064932,-0.7719 -4.707416,-1.28059 -7.369141,-1.2871 z m 1.304688,10.0664 c 2.224633,0.91363 4.34083,1.92668 5.492187,2.95313 0.642196,0.57252 0.961332,1.09441 1.052735,1.5332 0.0914,0.43879 0.04221,0.91062 -0.480469,1.69336 -0.848409,1.27053 -3.015655,1.95927 -5.724609,1.85937 -2.708954,-0.0999 -5.765647,-0.97182 -7.753907,-2.0957 -0.99413,-0.56194 -1.704411,-1.1964 -1.998046,-1.65234 -0.293636,-0.45595 -0.298655,-0.53709 -0.105469,-0.87891 0.193185,-0.34182 0.889833,-0.99739 2.402344,-1.62305 1.51251,-0.62565 3.781001,-1.23112 6.910156,-1.71484 a 1.4111151,1.4111151 0 0 0 0.205078,-0.0742 z"
       id="path196739" />
  </g>
</svg>
