<?xml version="1.0" encoding="UTF-8" standalone="no"?>
<!-- Created with Inkscape (http://www.inkscape.org/) -->

<svg
   width="23.335714mm"
   height="53.167999mm"
   viewBox="0 0 23.335714 53.167999"
   version="1.1"
   id="svg70682"
   inkscape:version="1.2.1 (9c6d41e410, 2022-07-14)"
   sodipodi:docname="9.svg"
   xmlns:inkscape="http://www.inkscape.org/namespaces/inkscape"
   xmlns:sodipodi="http://sodipodi.sourceforge.net/DTD/sodipodi-0.dtd"
   xmlns="http://www.w3.org/2000/svg"
   xmlns:svg="http://www.w3.org/2000/svg">
  <sodipodi:namedview
     id="namedview70684"
     pagecolor="#ffffff"
     bordercolor="#000000"
     borderopacity="0.25"
     inkscape:showpageshadow="2"
     inkscape:pageopacity="0.0"
     inkscape:pagecheckerboard="0"
     inkscape:deskcolor="#d1d1d1"
     inkscape:document-units="mm"
     showgrid="false"
     inkscape:zoom="0.7483165"
     inkscape:cx="-495.77953"
     inkscape:cy="-218.49044"
     inkscape:window-width="1920"
     inkscape:window-height="1001"
     inkscape:window-x="-9"
     inkscape:window-y="-9"
     inkscape:window-maximized="1"
     inkscape:current-layer="layer1" />
  <defs
     id="defs70679" />
  <g
     inkscape:label="Capa 1"
     inkscape:groupmode="layer"
     id="layer1"
     transform="translate(-152.28551,-178.35515)">
    <path
       style="color:#000000;fill:#000000;stroke-linecap:round;stroke-linejoin:round;-inkscape-stroke:none"
       d="m 163.35547,193.70703 c -1.23414,-0.0219 -2.4653,0.0357 -3.63086,0.19922 -2.33112,0.32703 -4.54785,1.08396 -5.75781,2.97852 -1.20997,1.89455 -0.95455,4.51668 0.73047,7.56054 0.68506,1.23752 1.68595,2.13215 2.82421,2.59766 1.13827,0.4655 2.36126,0.51881 3.55469,0.35156 2.38687,-0.3345 4.76769,-1.52088 6.90235,-2.80859 0.53343,-0.32179 0.79533,-0.56333 1.28906,-0.89063 -0.42896,0.80743 -0.72731,1.1618 -1.17383,2.05469 -1.54161,3.08271 -2.99954,6.30711 -3.54688,8.46289 a 1.41111,1.41111 0 0 0 1.01954,1.71484 1.41111,1.41111 0 0 0 1.71484,-1.02148 c 0.4042,-1.59203 1.83757,-4.89242 3.33789,-7.89258 1.50033,-3.00016 3.19076,-5.90876 3.74414,-6.61133 0.18791,-0.23856 0.29407,-0.29858 0.48242,-0.74218 0.0471,-0.11091 0.12738,-0.24776 0.12305,-0.61133 -0.004,-0.36358 -0.40626,-1.12421 -0.91602,-1.32031 -0.50976,-0.1961 -0.76042,-0.0849 -0.91406,-0.043 -0.15364,0.042 -0.23382,0.0825 -0.30469,0.11718 -0.56693,0.27764 -0.80933,0.52558 -1.38867,0.95899 -1.15866,0.86682 -2.9489,2.21684 -4.92383,3.4082 -1.97493,1.19137 -4.14669,2.19269 -5.83789,2.42969 -0.84559,0.1185 -1.54474,0.0546 -2.09375,-0.16992 -0.549,-0.22452 -1.00067,-0.59069 -1.42187,-1.35157 -1.43309,-2.58878 -1.31847,-3.89688 -0.82227,-4.67382 0.4962,-0.77695 1.83169,-1.43295 3.77149,-1.70508 3.8796,-0.54427 9.60365,0.46155 11.95508,1.25 a 1.41111,1.41111 0 0 0 1.78515,-0.88867 1.41111,1.41111 0 0 0 -0.88867,-1.78711 c -2.16928,-0.72738 -5.91085,-1.50086 -9.61328,-1.56641 z"
       id="path199035" />
  </g>
</svg>
