<?xml version="1.0" encoding="UTF-8" standalone="no"?>
<!-- Created with Inkscape (http://www.inkscape.org/) -->

<svg
   width="25.103571mm"
   height="53.167999mm"
   viewBox="0 0 25.103571 53.167999"
   version="1.1"
   id="svg1667"
   sodipodi:docname="A_.svg"
   inkscape:version="1.2.1 (9c6d41e410, 2022-07-14)"
   xmlns:inkscape="http://www.inkscape.org/namespaces/inkscape"
   xmlns:sodipodi="http://sodipodi.sourceforge.net/DTD/sodipodi-0.dtd"
   xmlns="http://www.w3.org/2000/svg"
   xmlns:svg="http://www.w3.org/2000/svg">
  <sodipodi:namedview
     id="namedview1669"
     pagecolor="#ffffff"
     bordercolor="#000000"
     borderopacity="0.25"
     inkscape:showpageshadow="2"
     inkscape:pageopacity="0.0"
     inkscape:pagecheckerboard="0"
     inkscape:deskcolor="#d1d1d1"
     inkscape:document-units="mm"
     showgrid="false"
     inkscape:zoom="0.7483165"
     inkscape:cx="399.56355"
     inkscape:cy="416.26772"
     inkscape:window-width="1920"
     inkscape:window-height="1001"
     inkscape:window-x="-9"
     inkscape:window-y="-9"
     inkscape:window-maximized="1"
     inkscape:current-layer="layer1" />
  <defs
     id="defs1664" />
  <g
     inkscape:label="Capa 1"
     inkscape:groupmode="layer"
     id="layer1"
     transform="translate(0.70714283)">
    <path
       style="color:#000000;fill:#000000;stroke-linecap:round;stroke-linejoin:round"
       d="M 14.193359,7.4941406 A 1.4112512,1.4112512 0 0 0 12.814453,8.28125 L 0.14257812,34.244141 a 1.41111,1.41111 0 0 0 0.65039063,1.886718 1.41111,1.41111 0 0 0 1.88671875,-0.65039 L 13.78125,12.736328 20.769531,35.583984 a 1.41111,1.41111 0 0 0 1.761719,0.9375 1.41111,1.41111 0 0 0 0.9375,-1.763672 L 15.433594,8.4863281 A 1.4112512,1.4112512 0 0 0 14.193359,7.4941406 Z"
       id="path787" />
    <g
       id="path1345"
       style="fill:#000000">
      <path
         style="color:#000000;fill:#000000;stroke-width:2.82223;stroke-linecap:round;stroke-linejoin:round;-inkscape-stroke:none"
         d="m 6.665441,22.499122 c 4.327096,0 8.654193,0 12.981289,0"
         id="path3330" />
      <path
         style="color:#000000;fill:#000000;stroke-linecap:round;stroke-linejoin:round;-inkscape-stroke:none"
         d="M 6.6660156,21.087891 A 1.4111151,1.4111151 0 0 0 5.2539062,22.5 1.4111151,1.4111151 0 0 0 6.6660156,23.910156 H 19.646484 A 1.4111151,1.4111151 0 0 0 21.058594,22.5 1.4111151,1.4111151 0 0 0 19.646484,21.087891 Z"
         id="path3332" />
    </g>
  </g>
</svg>
