<?xml version="1.0" encoding="UTF-8" standalone="no"?>
<!-- Created with Inkscape (http://www.inkscape.org/) -->

<svg
   width="17.324999mm"
   height="53.167999mm"
   viewBox="0 0 17.325 53.167999"
   version="1.1"
   id="svg70682"
   inkscape:version="1.2.1 (9c6d41e410, 2022-07-14)"
   sodipodi:docname="c.svg"
   xmlns:inkscape="http://www.inkscape.org/namespaces/inkscape"
   xmlns:sodipodi="http://sodipodi.sourceforge.net/DTD/sodipodi-0.dtd"
   xmlns="http://www.w3.org/2000/svg"
   xmlns:svg="http://www.w3.org/2000/svg">
  <sodipodi:namedview
     id="namedview70684"
     pagecolor="#ffffff"
     bordercolor="#000000"
     borderopacity="0.25"
     inkscape:showpageshadow="2"
     inkscape:pageopacity="0.0"
     inkscape:pagecheckerboard="0"
     inkscape:deskcolor="#d1d1d1"
     inkscape:document-units="mm"
     showgrid="false"
     inkscape:zoom="0.7483165"
     inkscape:cx="389.54106"
     inkscape:cy="242.54443"
     inkscape:window-width="1920"
     inkscape:window-height="1001"
     inkscape:window-x="-9"
     inkscape:window-y="-9"
     inkscape:window-maximized="1"
     inkscape:current-layer="layer1" />
  <defs
     id="defs70679" />
  <g
     inkscape:label="Capa 1"
     inkscape:groupmode="layer"
     id="layer1">
    <path
       style="color:#000000;fill:#000000;stroke-linecap:round;stroke-linejoin:round;-inkscape-stroke:none"
       d="m 7.9222655,22.125 c -1.5707839,0.152737 -2.9463206,0.727011 -4.0351562,1.59375 -2.1776713,1.733478 -3.24155127,4.419625 -3.16992187,6.947266 0.071629,2.527641 1.51678457,5.115836 4.29492187,5.810546 2.7781373,0.694711 6.3592267,-0.365615 10.9726557,-3.728515 a 1.41111,1.41111 0 0 0 0.308593,-1.972656 1.41111,1.41111 0 0 0 -1.970703,-0.308594 c -4.265563,3.109328 -7.1391845,3.643032 -8.6249989,3.271484 -1.4858143,-0.371547 -2.113674,-1.510139 -2.1601562,-3.15039 -0.046482,-1.640251 0.7265649,-3.562914 2.1074219,-4.66211 1.380857,-1.099195 3.3376708,-1.598749 6.3613272,-0.285156 a 1.41111,1.41111 0 0 0 1.855469,-0.730469 1.41111,1.41111 0 0 0 -0.730469,-1.857422 C 11.260094,22.239832 9.4930493,21.972263 7.9222655,22.125 Z"
       id="path12782" />
  </g>
</svg>
