<?xml version="1.0" encoding="UTF-8" standalone="no"?>
<!-- Created with Inkscape (http://www.inkscape.org/) -->

<svg
   width="23.689285mm"
   height="53.167999mm"
   viewBox="0 0 23.689286 53.167999"
   version="1.1"
   id="svg1667"
   sodipodi:docname="C_.svg"
   inkscape:version="1.2.1 (9c6d41e410, 2022-07-14)"
   xmlns:inkscape="http://www.inkscape.org/namespaces/inkscape"
   xmlns:sodipodi="http://sodipodi.sourceforge.net/DTD/sodipodi-0.dtd"
   xmlns="http://www.w3.org/2000/svg"
   xmlns:svg="http://www.w3.org/2000/svg">
  <sodipodi:namedview
     id="namedview1669"
     pagecolor="#ffffff"
     bordercolor="#000000"
     borderopacity="0.25"
     inkscape:showpageshadow="2"
     inkscape:pageopacity="0.0"
     inkscape:pagecheckerboard="0"
     inkscape:deskcolor="#d1d1d1"
     inkscape:document-units="mm"
     showgrid="false"
     inkscape:zoom="0.7483165"
     inkscape:cx="332.74691"
     inkscape:cy="417.60405"
     inkscape:window-width="1920"
     inkscape:window-height="1001"
     inkscape:window-x="-9"
     inkscape:window-y="-9"
     inkscape:window-maximized="1"
     inkscape:current-layer="layer1"
     showguides="false" />
  <defs
     id="defs1664" />
  <g
     inkscape:label="Capa 1"
     inkscape:groupmode="layer"
     id="layer1"
     transform="translate(-16.97143)">
    <path
       style="color:#000000;fill:#000000;stroke-linecap:round;stroke-linejoin:round;-inkscape-stroke:none"
       d="M 31.560547,7.3359375 C 29.147417,6.8713752 26.840468,7.587351 24.96875,8.9589844 21.225314,11.702251 18.835371,16.875469 17.960937,22.003906 c -0.874433,5.128437 -0.284934,10.462857 3.316407,13.134766 1.80067,1.335954 4.285082,1.784294 7.175781,1.146484 2.890699,-0.63781 6.261961,-2.296979 10.292969,-5.234375 a 1.41111,1.41111 0 0 0 0.310547,-1.972656 1.41111,1.41111 0 0 0 -1.972657,-0.308594 c -3.830279,2.791126 -6.916269,4.247432 -9.238281,4.759766 -2.322012,0.512333 -3.805428,0.144029 -4.886719,-0.658203 -2.162581,-1.604464 -2.992518,-5.831618 -2.214843,-10.392578 0.777674,-4.560961 3.110498,-9.205376 5.892578,-11.244141 1.39104,-1.019383 2.799387,-1.4352425 4.390625,-1.128906 1.591238,0.306336 3.478064,1.412018 5.554687,3.861328 a 1.41111,1.41111 0 0 0 1.988281,0.164062 1.41111,1.41111 0 0 0 0.164063,-1.988281 C 36.382847,9.3690265 33.973677,7.8004998 31.560547,7.3359375 Z"
       id="path12782-3-8" />
  </g>
</svg>
