<?xml version="1.0" encoding="UTF-8" standalone="no"?>
<!-- Created with Inkscape (http://www.inkscape.org/) -->

<svg
   width="19.446428mm"
   height="53.167999mm"
   viewBox="0 0 19.446429 53.167999"
   version="1.1"
   id="svg70682"
   inkscape:version="1.2.1 (9c6d41e410, 2022-07-14)"
   sodipodi:docname="d.svg"
   xmlns:inkscape="http://www.inkscape.org/namespaces/inkscape"
   xmlns:sodipodi="http://sodipodi.sourceforge.net/DTD/sodipodi-0.dtd"
   xmlns="http://www.w3.org/2000/svg"
   xmlns:svg="http://www.w3.org/2000/svg">
  <sodipodi:namedview
     id="namedview70684"
     pagecolor="#ffffff"
     bordercolor="#000000"
     borderopacity="0.25"
     inkscape:showpageshadow="2"
     inkscape:pageopacity="0.0"
     inkscape:pagecheckerboard="0"
     inkscape:deskcolor="#d1d1d1"
     inkscape:document-units="mm"
     showgrid="false"
     inkscape:zoom="0.7483165"
     inkscape:cx="378.85039"
     inkscape:cy="242.54443"
     inkscape:window-width="1920"
     inkscape:window-height="1001"
     inkscape:window-x="-9"
     inkscape:window-y="-9"
     inkscape:window-maximized="1"
     inkscape:current-layer="layer1" />
  <defs
     id="defs70679" />
  <g
     inkscape:label="Capa 1"
     inkscape:groupmode="layer"
     id="layer1">
    <path
       style="color:#000000;fill:#000000;stroke-linecap:round;stroke-linejoin:round"
       d="M 17.261978,7.2675781 A 1.41111,1.41111 0 0 0 15.672135,8.4746094 C 14.734901,15.339221 13.922093,23.1152 14.765885,30.232422 a 1.41111,1.41111 0 0 0 1.568359,1.236328 1.41111,1.41111 0 0 0 1.234375,-1.568359 C 16.778653,23.237178 17.541345,15.651944 18.46901,8.8574219 A 1.41111,1.41111 0 0 0 17.261978,7.2675781 Z"
       id="path15445" />
    <path
       style="color:#000000;fill:#000000;stroke-linecap:round;stroke-linejoin:round;-inkscape-stroke:none"
       d="m 8.791276,21.861328 c -3.0301857,-0.23123 -5.564974,1.670107 -6.9023438,4.056641 -1.33736977,2.386534 -1.61907284,5.514222 0.1953125,7.859375 1.8143855,2.345152 5.4148382,3.456691 10.8574213,2.595703 A 1.41111,1.41111 0 0 0 14.115494,34.759766 1.41111,1.41111 0 0 0 12.50026,33.585937 C 7.6040526,34.360492 5.2786997,33.294812 4.3147135,32.048828 3.3507272,30.802844 3.4369887,28.92591 4.3498697,27.296875 5.2627508,25.66784 6.8595416,24.542814 8.5764322,24.673828 c 1.7168898,0.131014 4.0210278,1.525159 6.2539058,6.046875 a 1.41111,1.41111 0 0 0 1.888672,0.640625 1.41111,1.41111 0 0 0 0.640625,-1.890625 C 14.880408,24.450116 11.821461,22.092558 8.791276,21.861328 Z"
       id="path15447" />
  </g>
</svg>
