<?xml version="1.0" encoding="UTF-8" standalone="no"?>
<!-- Created with Inkscape (http://www.inkscape.org/) -->

<svg
   width="25.457142mm"
   height="53.167999mm"
   viewBox="0 0 25.457143 53.167999"
   version="1.1"
   id="svg1667"
   sodipodi:docname="D_.svg"
   inkscape:version="1.2.1 (9c6d41e410, 2022-07-14)"
   xmlns:inkscape="http://www.inkscape.org/namespaces/inkscape"
   xmlns:sodipodi="http://sodipodi.sourceforge.net/DTD/sodipodi-0.dtd"
   xmlns="http://www.w3.org/2000/svg"
   xmlns:svg="http://www.w3.org/2000/svg">
  <sodipodi:namedview
     id="namedview1669"
     pagecolor="#ffffff"
     bordercolor="#000000"
     borderopacity="0.25"
     inkscape:showpageshadow="2"
     inkscape:pageopacity="0.0"
     inkscape:pagecheckerboard="0"
     inkscape:deskcolor="#d1d1d1"
     inkscape:document-units="mm"
     showgrid="false"
     inkscape:zoom="0.7483165"
     inkscape:cx="320.71991"
     inkscape:cy="418.94038"
     inkscape:window-width="1920"
     inkscape:window-height="1001"
     inkscape:window-x="-9"
     inkscape:window-y="-9"
     inkscape:window-maximized="1"
     inkscape:current-layer="layer1"
     showguides="false" />
  <defs
     id="defs1664" />
  <g
     inkscape:label="Capa 1"
     inkscape:groupmode="layer"
     id="layer1"
     transform="translate(-20.153572)">
    <path
       style="color:#000000;fill:#000000;stroke-linecap:round;stroke-linejoin:round"
       d="m 23.310547,7.5839844 a 1.41111,1.41111 0 0 0 -1.44336,1.3789062 L 21.240234,35.970703 a 1.41111,1.41111 0 0 0 1.378907,1.443359 1.41111,1.41111 0 0 0 1.443359,-1.378906 L 24.6875,9.0273438 A 1.41111,1.41111 0 0 0 23.310547,7.5839844 Z"
       id="path5753-21" />
    <path
       style="color:#000000;fill:#000000;stroke-linecap:round;stroke-linejoin:round;-inkscape-stroke:none"
       d="m 27.708984,6.9492187 c -1.524587,-0.04951 -3.152312,0.036458 -4.878906,0.2734375 A 1.41111,1.41111 0 0 0 21.625,8.8125 a 1.41111,1.41111 0 0 0 1.589844,1.205078 c 6.330705,-0.8689051 10.757142,0.486968 13.634765,2.789063 2.877623,2.302094 4.274139,5.618227 4.308594,8.976562 0.03446,3.358335 -1.31367,6.709824 -3.919922,9.013672 -2.606252,2.303848 -6.484547,3.641118 -11.839844,2.814453 a 1.41111,1.41111 0 0 0 -1.609375,1.177734 1.41111,1.41111 0 0 0 1.177735,1.611329 C 30.995569,37.331016 35.847644,35.793654 39.107422,32.912109 42.3672,30.030565 44.022855,25.88527 43.980469,21.753906 43.938083,17.622543 42.17825,13.455095 38.611328,10.601563 35.936137,8.4614133 32.282745,7.0977492 27.708984,6.9492187 Z"
       id="path5757-7" />
  </g>
</svg>
