<?xml version="1.0" encoding="UTF-8" standalone="no"?>
<!-- Created with Inkscape (http://www.inkscape.org/) -->

<svg
   width="23.335714mm"
   height="53.167999mm"
   viewBox="0 0 23.335715 53.167999"
   version="1.1"
   id="svg70682"
   inkscape:version="1.2.1 (9c6d41e410, 2022-07-14)"
   sodipodi:docname="e.svg"
   xmlns:inkscape="http://www.inkscape.org/namespaces/inkscape"
   xmlns:sodipodi="http://sodipodi.sourceforge.net/DTD/sodipodi-0.dtd"
   xmlns="http://www.w3.org/2000/svg"
   xmlns:svg="http://www.w3.org/2000/svg">
  <sodipodi:namedview
     id="namedview70684"
     pagecolor="#ffffff"
     bordercolor="#000000"
     borderopacity="0.25"
     inkscape:showpageshadow="2"
     inkscape:pageopacity="0.0"
     inkscape:pagecheckerboard="0"
     inkscape:deskcolor="#d1d1d1"
     inkscape:document-units="mm"
     showgrid="false"
     inkscape:zoom="0.7483165"
     inkscape:cx="296.66592"
     inkscape:cy="430.96738"
     inkscape:window-width="1920"
     inkscape:window-height="1001"
     inkscape:window-x="-9"
     inkscape:window-y="-9"
     inkscape:window-maximized="1"
     inkscape:current-layer="layer1" />
  <defs
     id="defs70679" />
  <g
     inkscape:label="Capa 1"
     inkscape:groupmode="layer"
     id="layer1"
     transform="translate(-0.52916664)">
    <path
       style="color:#000000;fill:#000000;stroke-linecap:round;stroke-linejoin:round;-inkscape-stroke:none"
       d="m 13.716927,21.320312 c -3.515598,0.352915 -6.9107644,2.297532 -8.0957031,5.472657 -0.2032962,0.544745 -0.114602,1.008009 -0.21875,1.529297 -1.1174041,0.11822 -1.420821,0.135373 -2.671875,0.277343 a 1.41111,1.41111 0 0 0 -1.2441406,1.5625 1.41111,1.41111 0 0 0 1.5625,1.242188 c 0.9719348,-0.110296 1.2016466,-0.121331 2.0917969,-0.216797 0.170244,1.124332 0.5264199,2.167578 1.1621093,3.003906 1.3912158,1.830316 3.5661248,2.828589 5.8183595,3.265625 2.252234,0.437037 4.627828,0.322407 6.669921,-0.332031 2.042094,-0.654438 3.901895,-1.925572 4.447266,-4.007813 a 1.41111,1.41111 0 0 0 -1.007812,-1.722656 1.41111,1.41111 0 0 0 -1.722657,1.00586 c -0.203818,0.778182 -1.071723,1.554972 -2.576172,2.037109 -1.504448,0.482137 -3.49522,0.593102 -5.273437,0.248047 C 10.880116,34.340492 9.3606115,33.547682 8.5509114,32.482422 8.2128309,32.037635 8.0309266,31.491723 7.9122396,30.898437 c 3.6951144,-0.37305 7.7802684,-0.775324 9.8476554,-1.02539 1.54418,-0.18678 2.639757,-0.350152 3.515625,-0.646485 0.437935,-0.148166 0.858153,-0.301807 1.271485,-0.765625 0.413331,-0.463817 0.54614,-1.409509 0.320312,-1.949218 -1.69058,-4.04042 -5.634793,-5.544321 -9.15039,-5.191407 z m 0.28125,2.808594 c 2.274645,-0.228341 4.372614,0.475583 5.6875,2.546875 -0.539457,0.125941 -1.124577,0.258703 -2.263672,0.396485 -1.85866,0.224818 -5.830511,0.620021 -9.1992186,0.957031 0.033021,-0.09711 0.00542,-0.147426 0.042969,-0.248047 0.6548405,-1.75469 3.1216806,-3.390264 5.7324216,-3.652344 z"
       id="path19354" />
  </g>
</svg>
