<?xml version="1.0" encoding="UTF-8" standalone="no"?>
<!-- Created with Inkscape (http://www.inkscape.org/) -->

<svg
   width="16.684076mm"
   height="53.167999mm"
   viewBox="0 0 16.684076 53.167999"
   version="1.1"
   id="svg206849"
   inkscape:version="1.2.1 (9c6d41e410, 2022-07-14)"
   sodipodi:docname="j.svg"
   xmlns:inkscape="http://www.inkscape.org/namespaces/inkscape"
   xmlns:sodipodi="http://sodipodi.sourceforge.net/DTD/sodipodi-0.dtd"
   xmlns="http://www.w3.org/2000/svg"
   xmlns:svg="http://www.w3.org/2000/svg">
  <sodipodi:namedview
     id="namedview206851"
     pagecolor="#ffffff"
     bordercolor="#000000"
     borderopacity="0.25"
     inkscape:showpageshadow="2"
     inkscape:pageopacity="0.0"
     inkscape:pagecheckerboard="0"
     inkscape:deskcolor="#d1d1d1"
     inkscape:document-units="mm"
     showgrid="false"
     inkscape:zoom="1.8680931"
     inkscape:cx="102.7786"
     inkscape:cy="63.433669"
     inkscape:window-width="1920"
     inkscape:window-height="1001"
     inkscape:window-x="-9"
     inkscape:window-y="-9"
     inkscape:window-maximized="1"
     inkscape:current-layer="layer1" />
  <defs
     id="defs206846" />
  <g
     inkscape:label="Capa 1"
     inkscape:groupmode="layer"
     id="layer1"
     transform="translate(9.9560137,-188.41293)">
    <path
       style="color:#000000;fill:#000000;stroke-linecap:round;stroke-linejoin:round"
       d="m 4.5488281,206.73633 a 1.4111151,1.4111151 0 0 0 -0.9980468,0.41211 l -0.1503907,0.14843 a 1.4111151,1.4111151 0 0 0 0,1.9961 1.4111151,1.4111151 0 0 0 1.9960938,0 l 0.1484375,-0.14844 a 1.4111151,1.4111151 0 0 0 0,-1.99609 1.4111151,1.4111151 0 0 0 -0.9960938,-0.41211 z"
       id="path29801-0" />
    <path
       style="color:#000000;fill:#000000;stroke-linecap:round;stroke-linejoin:round;-inkscape-stroke:none"
       d="m 4.3710937,210.99805 a 1.41111,1.41111 0 0 0 -1.4785156,1.33984 c -0.1994479,4.01663 -0.9281167,11.92671 -2.44335935,18.04297 -0.75762132,3.05813 -1.76041775,5.67781 -2.75781255,6.99414 -0.4986973,0.65817 -0.9416782,0.94408 -1.2539062,1.01953 -0.312228,0.0754 -0.6443848,0.0567 -1.3027344,-0.4082 -1.6541726,-1.16808 -1.9378118,-2.89392 -1.4570312,-4.82813 0.4807805,-1.93421 1.9203295,-3.81608 3.2246093,-4.47265 a 1.41111,1.41111 0 0 0 0.6269532,-1.89453 1.41111,1.41111 0 0 0 -1.8964844,-0.625 c -2.3194665,1.1676 -4.0219411,3.61134 -4.6933594,6.3125 -0.6714182,2.70115 -0.1170065,5.91957 2.5664063,7.81445 1.1156061,0.78778 2.4126052,1.12964 3.5957031,0.84375 1.1830979,-0.28589 2.10196408,-1.08281 2.83984375,-2.05664 1.47575935,-1.94767 2.44822355,-4.79106 3.24804685,-8.01953 1.5996468,-6.45696 2.3145928,-14.41745 2.5214844,-18.58399 a 1.41111,1.41111 0 0 0 -1.3398438,-1.47851 z"
       id="path33081" />
  </g>
</svg>
