<?xml version="1.0" encoding="UTF-8" standalone="no"?>
<!-- Created with Inkscape (http://www.inkscape.org/) -->

<svg
   width="10.253571mm"
   height="53.167999mm"
   viewBox="0 0 10.253571 53.167999"
   version="1.1"
   id="svg69450"
   inkscape:version="1.2.1 (9c6d41e410, 2022-07-14)"
   sodipodi:docname="l.svg"
   xmlns:inkscape="http://www.inkscape.org/namespaces/inkscape"
   xmlns:sodipodi="http://sodipodi.sourceforge.net/DTD/sodipodi-0.dtd"
   xmlns="http://www.w3.org/2000/svg"
   xmlns:svg="http://www.w3.org/2000/svg">
  <sodipodi:namedview
     id="namedview69452"
     pagecolor="#ffffff"
     bordercolor="#000000"
     borderopacity="0.25"
     inkscape:showpageshadow="2"
     inkscape:pageopacity="0.0"
     inkscape:pagecheckerboard="0"
     inkscape:deskcolor="#d1d1d1"
     inkscape:document-units="mm"
     showgrid="false"
     inkscape:zoom="0.7483165"
     inkscape:cx="-61.471316"
     inkscape:cy="78.175478"
     inkscape:window-width="1920"
     inkscape:window-height="1001"
     inkscape:window-x="-9"
     inkscape:window-y="-9"
     inkscape:window-maximized="1"
     inkscape:current-layer="layer1" />
  <defs
     id="defs69447" />
  <g
     inkscape:label="Capa 1"
     inkscape:groupmode="layer"
     id="layer1"
     transform="translate(-158.84204,-133.09798)">
    <path
       style="color:#000000;fill:#000000;stroke-linecap:round;stroke-linejoin:round;-inkscape-stroke:none"
       d="m 165.75586,140.54883 a 1.4111151,1.4111151 0 0 0 -1.85547,0.73242 c -0.59539,1.37331 -1.25254,3.8374 -1.91016,6.92187 -0.65761,3.08448 -1.26969,6.70455 -1.58593,10.06446 -0.31625,3.3599 -0.38601,6.40332 0.25586,8.65234 0.32093,1.12451 0.86106,2.2102 2.00781,2.73242 1.14674,0.52223 2.46038,0.16132 3.60547,-0.59765 a 1.4111151,1.4111151 0 0 0 0.39648,-1.95508 1.4111151,1.4111151 0 0 0 -1.95703,-0.39649 c -0.72574,0.48103 -0.8857,0.37688 -0.87695,0.38086 0.009,0.004 -0.25344,-0.20555 -0.46289,-0.93945 -0.41891,-1.46779 -0.46025,-4.40223 -0.15821,-7.61133 0.30205,-3.20909 0.89724,-6.74813 1.53516,-9.74023 0.63792,-2.9921 1.36469,-5.52246 1.74023,-6.38867 a 1.4111151,1.4111151 0 0 0 -0.73437,-1.85547 z"
       id="path29799-5-1" />
  </g>
</svg>
