<?xml version="1.0" encoding="UTF-8" standalone="no"?>
<!-- Created with Inkscape (http://www.inkscape.org/) -->

<svg
   width="32.882141mm"
   height="53.167999mm"
   viewBox="0 0 32.882143 53.167999"
   version="1.1"
   id="svg69450"
   inkscape:version="1.2.1 (9c6d41e410, 2022-07-14)"
   sodipodi:docname="m.svg"
   xmlns:inkscape="http://www.inkscape.org/namespaces/inkscape"
   xmlns:sodipodi="http://sodipodi.sourceforge.net/DTD/sodipodi-0.dtd"
   xmlns="http://www.w3.org/2000/svg"
   xmlns:svg="http://www.w3.org/2000/svg">
  <sodipodi:namedview
     id="namedview69452"
     pagecolor="#ffffff"
     bordercolor="#000000"
     borderopacity="0.25"
     inkscape:showpageshadow="2"
     inkscape:pageopacity="0.0"
     inkscape:pagecheckerboard="0"
     inkscape:deskcolor="#d1d1d1"
     inkscape:document-units="mm"
     showgrid="false"
     inkscape:zoom="0.7483165"
     inkscape:cx="-26.726659"
     inkscape:cy="78.175478"
     inkscape:window-width="1920"
     inkscape:window-height="1001"
     inkscape:window-x="-9"
     inkscape:window-y="-9"
     inkscape:window-maximized="1"
     inkscape:current-layer="layer1" />
  <defs
     id="defs69447" />
  <g
     inkscape:label="Capa 1"
     inkscape:groupmode="layer"
     id="layer1"
     transform="translate(-149.64919,-133.09798)">
    <path
       style="color:#000000;fill:#000000;stroke-linecap:round;stroke-linejoin:round;-inkscape-stroke:none"
       d="m 162.67578,153.18164 c -1.02579,0.1737 -1.92494,0.68026 -2.74609,1.32813 -1.08973,0.85975 -2.05012,2.03564 -2.95899,3.28906 0.001,-0.21893 0.0797,-0.43558 0.0527,-0.65625 -0.0945,-0.77302 -0.54144,-1.69217 -1.36914,-2.13867 -0.82771,-0.44651 -1.7371,-0.42171 -2.7168,-0.21094 a 1.41111,1.41111 0 0 0 -1.08203,1.67578 1.41111,1.41111 0 0 0 1.67578,1.08398 c 0.54867,-0.11803 0.68377,-0.0508 0.68945,-0.0566 0.0477,0.41666 -0.24869,1.81361 -0.80468,3.29102 -0.55794,1.48258 -1.29111,3.10915 -1.81641,4.53125 -0.26265,0.71105 -0.47902,1.36475 -0.58789,2.01172 -0.10887,0.64697 -0.23803,1.46381 0.49609,2.24219 5.6e-4,5.9e-4 0.92502,0.44135 0.92578,0.4414 7.7e-4,6e-5 0.72169,-0.14015 0.72266,-0.14062 9.7e-4,-4.8e-4 0.23584,-0.14001 0.29883,-0.19336 0.063,-0.0533 0.10289,-0.0959 0.13476,-0.13086 0.12748,-0.1399 0.14723,-0.18887 0.17774,-0.23828 0.061,-0.0988 0.0909,-0.15967 0.1289,-0.23438 0.076,-0.14941 0.16261,-0.33007 0.27149,-0.56055 0.21775,-0.46095 0.51952,-1.10724 0.89258,-1.87304 0.74611,-1.53161 1.77899,-3.54002 2.94922,-5.40821 1.17022,-1.86818 2.50627,-3.59323 3.66796,-4.50976 0.58085,-0.45827 1.09804,-0.69699 1.46875,-0.75977 0.37072,-0.0628 0.60635,-0.0308 0.99805,0.2461 0.93988,0.66436 1.40478,1.66609 1.58789,3.00195 0.18312,1.33586 0.0187,2.93107 -0.28125,4.3457 -0.26928,1.27017 -0.62459,2.2824 -0.88672,2.97266 -0.0678,0.16545 -0.14982,0.27078 -0.21679,0.43945 -0.0844,0.21243 -0.14088,0.36245 -0.1875,0.50977 -0.0233,0.0737 -0.0468,0.1087 -0.0762,0.32226 -0.007,0.0534 -0.016,0.1183 -0.0117,0.24805 0.002,0.0649 0.006,0.1471 0.0332,0.26758 0.0272,0.12048 0.2223,0.50144 0.22265,0.50195 3.6e-4,5.1e-4 0.80418,0.55651 0.80469,0.55664 5.1e-4,1.3e-4 0.83918,-0.0427 0.83985,-0.043 6.6e-4,-2.4e-4 0.29074,-0.14131 0.36718,-0.19921 0.0764,-0.0579 0.12489,-0.1044 0.16211,-0.14258 0.29782,-0.30544 0.23263,-0.30826 0.26953,-0.37696 0.0369,-0.0687 0.0657,-0.12847 0.0977,-0.19726 0.0639,-0.13759 0.1329,-0.30178 0.21289,-0.50195 0.0283,-0.0709 0.0692,-0.25465 0.0996,-0.33399 1.71063,-4.16317 3.66548,-7.21014 5.48242,-9.07422 1.88829,-1.93727 3.5834,-2.56315 4.47266,-2.47265 0.44463,0.0452 0.73286,0.19474 1.0332,0.55273 0.30034,0.35799 0.58897,0.97802 0.7207,1.91797 0.26348,1.87991 -0.1476,4.9638 -1.76757,9.01758 a 1.41111,1.41111 0 0 0 0.78711,1.83398 1.41111,1.41111 0 0 0 1.83398,-0.78515 c 1.73683,-4.34621 2.31259,-7.81059 1.94141,-10.45899 -0.18559,-1.3242 -0.61958,-2.46503 -1.35352,-3.33984 -0.73394,-0.87481 -1.79082,-1.43101 -2.91016,-1.54492 -2.23867,-0.22783 -4.54456,1.01783 -6.77929,3.31054 -0.71508,0.73363 -1.40388,1.78887 -2.10156,2.76172 -0.0148,-0.15789 0.01,-0.31308 -0.0117,-0.4707 -0.25138,-1.83382 -1.04595,-3.71321 -2.75586,-4.92188 -0.93268,-0.65926 -2.07187,-0.90026 -3.09766,-0.72656 z"
       id="path33911" />
  </g>
</svg>
