<?xml version="1.0" encoding="UTF-8" standalone="no"?>
<!-- Created with Inkscape (http://www.inkscape.org/) -->

<svg
   width="19.799999mm"
   height="53.167999mm"
   viewBox="0 0 19.799999 53.167999"
   version="1.1"
   id="svg70682"
   inkscape:version="1.2.1 (9c6d41e410, 2022-07-14)"
   sodipodi:docname="n.svg"
   xmlns:inkscape="http://www.inkscape.org/namespaces/inkscape"
   xmlns:sodipodi="http://sodipodi.sourceforge.net/DTD/sodipodi-0.dtd"
   xmlns="http://www.w3.org/2000/svg"
   xmlns:svg="http://www.w3.org/2000/svg">
  <sodipodi:namedview
     id="namedview70684"
     pagecolor="#ffffff"
     bordercolor="#000000"
     borderopacity="0.25"
     inkscape:showpageshadow="2"
     inkscape:pageopacity="0.0"
     inkscape:pagecheckerboard="0"
     inkscape:deskcolor="#d1d1d1"
     inkscape:document-units="mm"
     showgrid="false"
     inkscape:zoom="2.8527371"
     inkscape:cx="181.22946"
     inkscape:cy="127.42149"
     inkscape:window-width="1920"
     inkscape:window-height="1001"
     inkscape:window-x="-9"
     inkscape:window-y="-9"
     inkscape:window-maximized="1"
     inkscape:current-layer="layer1" />
  <defs
     id="defs70679" />
  <g
     inkscape:label="Capa 1"
     inkscape:groupmode="layer"
     id="layer1"
     transform="translate(49.492245)">
    <path
       style="color:#000000;fill:#000000;stroke-linecap:round;stroke-linejoin:round;-inkscape-stroke:none"
       d="m -37.011719,20.576172 c -1.111475,0.05949 -2.164021,0.394789 -3.080078,0.929687 -1.293486,0.755284 -2.319572,1.87713 -3.248047,3.080078 -0.02666,-0.75404 -0.149563,-1.540077 -0.777343,-2.21289 -0.668732,-0.716701 -1.805164,-0.887243 -2.734375,-0.654297 a 1.41111,1.41111 0 0 0 -1.027344,1.712891 1.41111,1.41111 0 0 0 1.710937,1.02539 c 0.0086,0.0425 0.01982,0.02457 0.02539,0.328125 0.01659,0.903347 -0.359216,2.620952 -0.865234,4.275391 -0.506019,1.654439 -1.111551,3.283061 -1.480469,4.378906 -0.09223,0.273961 -0.170559,0.514182 -0.232422,0.734375 -0.06186,0.220194 -0.127653,0.347989 -0.130859,0.757813 -8.02e-4,0.102455 -0.0015,0.229798 0.05664,0.4375 0.05811,0.207701 0.201366,0.556425 0.587891,0.816406 0.386525,0.25998 0.893854,0.267377 1.166015,0.197265 0.272162,-0.07011 0.405261,-0.164739 0.50586,-0.236328 0.402396,-0.286353 0.441937,-0.422767 0.603515,-0.642578 0.209333,-0.284772 0.235526,-0.39835 0.31836,-0.583984 0.08283,-0.185634 0.16996,-0.398581 0.271484,-0.646485 0.203048,-0.495807 0.456852,-1.126761 0.765625,-1.845703 0.617546,-1.437883 1.456162,-3.218887 2.47461,-4.810547 1.018447,-1.591659 2.229028,-2.970465 3.433593,-3.673828 1.204566,-0.703362 2.290208,-0.87533 3.84375,-0.107422 0.642457,0.317565 1.005275,0.978271 1.167969,2.181641 0.162694,1.20337 0.02113,2.78078 -0.25,4.220703 -0.27113,1.439924 -0.658978,2.753729 -0.910156,3.496094 -0.02998,0.0886 -0.04891,0.137994 -0.07422,0.208984 a 1.41111,1.41111 0 0 0 -0.08594,0.09766 c -0.06716,0.197095 -0.109112,0.324769 -0.146485,0.466796 -0.0093,0.03551 -0.01787,0.07015 -0.0293,0.128907 -0.01143,0.05875 -0.05435,0.06621 -0.02344,0.416015 0.0077,0.08745 0.09743,0.405695 0.09766,0.40625 2.25e-4,5.55e-4 0.734011,0.759603 0.734375,0.759766 3.64e-4,1.63e-4 1.157702,-0.0017 1.158203,-0.002 5.01e-4,-2.27e-4 0.329226,-0.202884 0.400391,-0.271485 0.284658,-0.274401 0.24008,-0.303267 0.269531,-0.357421 0.117804,-0.216619 0.124324,-0.264992 0.179688,-0.410157 0.05536,-0.145165 0.118994,-0.325048 0.191406,-0.539062 0.289646,-0.856058 0.708069,-2.266276 1.011719,-3.878906 0.303649,-1.612631 0.504058,-3.415301 0.273437,-5.121094 -0.230621,-1.705793 -0.993838,-3.483297 -2.714844,-4.333985 -1.155255,-0.571036 -2.326024,-0.788002 -3.4375,-0.728515 z"
       id="path33911-5" />
    <rect
       style="fill:#e9afaf;stroke-width:2.47186;stroke-linecap:round;stroke-linejoin:round"
       id="rect81742"
       width="19.799999"
       height="53.167999"
       x="147.00026"
       y="128.83638" />
  </g>
</svg>
