<?xml version="1.0" encoding="UTF-8" standalone="no"?>
<!-- Created with Inkscape (http://www.inkscape.org/) -->

<svg
   width="20.507141mm"
   height="53.167999mm"
   viewBox="0 0 20.507142 53.167999"
   version="1.1"
   id="svg69450"
   inkscape:version="1.2.1 (9c6d41e410, 2022-07-14)"
   sodipodi:docname="p.svg"
   xmlns:inkscape="http://www.inkscape.org/namespaces/inkscape"
   xmlns:sodipodi="http://sodipodi.sourceforge.net/DTD/sodipodi-0.dtd"
   xmlns="http://www.w3.org/2000/svg"
   xmlns:svg="http://www.w3.org/2000/svg">
  <sodipodi:namedview
     id="namedview69452"
     pagecolor="#ffffff"
     bordercolor="#000000"
     borderopacity="0.25"
     inkscape:showpageshadow="2"
     inkscape:pageopacity="0.0"
     inkscape:pagecheckerboard="0"
     inkscape:deskcolor="#d1d1d1"
     inkscape:document-units="mm"
     showgrid="false"
     inkscape:zoom="0.7483165"
     inkscape:cx="-44.098988"
     inkscape:cy="78.175478"
     inkscape:window-width="1920"
     inkscape:window-height="1001"
     inkscape:window-x="-9"
     inkscape:window-y="-9"
     inkscape:window-maximized="1"
     inkscape:current-layer="layer1" />
  <defs
     id="defs69447" />
  <g
     inkscape:label="Capa 1"
     inkscape:groupmode="layer"
     id="layer1"
     transform="translate(-154.24561,-133.09798)"
     style="display:inline">
    <path
       style="color:#000000;fill:#000000;stroke-linecap:round;stroke-linejoin:round"
       d="m 158.43945,155.05273 a 1.41111,1.41111 0 0 0 -1.40429,1.41797 c 0.0531,10.36131 -0.0338,18.36171 -2.12891,28.13086 a 1.41111,1.41111 0 0 0 1.08398,1.67383 1.41111,1.41111 0 0 0 1.67579,-1.08203 c 2.1583,-10.06365 2.24466,-18.35183 2.1914,-28.73633 a 1.41111,1.41111 0 0 0 -1.41797,-1.4043 z"
       id="path35421" />
    <path
       style="color:#000000;fill:#000000;stroke-linecap:round;stroke-linejoin:round;-inkscape-stroke:none"
       d="m 164.66992,153.61328 c -2.357,0.0938 -4.93562,1.36798 -7.3125,4.11328 a 1.41111,1.41111 0 0 0 0.14258,1.99024 1.41111,1.41111 0 0 0 1.99023,-0.14258 c 2.70797,-3.12772 4.86566,-3.51241 6.6211,-2.97461 1.75544,0.5378 3.32278,2.32315 4.03515,4.28906 0.71237,1.96592 0.5025,3.82515 -0.42382,4.69141 -0.46316,0.43313 -1.16392,0.75891 -2.39454,0.76562 -1.23061,0.007 -2.959,-0.34824 -5.1914,-1.29687 a 1.41111,1.41111 0 0 0 -1.85156,0.74609 1.41111,1.41111 0 0 0 0.74609,1.85156 c 2.47509,1.05176 4.54464,1.53113 6.3125,1.52149 1.76786,-0.01 3.26514,-0.55142 4.30664,-1.52539 2.08301,-1.94795 2.11065,-5.05945 1.14844,-7.71485 -0.96221,-2.65539 -2.98003,-5.14266 -5.86133,-6.02539 -0.72032,-0.22068 -1.48191,-0.32033 -2.26758,-0.28906 z"
       id="path36153" />
  </g>
</svg>
