<?xml version="1.0" encoding="UTF-8" standalone="no"?>
<!-- Created with Inkscape (http://www.inkscape.org/) -->

<svg
   width="26.517857mm"
   height="53.167999mm"
   viewBox="0 0 26.517857 53.167999"
   version="1.1"
   id="svg69450"
   inkscape:version="1.2.1 (9c6d41e410, 2022-07-14)"
   sodipodi:docname="r.svg"
   xmlns:inkscape="http://www.inkscape.org/namespaces/inkscape"
   xmlns:sodipodi="http://sodipodi.sourceforge.net/DTD/sodipodi-0.dtd"
   xmlns="http://www.w3.org/2000/svg"
   xmlns:svg="http://www.w3.org/2000/svg">
  <sodipodi:namedview
     id="namedview69452"
     pagecolor="#ffffff"
     bordercolor="#000000"
     borderopacity="0.25"
     inkscape:showpageshadow="2"
     inkscape:pageopacity="0.0"
     inkscape:pagecheckerboard="0"
     inkscape:deskcolor="#d1d1d1"
     inkscape:document-units="mm"
     showgrid="false"
     inkscape:zoom="0.7483165"
     inkscape:cx="-82.852643"
     inkscape:cy="78.175478"
     inkscape:window-width="1920"
     inkscape:window-height="1001"
     inkscape:window-x="-9"
     inkscape:window-y="-9"
     inkscape:window-maximized="1"
     inkscape:current-layer="layer1" />
  <defs
     id="defs69447" />
  <g
     inkscape:label="Capa 1"
     inkscape:groupmode="layer"
     id="layer1"
     transform="translate(-164.49918,-133.09798)"
     style="display:inline">
    <path
       style="color:#000000;fill:#000000;stroke-linecap:round;stroke-linejoin:round;-inkscape-stroke:none"
       d="m 180.68164,153.71094 c -2.66047,0.50994 -4.90502,2.07667 -6.68945,3.93359 -0.78191,0.81367 -1.44383,1.6987 -2.05274,2.58594 -0.26592,-1.10556 -0.59992,-2.1797 -1.11133,-3.11328 -0.42592,-0.77753 -0.96456,-1.48676 -1.73828,-1.98047 -0.77371,-0.49372 -1.81473,-0.68664 -2.79297,-0.44141 a 1.41111,1.41111 0 0 0 -1.02539,1.71094 1.41111,1.41111 0 0 0 1.71094,1.02539 c 0.30308,-0.076 0.38512,-0.0466 0.58985,0.084 0.20472,0.13064 0.50041,0.44793 0.77929,0.95704 0.55777,1.01821 1.00506,2.71242 1.23633,4.37304 0.0975,0.69973 0.0442,1.14882 0.0781,1.79492 -0.20351,0.56658 -0.45045,1.15635 -0.55079,1.66602 -0.16266,0.82631 -0.27967,1.56014 0.12696,2.42773 0.13643,0.2911 0.20596,0.64445 0.88672,0.97461 0.34038,0.16509 0.91804,0.19368 1.30468,0.0156 0.38664,-0.17805 0.56849,-0.4237 0.68555,-0.60547 0.46822,-0.72709 0.40895,-1.13153 0.46484,-1.76562 0.0527,-0.5977 -0.0707,-1.53134 -0.0957,-2.3086 0.0465,-0.11357 0.05,-0.18389 0.10156,-0.30078 0.72122,-1.63641 1.92826,-3.57398 3.4375,-5.14453 1.50925,-1.57055 3.30094,-2.75596 5.18555,-3.11719 1.88461,-0.36122 3.92646,-0.002 6.33789,1.85156 a 1.41111,1.41111 0 0 0 1.97852,-0.25976 1.41111,1.41111 0 0 0 -0.25782,-1.97852 c -2.91733,-2.24263 -5.92937,-2.8947 -8.58984,-2.38476 z"
       id="path33911-5-2" />
  </g>
</svg>
