<?xml version="1.0" encoding="UTF-8" standalone="no"?>
<!-- Created with Inkscape (http://www.inkscape.org/) -->

<svg
   width="22.982141mm"
   height="53.167999mm"
   viewBox="0 0 22.982142 53.167999"
   version="1.1"
   id="svg69450"
   inkscape:version="1.2.1 (9c6d41e410, 2022-07-14)"
   sodipodi:docname="s.svg"
   xmlns:inkscape="http://www.inkscape.org/namespaces/inkscape"
   xmlns:sodipodi="http://sodipodi.sourceforge.net/DTD/sodipodi-0.dtd"
   xmlns="http://www.w3.org/2000/svg"
   xmlns:svg="http://www.w3.org/2000/svg">
  <sodipodi:namedview
     id="namedview69452"
     pagecolor="#ffffff"
     bordercolor="#000000"
     borderopacity="0.25"
     inkscape:showpageshadow="2"
     inkscape:pageopacity="0.0"
     inkscape:pagecheckerboard="0"
     inkscape:deskcolor="#d1d1d1"
     inkscape:document-units="mm"
     showgrid="false"
     inkscape:zoom="0.7483165"
     inkscape:cx="-82.852643"
     inkscape:cy="78.175478"
     inkscape:window-width="1920"
     inkscape:window-height="1001"
     inkscape:window-x="-9"
     inkscape:window-y="-9"
     inkscape:window-maximized="1"
     inkscape:current-layer="layer1" />
  <defs
     id="defs69447" />
  <g
     inkscape:label="Capa 1"
     inkscape:groupmode="layer"
     id="layer1"
     transform="translate(-164.49918,-133.09798)"
     style="display:inline">
    <path
       style="color:#000000;fill:#000000;stroke-linecap:round;stroke-linejoin:round;-inkscape-stroke:none"
       d="m 178.73242,153.76172 c -1.04592,-0.0166 -2.15288,0.0564 -3.26367,0.20312 -2.22158,0.2935 -4.41239,0.86518 -6.06445,1.89453 -0.82604,0.51468 -1.56059,1.16677 -1.95313,2.10938 -0.39254,0.94261 -0.27284,2.12609 0.28906,3.08203 0.9642,1.64037 2.79063,2.23034 4.54297,2.36328 1.75235,0.13295 3.63359,-0.11503 5.41602,-0.3789 1.78243,-0.26388 3.47595,-0.54635 4.62109,-0.57227 0.55712,-0.0126 0.95878,0.0527 1.12305,0.10742 0.13882,0.55003 0.12203,0.94031 -0.043,1.29492 -0.17844,0.3835 -0.54386,0.79201 -1.14258,1.17774 -1.19744,0.77146 -3.26124,1.34756 -5.45117,1.55078 -2.18993,0.20322 -4.51457,0.0588 -6.24805,-0.35938 -0.86674,-0.20908 -1.58426,-0.49103 -2.03515,-0.76757 -0.4509,-0.27655 -0.57703,-0.50385 -0.59571,-0.57032 a 1.41111,1.41111 0 0 0 -1.74023,-0.97656 1.41111,1.41111 0 0 0 -0.97656,1.74024 c 0.28292,1.00666 1.01838,1.71026 1.83789,2.21289 0.81951,0.50263 1.78181,0.84835 2.84765,1.10547 2.1317,0.51422 4.68768,0.65631 7.17188,0.42578 2.4842,-0.23053 4.88612,-0.80954 6.71875,-1.99024 0.91632,-0.59034 1.70623,-1.35668 2.17187,-2.35742 0.46565,-1.00074 0.54323,-2.20739 0.19532,-3.38867 -0.25185,-0.8551 -1.00961,-1.4929 -1.72071,-1.75 -0.71109,-0.2571 -1.42226,-0.29445 -2.17773,-0.27735 -1.51094,0.0342 -3.23397,0.34641 -4.9707,0.60352 -1.73674,0.25711 -3.47648,0.45701 -4.78907,0.35742 -1.31258,-0.0996 -1.99503,-0.42238 -2.32422,-0.98242 -0.22193,-0.37758 -0.17899,-0.4133 -0.11523,-0.56641 0.0638,-0.1531 0.31744,-0.47333 0.83984,-0.79882 1.04482,-0.651 2.98752,-1.23185 4.94336,-1.49024 1.95585,-0.25839 3.97351,-0.20773 5.10938,0.0762 0.47084,0.11769 0.62053,0.24253 0.68164,0.27539 a 1.41111,1.41111 0 0 0 0.55469,1.70118 1.41111,1.41111 0 0 0 1.92578,-0.52735 c 0.49459,-0.86825 0.45129,-2.18106 -0.17578,-2.92969 -0.62708,-0.74862 -1.4337,-1.03864 -2.30274,-1.25585 -0.86904,-0.21722 -1.85446,-0.32515 -2.90039,-0.3418 z"
       id="path39363" />
  </g>
</svg>
