<?xml version="1.0" encoding="UTF-8" standalone="no"?>
<!-- Created with Inkscape (http://www.inkscape.org/) -->

<svg
   width="22.275mm"
   height="53.167999mm"
   viewBox="0 0 22.275 53.167999"
   version="1.1"
   id="svg69450"
   inkscape:version="1.2.1 (9c6d41e410, 2022-07-14)"
   sodipodi:docname="u.svg"
   xmlns:inkscape="http://www.inkscape.org/namespaces/inkscape"
   xmlns:sodipodi="http://sodipodi.sourceforge.net/DTD/sodipodi-0.dtd"
   xmlns="http://www.w3.org/2000/svg"
   xmlns:svg="http://www.w3.org/2000/svg">
  <sodipodi:namedview
     id="namedview69452"
     pagecolor="#ffffff"
     bordercolor="#000000"
     borderopacity="0.25"
     inkscape:showpageshadow="2"
     inkscape:pageopacity="0.0"
     inkscape:pagecheckerboard="0"
     inkscape:deskcolor="#d1d1d1"
     inkscape:document-units="mm"
     showgrid="false"
     inkscape:zoom="0.7483165"
     inkscape:cx="-116.26097"
     inkscape:cy="78.175478"
     inkscape:window-width="1920"
     inkscape:window-height="1001"
     inkscape:window-x="-9"
     inkscape:window-y="-9"
     inkscape:window-maximized="1"
     inkscape:current-layer="layer1" />
  <defs
     id="defs69447" />
  <g
     inkscape:label="Capa 1"
     inkscape:groupmode="layer"
     id="layer1"
     transform="translate(-173.33847,-133.09798)"
     style="display:inline">
    <path
       style="color:#000000;fill:#000000;stroke-linecap:round;stroke-linejoin:round;-inkscape-stroke:none"
       d="M 189.7832,154.66406 A 1.41111,1.41111 0 0 0 188.75781,155 a 1.41111,1.41111 0 0 0 -0.15429,1.98828 c 1.83484,2.14301 2.73711,3.89594 3.03125,5.17774 0.29413,1.28179 0.0724,2.05838 -0.42969,2.73046 -1.0042,1.34418 -3.81784,2.21342 -6.75391,2.01368 -2.93607,-0.19975 -5.7623,-1.45488 -6.73633,-2.95118 -0.48701,-0.74814 -0.65123,-1.50702 -0.30859,-2.63867 0.34264,-1.13164 1.29788,-2.63169 3.21289,-4.3789 a 1.41111,1.41111 0 0 0 0.0918,-1.99414 1.41111,1.41111 0 0 0 -1.99414,-0.0918 c -2.15617,1.96724 -3.4592,3.82163 -4.01172,5.64648 -0.55253,1.82485 -0.24942,3.62477 0.64453,4.99805 1.7879,2.74657 5.37912,3.98634 8.91016,4.22656 3.53103,0.24022 7.23608,-0.50503 9.20507,-3.14062 0.9845,-1.3178 1.3625,-3.1221 0.91993,-5.05078 -0.44258,-1.92869 -1.61362,-4.01569 -3.63868,-6.38086 a 1.41111,1.41111 0 0 0 -0.96289,-0.49024 z"
       id="path39391" />
  </g>
</svg>
