<?xml version="1.0" encoding="UTF-8" standalone="no"?>
<!-- Created with Inkscape (http://www.inkscape.org/) -->

<svg
   width="22.275mm"
   height="53.167999mm"
   viewBox="0 0 22.275 53.167999"
   version="1.1"
   id="svg69450"
   inkscape:version="1.2.1 (9c6d41e410, 2022-07-14)"
   sodipodi:docname="u.svg"
   xmlns:inkscape="http://www.inkscape.org/namespaces/inkscape"
   xmlns:sodipodi="http://sodipodi.sourceforge.net/DTD/sodipodi-0.dtd"
   xmlns="http://www.w3.org/2000/svg"
   xmlns:svg="http://www.w3.org/2000/svg">
  <sodipodi:namedview
     id="namedview69452"
     pagecolor="#ffffff"
     bordercolor="#000000"
     borderopacity="0.25"
     inkscape:showpageshadow="2"
     inkscape:pageopacity="0.0"
     inkscape:pagecheckerboard="0"
     inkscape:deskcolor="#d1d1d1"
     inkscape:document-units="mm"
     showgrid="false"
     inkscape:zoom="0.7483165"
     inkscape:cx="-116.26097"
     inkscape:cy="78.175478"
     inkscape:window-width="1920"
     inkscape:window-height="1001"
     inkscape:window-x="-9"
     inkscape:window-y="-9"
     inkscape:window-maximized="1"
     inkscape:current-layer="layer1" />
  <defs
     id="defs69447" />
  <g
     inkscape:label="Capa 1"
     inkscape:groupmode="layer"
     id="layer1"
     transform="translate(-173.33847,-133.09798)"
     style="display:inline">
    <path
       style="color:#000000;fill:#000000;stroke-linecap:round;stroke-linejoin:round;-inkscape-stroke:none"
       d="m 194.37109,152.34961 a 1.4111151,1.4111151 0 0 0 -1.95703,0.39258 c -2.46522,3.69783 -4.23329,6.97988 -5.61523,9.44336 -1.38194,2.46347 -2.56331,4.07964 -2.95899,4.32226 -0.19783,0.12131 0.0157,0.11175 -0.16015,0.0195 -0.17589,-0.0922 -0.66598,-0.51949 -1.25586,-1.39257 -1.17977,-1.74617 -2.80357,-5.11328 -5.04688,-10.28516 a 1.4111151,1.4111151 0 0 0 -1.85547,-0.73242 1.4111151,1.4111151 0 0 0 -0.73242,1.85742 c 2.2609,5.21244 3.86481,8.62064 5.29688,10.74023 0.71603,1.0598 1.37896,1.83843 2.2832,2.3125 0.90424,0.47407 2.12394,0.39037 2.94531,-0.11328 1.64274,-1.00729 2.54332,-2.84843 3.94532,-5.34765 1.40199,-2.49923 3.12072,-5.685 5.5039,-9.25977 a 1.4111151,1.4111151 0 0 0 -0.39258,-1.95703 z"
       id="path39445" />
  </g>
</svg>
