<?xml version="1.0" encoding="UTF-8" standalone="no"?>
<!-- Created with Inkscape (http://www.inkscape.org/) -->

<svg
   width="36.064281mm"
   height="53.167999mm"
   viewBox="0 0 36.064282 53.167999"
   version="1.1"
   id="svg69450"
   inkscape:version="1.2.1 (9c6d41e410, 2022-07-14)"
   sodipodi:docname="w.svg"
   xmlns:inkscape="http://www.inkscape.org/namespaces/inkscape"
   xmlns:sodipodi="http://sodipodi.sourceforge.net/DTD/sodipodi-0.dtd"
   xmlns="http://www.w3.org/2000/svg"
   xmlns:svg="http://www.w3.org/2000/svg">
  <sodipodi:namedview
     id="namedview69452"
     pagecolor="#ffffff"
     bordercolor="#000000"
     borderopacity="0.25"
     inkscape:showpageshadow="2"
     inkscape:pageopacity="0.0"
     inkscape:pagecheckerboard="0"
     inkscape:deskcolor="#d1d1d1"
     inkscape:document-units="mm"
     showgrid="false"
     inkscape:zoom="0.7483165"
     inkscape:cx="-153.67829"
     inkscape:cy="78.175478"
     inkscape:window-width="1920"
     inkscape:window-height="1001"
     inkscape:window-x="-9"
     inkscape:window-y="-9"
     inkscape:window-maximized="1"
     inkscape:current-layer="layer1" />
  <defs
     id="defs69447" />
  <g
     inkscape:label="Capa 1"
     inkscape:groupmode="layer"
     id="layer1"
     transform="translate(-183.19269,-133.09798)"
     style="display:inline">
    <path
       style="color:#000000;fill:#000000;stroke-linecap:round;stroke-linejoin:round"
       d="m 203.70117,151.98437 a 1.4111151,1.4111151 0 0 0 -1.95703,0.39063 c -2.46522,3.69784 -4.23329,6.98184 -5.61523,9.44531 -1.38194,2.46348 -2.56332,4.07965 -2.95899,4.32227 -0.19783,0.12131 0.0138,0.10979 -0.16211,0.0176 -0.17588,-0.0922 -0.66402,-0.5195 -1.2539,-1.39258 -1.17976,-1.74617 -2.80358,-5.11133 -5.04688,-10.28321 a 1.4111151,1.4111151 0 0 0 -1.85547,-0.73242 1.4111151,1.4111151 0 0 0 -0.73437,1.85547 c 2.26089,5.21244 3.86676,8.62064 5.29883,10.74024 0.71603,1.0598 1.37896,1.83843 2.2832,2.3125 0.90424,0.47407 2.12394,0.39231 2.94531,-0.11133 1.64274,-1.00729 2.54332,-2.84843 3.94531,-5.34766 1.402,-2.49922 3.12073,-5.685 5.50391,-9.25976 a 1.4111151,1.4111151 0 0 0 -0.39258,-1.95704 z"
       id="path39445-3" />
    <path
       style="color:#000000;fill:#000000;stroke-linecap:round;stroke-linejoin:round;-inkscape-stroke:none"
       d="m 217.41797,152.68555 a 1.4111151,1.4111151 0 0 0 -1.95703,0.39062 c -2.46523,3.69784 -4.2333,6.97989 -5.61524,9.44336 -1.38194,2.46348 -2.56331,4.07965 -2.95898,4.32227 -0.19784,0.12131 0.0138,0.11174 -0.16211,0.0195 -0.17589,-0.0922 -0.66402,-0.5195 -1.25391,-1.39258 -1.17976,-1.74616 -2.80357,-5.11133 -5.04687,-10.2832 a 1.4111151,1.4111151 0 0 0 -1.85742,-0.73243 1.4111151,1.4111151 0 0 0 -0.73243,1.85547 c 2.2609,5.21244 3.86481,8.62064 5.29688,10.74024 0.71603,1.0598 1.37896,1.83843 2.2832,2.3125 0.90424,0.47407 2.1259,0.39036 2.94727,-0.11328 1.64274,-1.00729 2.54332,-2.84844 3.94531,-5.34766 1.402,-2.49922 3.11877,-5.68304 5.50195,-9.25781 a 1.4111151,1.4111151 0 0 0 -0.39062,-1.95703 z"
       id="path39445-3-2" />
  </g>
</svg>
