<?xml version="1.0" encoding="UTF-8" standalone="no"?>
<!-- Created with Inkscape (http://www.inkscape.org/) -->

<svg
   width="24.75mm"
   height="53.167999mm"
   viewBox="0 0 24.75 53.167999"
   version="1.1"
   id="svg70682"
   inkscape:version="1.2.1 (9c6d41e410, 2022-07-14)"
   sodipodi:docname="z.svg"
   xmlns:inkscape="http://www.inkscape.org/namespaces/inkscape"
   xmlns:sodipodi="http://sodipodi.sourceforge.net/DTD/sodipodi-0.dtd"
   xmlns="http://www.w3.org/2000/svg"
   xmlns:svg="http://www.w3.org/2000/svg">
  <sodipodi:namedview
     id="namedview70684"
     pagecolor="#ffffff"
     bordercolor="#000000"
     borderopacity="0.25"
     inkscape:showpageshadow="2"
     inkscape:pageopacity="0.0"
     inkscape:pagecheckerboard="0"
     inkscape:deskcolor="#d1d1d1"
     inkscape:document-units="mm"
     showgrid="false"
     inkscape:zoom="0.7483165"
     inkscape:cx="95.547806"
     inkscape:cy="456.3577"
     inkscape:window-width="1920"
     inkscape:window-height="1001"
     inkscape:window-x="-9"
     inkscape:window-y="-9"
     inkscape:window-maximized="1"
     inkscape:current-layer="layer1" />
  <defs
     id="defs70679" />
  <g
     inkscape:label="Capa 1"
     inkscape:groupmode="layer"
     id="layer1"
     transform="translate(-0.52916664)">
    <path
       style="color:#000000;fill:#000000;stroke-linecap:round;stroke-linejoin:round"
       d="m 4.0197916,21.591797 a 1.4111151,1.4111151 0 0 0 -1.3378906,1.480469 1.4111151,1.4111151 0 0 0 1.4804687,1.33789 c 3.1395857,-0.160061 6.6926403,-0.109809 9.7558593,0.167969 0.906773,0.08223 1.766938,0.08551 2.679687,0.111328 -2.535912,1.116165 -5.748135,2.53768 -8.5234369,3.970703 -1.4060914,0.726033 -2.695431,1.450352 -3.7480469,2.16211 -1.0526159,0.711757 -1.8894132,1.312675 -2.4101562,2.314453 -0.2603716,0.500889 -0.4091405,1.272477 -0.1035156,1.947265 0.3056248,0.674789 0.8756341,1.041422 1.4296874,1.271485 1.1081068,0.460125 2.5050482,0.585937 4.6250001,0.585937 H 23.65651 A 1.4111151,1.4111151 0 0 0 25.068619,35.529297 1.4111151,1.4111151 0 0 0 23.65651,34.119141 H 7.8674479 c -1.5171432,0 -2.1672091,-0.158389 -2.7421876,-0.28711 0.2574544,-0.242349 0.3088046,-0.352417 0.78125,-0.671875 0.8991429,-0.607982 2.1143867,-1.295889 3.4628903,-1.992187 2.6970074,-1.392596 5.9322004,-2.826727 8.4785154,-3.947266 1.273158,-0.560269 2.371947,-1.041877 3.169922,-1.414062 0.398987,-0.186093 0.71815,-0.341064 0.984375,-0.490235 0.133112,-0.07458 0.245554,-0.135442 0.408203,-0.263672 0.08132,-0.06412 0.179679,-0.131454 0.328125,-0.339843 0.07422,-0.104195 0.168633,-0.251708 0.230469,-0.50586 0.06184,-0.254151 0.05439,-0.650993 -0.109375,-0.978515 -0.307521,-0.615079 -0.744301,-0.78136 -1.050782,-0.898438 -0.30648,-0.117077 -0.582401,-0.169347 -0.878906,-0.214844 -0.59301,-0.09099 -1.264413,-0.127291 -2.011719,-0.154297 -1.49461,-0.05401 -3.277833,-0.06021 -4.746093,-0.193359 -3.226695,-0.292602 -6.8762755,-0.3428 -10.1523434,-0.175781 z"
       id="path39537" />
    <path
       style="color:#000000;fill:#000000;stroke-linecap:round;stroke-linejoin:round;-inkscape-stroke:none"
       d="m 6.6330728,26.746094 a 1.4111151,1.4111151 0 0 0 -1.5429687,1.263672 1.4111151,1.4111151 0 0 0 1.265625,1.544921 c 2.8304475,0.280099 5.7209189,0.982835 7.7851559,1.935547 a 1.4111151,1.4111151 0 0 0 1.873047,-0.689453 1.4111151,1.4111151 0 0 0 -0.691407,-1.873047 c -2.478798,-1.144045 -5.5956447,-1.87548 -8.6894522,-2.18164 z"
       id="path39539" />
  </g>
</svg>
