<?xml version="1.0" encoding="UTF-8" standalone="no"?>
<!-- Created with Inkscape (http://www.inkscape.org/) -->

<svg
   width="15.910714mm"
   height="53.167999mm"
   viewBox="0 0 15.910715 53.167999"
   version="1.1"
   id="svg69450"
   inkscape:version="1.2.1 (9c6d41e410, 2022-07-14)"
   sodipodi:docname="{.svg"
   xmlns:inkscape="http://www.inkscape.org/namespaces/inkscape"
   xmlns:sodipodi="http://sodipodi.sourceforge.net/DTD/sodipodi-0.dtd"
   xmlns="http://www.w3.org/2000/svg"
   xmlns:svg="http://www.w3.org/2000/svg">
  <sodipodi:namedview
     id="namedview69452"
     pagecolor="#ffffff"
     bordercolor="#000000"
     borderopacity="0.25"
     inkscape:showpageshadow="2"
     inkscape:pageopacity="0.0"
     inkscape:pagecheckerboard="0"
     inkscape:deskcolor="#d1d1d1"
     inkscape:document-units="mm"
     showgrid="false"
     inkscape:zoom="0.7483165"
     inkscape:cx="-229.84927"
     inkscape:cy="79.511811"
     inkscape:window-width="1920"
     inkscape:window-height="1001"
     inkscape:window-x="-9"
     inkscape:window-y="-9"
     inkscape:window-maximized="1"
     inkscape:current-layer="layer1" />
  <defs
     id="defs69447" />
  <g
     inkscape:label="Capa 1"
     inkscape:groupmode="layer"
     id="layer1"
     transform="translate(-200.56039,-133.09798)"
     style="display:inline">
    <path
       style="color:#000000;fill:#000000;stroke-linecap:round;stroke-linejoin:round"
       d="m 209.22852,146.85742 c -1.28687,0.14714 -2.38234,0.63184 -3.03907,1.51172 -0.65673,0.87988 -0.74829,1.92066 -0.67187,2.83789 0.0764,0.91723 0.31437,1.80356 0.55273,2.66797 0.47672,1.72882 0.8452,3.38567 0.64453,4.10547 -0.10033,0.3599 -0.20497,0.54268 -0.69336,0.79492 -0.48838,0.25224 -1.42777,0.48633 -2.93554,0.48633 a 1.4111151,1.4111151 0 0 0 -1.41016,1.41211 1.4111151,1.4111151 0 0 0 1.41016,1.41015 c 1.77817,0 3.14187,-0.23854 4.23047,-0.80078 1.08859,-0.56223 1.83588,-1.53587 2.11718,-2.54492 0.56261,-2.0181 -0.18293,-3.94638 -0.64257,-5.61328 -0.22983,-0.83345 -0.4147,-1.59727 -0.46094,-2.15234 -0.0463,-0.55507 0.0413,-0.80916 0.12109,-0.91602 0.0798,-0.10686 0.27722,-0.3005 1.09961,-0.39453 0.82239,-0.094 2.171,-0.023 4.08789,0.34375 a 1.4111151,1.4111151 0 0 0 1.65235,-1.12109 1.4111151,1.4111151 0 0 0 -1.1211,-1.6504 c -2.07875,-0.39769 -3.65454,-0.52408 -4.9414,-0.37695 z"
       id="path22397" />
    <path
       style="color:#000000;fill:#000000;stroke-linecap:round;stroke-linejoin:round;-inkscape-stroke:none"
       d="m 202.93164,159.21094 a 1.4111151,1.4111151 0 0 0 -1.41016,1.41211 1.4111151,1.4111151 0 0 0 1.41016,1.41015 c 1.51054,0 2.44987,0.23226 2.92773,0.47657 0.47787,0.2443 0.55851,0.40398 0.64649,0.73828 0.17596,0.66859 -0.21854,2.29367 -0.73438,3.98242 -0.25791,0.84437 -0.51752,1.70854 -0.61718,2.60937 -0.0997,0.90084 -0.0355,1.94134 0.61523,2.82227 0.65076,0.88093 1.74413,1.34572 3.01953,1.48242 1.27541,0.1367 2.83983,0.007 4.91602,-0.39062 a 1.4111151,1.4111151 0 0 0 1.12109,-1.65039 1.4111151,1.4111151 0 0 0 -1.65039,-1.1211 c -1.91946,0.36722 -3.26899,0.44303 -4.08594,0.35547 -0.81694,-0.0876 -0.99402,-0.27669 -1.05078,-0.35352 -0.0567,-0.0768 -0.13734,-0.29873 -0.0781,-0.83398 0.0592,-0.53525 0.26086,-1.28085 0.50976,-2.0957 0.4978,-1.6297 1.29499,-3.51404 0.76563,-5.52539 -0.26468,-1.00568 -1.00959,-1.97994 -2.0918,-2.53321 -1.08221,-0.55327 -2.43748,-0.78515 -4.21289,-0.78515 z"
       id="path22397-4" />
  </g>
</svg>
