<?xml version="1.0" encoding="UTF-8" standalone="no"?>
<!-- Created with Inkscape (http://www.inkscape.org/) -->

<svg
   width="15.910714mm"
   height="53.167999mm"
   viewBox="0 0 15.910715 53.167999"
   version="1.1"
   id="svg69450"
   inkscape:version="1.2.1 (9c6d41e410, 2022-07-14)"
   sodipodi:docname="}.svg"
   xmlns:inkscape="http://www.inkscape.org/namespaces/inkscape"
   xmlns:sodipodi="http://sodipodi.sourceforge.net/DTD/sodipodi-0.dtd"
   xmlns="http://www.w3.org/2000/svg"
   xmlns:svg="http://www.w3.org/2000/svg">
  <sodipodi:namedview
     id="namedview69452"
     pagecolor="#ffffff"
     bordercolor="#000000"
     borderopacity="0.25"
     inkscape:showpageshadow="2"
     inkscape:pageopacity="0.0"
     inkscape:pagecheckerboard="0"
     inkscape:deskcolor="#d1d1d1"
     inkscape:document-units="mm"
     showgrid="false"
     inkscape:zoom="0.7483165"
     inkscape:cx="-229.84927"
     inkscape:cy="79.511811"
     inkscape:window-width="1920"
     inkscape:window-height="1001"
     inkscape:window-x="-9"
     inkscape:window-y="-9"
     inkscape:window-maximized="1"
     inkscape:current-layer="layer1" />
  <defs
     id="defs69447" />
  <g
     inkscape:label="Capa 1"
     inkscape:groupmode="layer"
     id="layer1"
     transform="translate(-200.56039,-133.09798)"
     style="display:inline">
    <path
       style="color:#000000;fill:#000000;stroke-linecap:round;stroke-linejoin:round"
       d="m 207.69141,146.90234 c -1.28687,-0.14713 -2.86071,-0.0207 -4.93946,0.37696 a 1.4111151,1.4111151 0 0 0 -1.12109,1.65039 1.4111151,1.4111151 0 0 0 1.65039,1.12109 c 1.91689,-0.36672 3.26746,-0.43778 4.08984,-0.34375 0.82239,0.094 1.01986,0.28767 1.09961,0.39453 0.0798,0.10686 0.16734,0.36095 0.1211,0.91602 -0.0463,0.55507 -0.23112,1.31889 -0.46094,2.15234 -0.45965,1.6669 -1.20519,3.59519 -0.64258,5.61328 0.28131,1.00905 1.02664,1.98269 2.11524,2.54492 1.08859,0.56224 2.45229,0.80079 4.23046,0.80079 a 1.4111151,1.4111151 0 0 0 1.41211,-1.41016 1.4111151,1.4111151 0 0 0 -1.41211,-1.41211 c -1.50777,0 -2.44716,-0.23213 -2.93554,-0.48437 -0.48839,-0.25225 -0.59108,-0.43698 -0.69141,-0.79688 -0.20067,-0.7198 0.16781,-2.37665 0.64453,-4.10547 0.23836,-0.86441 0.47632,-1.75073 0.55274,-2.66797 0.0764,-0.91723 -0.0152,-1.95801 -0.67188,-2.83789 -0.65673,-0.87988 -1.75415,-1.36458 -3.04101,-1.51172 z"
       id="path22397-9" />
    <path
       style="color:#000000;fill:#000000;stroke-linecap:round;stroke-linejoin:round;-inkscape-stroke:none"
       d="m 213.98828,159.25781 c -1.7754,0 -3.12872,0.22993 -4.21094,0.78321 -1.08221,0.55327 -1.82711,1.52752 -2.09179,2.5332 -0.52936,2.01135 0.26587,3.89569 0.76367,5.52539 0.2489,0.81485 0.4525,1.56045 0.51172,2.0957 0.0592,0.53525 -0.0233,0.75716 -0.0801,0.83399 -0.0568,0.0768 -0.23188,0.26595 -1.04883,0.35351 -0.81694,0.0876 -2.16648,0.0118 -4.08594,-0.35547 a 1.4111151,1.4111151 0 0 0 -1.65234,1.1211 1.4111151,1.4111151 0 0 0 1.12109,1.65039 c 2.07619,0.3972 3.64257,0.52732 4.91797,0.39062 1.27541,-0.1367 2.36878,-0.60148 3.01953,-1.48242 0.65076,-0.88093 0.71295,-1.92143 0.61328,-2.82226 -0.0997,-0.90084 -0.35927,-1.76501 -0.61718,-2.60938 -0.51584,-1.68875 -0.91034,-3.31383 -0.73438,-3.98242 0.088,-0.3343 0.17058,-0.49398 0.64844,-0.73828 0.47786,-0.24431 1.41524,-0.47461 2.92578,-0.47461 a 1.4111151,1.4111151 0 0 0 1.41211,-1.41211 1.4111151,1.4111151 0 0 0 -1.41211,-1.41016 z"
       id="path22397-4-5" />
  </g>
</svg>
