<?xml version="1.0" encoding="UTF-8" standalone="no"?>
<!-- Created with Inkscape (http://www.inkscape.org/) -->

<svg
   width="14.496428mm"
   height="53.167999mm"
   viewBox="0 0 14.496427 53.167999"
   version="1.1"
   id="svg70682"
   inkscape:version="1.2.1 (9c6d41e410, 2022-07-14)"
   sodipodi:docname="².svg"
   xmlns:inkscape="http://www.inkscape.org/namespaces/inkscape"
   xmlns:sodipodi="http://sodipodi.sourceforge.net/DTD/sodipodi-0.dtd"
   xmlns="http://www.w3.org/2000/svg"
   xmlns:svg="http://www.w3.org/2000/svg">
  <sodipodi:namedview
     id="namedview70684"
     pagecolor="#ffffff"
     bordercolor="#000000"
     borderopacity="0.25"
     inkscape:showpageshadow="2"
     inkscape:pageopacity="0.0"
     inkscape:pagecheckerboard="0"
     inkscape:deskcolor="#d1d1d1"
     inkscape:document-units="mm"
     showgrid="false"
     inkscape:zoom="0.7483165"
     inkscape:cx="237.86727"
     inkscape:cy="-263.92576"
     inkscape:window-width="1920"
     inkscape:window-height="1001"
     inkscape:window-x="-9"
     inkscape:window-y="-9"
     inkscape:window-maximized="1"
     inkscape:current-layer="layer1" />
  <defs
     id="defs70679" />
  <g
     inkscape:label="Capa 1"
     inkscape:groupmode="layer"
     id="layer1"
     transform="translate(41.756439,-190.24429)">
    <path
       style="color:#000000;fill:#000000;stroke-linecap:round;stroke-linejoin:round;-inkscape-stroke:none"
       d="m -35.904297,198.60156 c -0.858458,0.0194 -1.702418,0.17961 -2.470703,0.50391 -0.768285,0.3243 -1.60342,0.92939 -1.837891,1.98047 -0.23447,1.05108 0.269252,2.05709 1.035157,2.87109 a 1.41111,1.41111 0 0 0 1.99414,0.0606 1.41111,1.41111 0 0 0 0.06055,-1.99414 c -0.425947,-0.4527 -0.293858,-0.51285 -0.335937,-0.32422 -0.04208,0.18863 -0.121373,0.13376 0.18164,0.006 0.606026,-0.25581 2.162186,-0.33689 3.134766,-0.0508 0.48629,0.14305 0.801651,0.3683 0.867187,0.44726 0.06554,0.079 0.07512,-0.0906 -0.01563,0.15235 -0.181488,0.48589 -1.755967,2.22507 -5.904296,4.30078 A 1.4112512,1.4112512 0 0 0 -38.5,209.22656 l 8.416016,-0.3789 a 1.41111,1.41111 0 0 0 1.345703,-1.47461 1.41111,1.41111 0 0 0 -1.472656,-1.34571 l -2.820313,0.12696 c 1.223582,-0.95443 2.001183,-1.8871 2.384766,-2.91407 0.375682,-1.00581 0.15344,-2.20584 -0.457032,-2.9414 -0.610471,-0.73556 -1.41537,-1.10834 -2.242187,-1.35156 -0.826817,-0.24323 -1.700135,-0.36509 -2.558594,-0.34571 z"
       id="path190723-5" />
  </g>
</svg>
