<?xml version="1.0" encoding="UTF-8" standalone="no"?>
<!-- Created with Inkscape (http://www.inkscape.org/) -->

<svg
   width="13.435714mm"
   height="53.167999mm"
   viewBox="0 0 13.435714 53.167999"
   version="1.1"
   id="svg70682"
   inkscape:version="1.2.1 (9c6d41e410, 2022-07-14)"
   sodipodi:docname="³.svg"
   xmlns:inkscape="http://www.inkscape.org/namespaces/inkscape"
   xmlns:sodipodi="http://sodipodi.sourceforge.net/DTD/sodipodi-0.dtd"
   xmlns="http://www.w3.org/2000/svg"
   xmlns:svg="http://www.w3.org/2000/svg">
  <sodipodi:namedview
     id="namedview70684"
     pagecolor="#ffffff"
     bordercolor="#000000"
     borderopacity="0.25"
     inkscape:showpageshadow="2"
     inkscape:pageopacity="0.0"
     inkscape:pagecheckerboard="0"
     inkscape:deskcolor="#d1d1d1"
     inkscape:document-units="mm"
     showgrid="false"
     inkscape:zoom="0.7483165"
     inkscape:cx="-5.3453318"
     inkscape:cy="50.112486"
     inkscape:window-width="1920"
     inkscape:window-height="1001"
     inkscape:window-x="-9"
     inkscape:window-y="-9"
     inkscape:window-maximized="1"
     inkscape:current-layer="layer1" />
  <defs
     id="defs70679" />
  <g
     inkscape:label="Capa 1"
     inkscape:groupmode="layer"
     id="layer1"
     transform="translate(-22.627937,-107.08885)">
    <path
       style="color:#000000;fill:#000000;stroke-linecap:round;stroke-linejoin:round"
       d="m 31.347656,118.35742 c -0.977591,-0.11691 -2.172951,-0.0815 -3.691406,0.0488 a 1.41111,1.41111 0 0 0 -1.285156,1.52734 1.41111,1.41111 0 0 0 1.52539,1.28516 c 2.788574,-0.23928 4.006998,0.16569 4.140625,0.26563 0.06681,0.05 0.0043,-0.0517 0.01563,0.0312 0.01135,0.083 -0.0049,0.347 -0.08203,0.70312 0.01768,-0.0816 -0.158075,0.24114 -0.847656,0.50195 -0.689581,0.26082 -1.695219,0.42268 -2.603516,0.40625 -0.908297,-0.0164 -1.725407,-0.25193 -1.990234,-0.42578 -0.132414,-0.0869 -0.108442,-0.10368 -0.09375,-0.0586 0.01469,0.0451 -0.02747,0.0614 0.06055,-0.14258 a 1.41111,1.41111 0 0 0 -0.736328,-1.85547 1.41111,1.41111 0 0 0 -1.855469,0.73633 c -0.28944,0.6707 -0.377133,1.44488 -0.152344,2.13477 0.224789,0.68988 0.712533,1.2062 1.228516,1.54492 1.031965,0.67744 2.242105,0.86417 3.488281,0.88672 1.246176,0.0225 2.523793,-0.16105 3.652344,-0.58789 1.128551,-0.42685 2.303921,-1.13275 2.609375,-2.54297 0.102548,-0.47344 0.209111,-1.02577 0.11914,-1.6836 -0.08997,-0.65782 -0.477518,-1.42688 -1.121093,-1.9082 -0.643576,-0.48132 -1.403268,-0.75028 -2.38086,-0.86719 z"
       id="path194495-42" />
    <path
       style="color:#000000;fill:#000000;stroke-linecap:round;stroke-linejoin:round;-inkscape-stroke:none"
       d="m 32.009766,115.20508 c -2.054137,-0.19279 -5.186885,0.0107 -6.767579,0.0273 a 1.41111,1.41111 0 0 0 -1.396484,1.42578 1.41111,1.41111 0 0 0 1.425781,1.39649 c 1.191542,-0.0125 2.854407,-0.0226 4.402344,-0.0273 a 1.41111,1.41111 0 0 0 -0.53125,1.17969 1.41111,1.41111 0 0 0 1.820313,0.81836 c 0.959081,-0.36439 1.668666,-0.67588 2.21875,-0.98242 0.550083,-0.30654 1.045276,-0.44897 1.376953,-1.36719 0.165838,-0.45911 0.04057,-1.20182 -0.259766,-1.57812 -0.300339,-0.37631 -0.596353,-0.49996 -0.84375,-0.59766 -0.494794,-0.19541 -0.931778,-0.24673 -1.445312,-0.29492 z"
       id="path194501-0" />
  </g>
</svg>
