<?xml version="1.0" encoding="UTF-8" standalone="no"?>
<!-- Created with Inkscape (http://www.inkscape.org/) -->

<svg
   width="23.335714mm"
   height="53.167999mm"
   viewBox="0 0 23.335714 53.167999"
   version="1.1"
   id="svg70682"
   inkscape:version="1.2.1 (9c6d41e410, 2022-07-14)"
   sodipodi:docname="×.svg"
   xmlns:inkscape="http://www.inkscape.org/namespaces/inkscape"
   xmlns:sodipodi="http://sodipodi.sourceforge.net/DTD/sodipodi-0.dtd"
   xmlns="http://www.w3.org/2000/svg"
   xmlns:svg="http://www.w3.org/2000/svg">
  <sodipodi:namedview
     id="namedview70684"
     pagecolor="#ffffff"
     bordercolor="#000000"
     borderopacity="0.25"
     inkscape:showpageshadow="2"
     inkscape:pageopacity="0.0"
     inkscape:pagecheckerboard="0"
     inkscape:deskcolor="#d1d1d1"
     inkscape:document-units="mm"
     showgrid="false"
     inkscape:zoom="3.1813246"
     inkscape:cx="44.792663"
     inkscape:cy="100.7442"
     inkscape:window-width="1920"
     inkscape:window-height="1001"
     inkscape:window-x="-9"
     inkscape:window-y="-9"
     inkscape:window-maximized="1"
     inkscape:current-layer="path48598-5" />
  <defs
     id="defs70679" />
  <g
     inkscape:label="Capa 1"
     inkscape:groupmode="layer"
     id="layer1"
     transform="translate(-0.52916664)">
    <g
       id="path48598-5"
       transform="rotate(45,24.805599,-2.5869363)"
       style="fill:#000000">
      <path
         style="color:#000000;fill:#000000;stroke-width:2.82222;stroke-linecap:round;stroke-linejoin:round"
         d="M 27.930946,27.583312 H 46.670243"
         id="path152168" />
      <path
         style="color:#000000;fill:#000000;stroke-linecap:round;stroke-linejoin:round"
         d="m 27.931641,26.171875 a 1.41111,1.41111 0 0 0 -1.41211,1.412109 1.41111,1.41111 0 0 0 1.41211,1.410157 h 18.738281 a 1.41111,1.41111 0 0 0 1.412109,-1.410157 1.41111,1.41111 0 0 0 -1.412109,-1.412109 z"
         id="path152170" />
    </g>
    <g
       id="path50304"
       transform="rotate(45,24.352356,-1.693496)"
       style="fill:#000000">
      <path
         style="color:#000000;fill:#000000;stroke-width:2.82222;stroke-linecap:round;stroke-linejoin:round;-inkscape-stroke:none"
         d="M 36.595828,36.642872 V 18.514262"
         id="path152174" />
      <path
         style="color:#000000;fill:#000000;stroke-linecap:round;stroke-linejoin:round;-inkscape-stroke:none"
         d="m 36.595703,17.103516 a 1.41111,1.41111 0 0 0 -1.410156,1.410156 v 18.128906 a 1.41111,1.41111 0 0 0 1.410156,1.412109 1.41111,1.41111 0 0 0 1.412109,-1.412109 V 18.513672 a 1.41111,1.41111 0 0 0 -1.412109,-1.410156 z"
         id="path152176" />
    </g>
  </g>
</svg>
