<!-- Generated by IcoMoon.io -->
<svg version="1.1" xmlns="http://www.w3.org/2000/svg" width="434" height="1024" viewBox="0 0 434 1024">
<title></title>
<g id="icomoon-ignore">
</g>
<path fill="#000" d="M293.206 438.227c-3.281-1.515-7.119-2.399-11.165-2.399-10.98 0-20.44 6.512-24.727 15.884l-0.070 0.17c-43.199 96.081-37.94 168.916-0.79 211.067s100.38 44.409 146.366 12.978c7.191-4.962 11.844-13.157 11.844-22.439 0-5.726-1.771-11.038-4.794-15.419l0.059 0.091c-4.962-7.191-13.157-11.844-22.439-11.844-5.726 0-11.038 1.771-15.419 4.794l0.091-0.059c-26.828 18.337-57.166 16.133-74.932-4.025s-28.818-67.444 9.592-152.874c1.51-3.276 2.391-7.109 2.391-11.147 0-10.963-6.491-20.41-15.839-24.707l-0.169-0.070z"></path>
<path fill="#000" d="M364.264 406.441c-110.323 18.698-172.736 12.955-316.619 11.548-0.084-0.001-0.184-0.001-0.284-0.001-14.911 0-27.018 12.009-27.176 26.882v0.015c-0.001 0.084-0.001 0.184-0.001 0.284 0 14.911 12.009 27.018 26.882 27.176h0.015c142.569 1.394 210.766 7.279 326.287-12.301 12.92-2.261 22.614-13.394 22.614-26.792 0-1.605-0.139-3.177-0.406-4.705l0.024 0.163c-2.245-12.937-13.387-22.65-26.798-22.65-1.603 0-3.173 0.139-4.699 0.405l0.163-0.023z"></path>
<path fill="#000" d="M157.071 447.218c-3.025-1.263-6.539-1.997-10.225-1.997-11.316 0-21.016 6.916-25.106 16.751l-0.066 0.18-77.377 190.49c-1.271 3.034-2.010 6.56-2.010 10.258 0 11.321 6.922 21.025 16.764 25.111l0.18 0.066c3.021 1.26 6.531 1.992 10.212 1.992 11.328 0 21.037-6.931 25.119-16.783l0.066-0.18 77.415-190.49c1.26-3.021 1.992-6.531 1.992-10.212 0-11.328-6.931-21.037-16.783-25.119l-0.18-0.066z"></path>
</svg>
