<?xml version="1.0" encoding="UTF-8" standalone="no"?>
<!-- Created with Inkscape (http://www.inkscape.org/) -->

<svg
   width="19.799999mm"
   height="53.167999mm"
   viewBox="0 0 19.800001 53.167999"
   version="1.1"
   id="svg70682"
   inkscape:version="1.2.1 (9c6d41e410, 2022-07-14)"
   sodipodi:docname="᪲.svg"
   xmlns:inkscape="http://www.inkscape.org/namespaces/inkscape"
   xmlns:sodipodi="http://sodipodi.sourceforge.net/DTD/sodipodi-0.dtd"
   xmlns="http://www.w3.org/2000/svg"
   xmlns:svg="http://www.w3.org/2000/svg">
  <sodipodi:namedview
     id="namedview70684"
     pagecolor="#ffffff"
     bordercolor="#000000"
     borderopacity="0.25"
     inkscape:showpageshadow="2"
     inkscape:pageopacity="0.0"
     inkscape:pagecheckerboard="0"
     inkscape:deskcolor="#d1d1d1"
     inkscape:document-units="mm"
     showgrid="false"
     inkscape:zoom="1.5500842"
     inkscape:cx="45.803964"
     inkscape:cy="151.92723"
     inkscape:window-width="1920"
     inkscape:window-height="1001"
     inkscape:window-x="-9"
     inkscape:window-y="-9"
     inkscape:window-maximized="1"
     inkscape:current-layer="layer1" />
  <defs
     id="defs70679" />
  <g
     inkscape:label="Capa 1"
     inkscape:groupmode="layer"
     id="layer1"
     transform="translate(-316.84152,-67.699615)">
    <path
       style="color:#000000;fill:#000000;stroke-linecap:round;stroke-linejoin:round;-inkscape-stroke:none"
       d="m 332.66406,74.363281 c -0.55701,-0.111985 -1.15662,-0.09109 -1.7207,0.0918 -1.12816,0.365765 -2.15671,1.185856 -3.26953,2.476563 a 1.41111,1.41111 0 0 0 0.0762,1.039062 1.41111,1.41111 0 0 0 -0.92383,0.398438 c -0.71506,-0.920077 -1.53448,-1.868023 -2.55273,-2.601563 -0.85435,-0.615467 -1.94821,-1.121182 -3.17383,-0.863281 -1.22562,0.257901 -2.18854,1.246356 -2.86133,2.634765 -1.63901,3.382353 -0.45298,7.07885 2.34766,8.22461 1.40032,0.57288 3.14145,0.36097 4.62695,-0.681641 0.69736,-0.489447 1.34362,-1.175877 1.95313,-2.007812 0.72346,0.783788 1.46087,1.721593 2.16406,2.144531 1.13255,0.681186 2.38704,0.903991 3.45703,0.527344 1.06999,-0.376647 1.78577,-1.224694 2.23828,-2.126953 0.45251,-0.90226 0.68607,-1.910791 0.77148,-2.935547 0.17083,-2.049512 -0.0887,-4.229611 -1.66796,-5.617188 -0.39481,-0.346894 -0.90783,-0.591139 -1.46485,-0.703125 z m -0.85156,2.775391 c 0.35728,-0.115834 0.30305,-0.08475 0.45508,0.04883 0.30406,0.267163 0.83882,1.79769 0.71679,3.261719 -0.061,0.732014 -0.24422,1.429354 -0.48242,1.904297 -0.2382,0.474942 -0.48522,0.672327 -0.65039,0.730468 -0.16517,0.05814 -0.41917,0.106082 -1.0664,-0.283203 -0.53979,-0.324662 -1.36438,-1.203658 -2.22852,-2.265625 0.15993,-0.344097 0.3495,-0.575629 0.5,-0.955078 a 1.41111,1.41111 0 0 0 0.0703,-0.755859 1.41111,1.41111 0 0 0 0.6836,-0.05078 c 0.91624,-1.062705 1.64467,-1.518931 2.00195,-1.634765 z m -10.13281,0.527344 c 0.11894,-0.02503 0.42837,0.01963 0.94336,0.390625 0.8108,0.584095 1.72379,1.841942 2.53711,2.917968 -0.54804,0.833008 -1.09,1.461136 -1.56836,1.796875 -0.85459,0.599796 -1.43394,0.586073 -1.93555,0.38086 -1.00323,-0.410427 -1.95034,-2.171751 -0.87891,-4.382813 0.46106,-0.951468 0.7834,-1.078486 0.90235,-1.103515 z"
       id="path33798-8" />
  </g>
</svg>
