<?xml version="1.0" encoding="UTF-8" standalone="no"?>
<!-- Created with Inkscape (http://www.inkscape.org/) -->

<svg
   width="13.082141mm"
   height="53.167999mm"
   viewBox="0 0 13.082141 53.167999"
   version="1.1"
   id="svg70682"
   inkscape:version="1.2.1 (9c6d41e410, 2022-07-14)"
   sodipodi:docname="â°.svg"
   xmlns:inkscape="http://www.inkscape.org/namespaces/inkscape"
   xmlns:sodipodi="http://sodipodi.sourceforge.net/DTD/sodipodi-0.dtd"
   xmlns="http://www.w3.org/2000/svg"
   xmlns:svg="http://www.w3.org/2000/svg">
  <sodipodi:namedview
     id="namedview70684"
     pagecolor="#ffffff"
     bordercolor="#000000"
     borderopacity="0.25"
     inkscape:showpageshadow="2"
     inkscape:pageopacity="0.0"
     inkscape:pagecheckerboard="0"
     inkscape:deskcolor="#d1d1d1"
     inkscape:document-units="mm"
     showgrid="false"
     inkscape:zoom="0.7483165"
     inkscape:cx="272.61192"
     inkscape:cy="166.37345"
     inkscape:window-width="1920"
     inkscape:window-height="1001"
     inkscape:window-x="-9"
     inkscape:window-y="-9"
     inkscape:window-maximized="1"
     inkscape:current-layer="layer1" />
  <defs
     id="defs70679" />
  <g
     inkscape:label="Capa 1"
     inkscape:groupmode="layer"
     id="layer1"
     transform="translate(50.983681,-76.460434)">
    <path
       style="color:#000000;fill:#000000;stroke-linecap:round;stroke-linejoin:round;-inkscape-stroke:none"
       d="m -43.601562,85.146484 c -0.965152,-0.234719 -1.972893,-0.194944 -2.867188,0.04102 a 1.4112512,1.4112512 0 0 0 -0.01563,0.0039 c -1.266682,0.350281 -2.78926,1.197685 -3.462891,2.900391 a 1.4112512,1.4112512 0 0 0 -0.02148,0.06055 c -0.529776,1.537135 -0.571378,3.435987 0.587891,4.943359 1.219108,1.60488 3.074942,2.129656 4.611328,2.185547 a 1.4112512,1.4112512 0 0 0 0.0293,0 c 1.53099,0.0224 3.336343,-0.377021 4.68164,-1.763672 1.145432,-1.150075 1.441327,-2.783201 1.048828,-4.285156 -0.05678,-0.239913 -0.125235,-0.470628 -0.203125,-0.689453 a 1.41111,1.41111 0 0 0 -1.46289,-0.695313 1.41111,1.41111 0 0 0 -0.310547,-1.099609 c -0.726846,-0.858137 -1.650083,-1.366843 -2.615234,-1.601563 z m -0.71875,2.714844 c 0.448921,0.100915 0.856384,0.329236 1.179687,0.710938 a 1.41111,1.41111 0 0 0 1.560547,0.300781 1.41111,1.41111 0 0 0 -0.291016,0.615234 c 0.04993,0.140279 0.09013,0.279029 0.121094,0.414063 a 1.4112512,1.4112512 0 0 0 0.0098,0.04297 c 0.148322,0.566687 -0.06698,1.337165 -0.316407,1.585938 a 1.4112512,1.4112512 0 0 0 -0.01953,0.01953 c -0.650644,0.674831 -1.579721,0.919213 -2.609375,0.90625 -1.005293,-0.03981 -1.890819,-0.32843 -2.451172,-1.068359 a 1.4112512,1.4112512 0 0 0 -0.0078,-0.0098 c -0.330174,-0.428011 -0.418826,-1.473891 -0.154297,-2.277344 0.262658,-0.62178 0.839697,-0.985127 1.558594,-1.185546 0.486552,-0.127262 0.973452,-0.155052 1.419922,-0.05469 z"
       id="path19354-8-7-6" />
  </g>
</svg>
