<?xml version="1.0" encoding="UTF-8" standalone="no"?>
<!-- Created with Inkscape (http://www.inkscape.org/) -->

<svg
   width="13.435714mm"
   height="53.167999mm"
   viewBox="0 0 13.435714 53.167999"
   version="1.1"
   id="svg70682"
   inkscape:version="1.2.1 (9c6d41e410, 2022-07-14)"
   sodipodi:docname="â´.svg"
   xmlns:inkscape="http://www.inkscape.org/namespaces/inkscape"
   xmlns:sodipodi="http://sodipodi.sourceforge.net/DTD/sodipodi-0.dtd"
   xmlns="http://www.w3.org/2000/svg"
   xmlns:svg="http://www.w3.org/2000/svg">
  <sodipodi:namedview
     id="namedview70684"
     pagecolor="#ffffff"
     bordercolor="#000000"
     borderopacity="0.25"
     inkscape:showpageshadow="2"
     inkscape:pageopacity="0.0"
     inkscape:pagecheckerboard="0"
     inkscape:deskcolor="#d1d1d1"
     inkscape:document-units="mm"
     showgrid="false"
     inkscape:zoom="0.7483165"
     inkscape:cx="-5.3453318"
     inkscape:cy="50.112486"
     inkscape:window-width="1920"
     inkscape:window-height="1001"
     inkscape:window-x="-9"
     inkscape:window-y="-9"
     inkscape:window-maximized="1"
     inkscape:current-layer="layer1" />
  <defs
     id="defs70679" />
  <g
     inkscape:label="Capa 1"
     inkscape:groupmode="layer"
     id="layer1"
     transform="translate(-22.627937,-107.08885)">
    <path
       style="color:#000000;fill:#000000;stroke-linecap:round;stroke-linejoin:round"
       d="m 32.351562,115.69531 a 1.41111,1.41111 0 0 0 -1.546875,1.25977 l -0.822265,7.95898 a 1.41111,1.41111 0 0 0 1.259765,1.54883 1.41111,1.41111 0 0 0 1.548829,-1.25781 l 0.820312,-7.96094 a 1.41111,1.41111 0 0 0 -1.259766,-1.54883 z"
       id="path195229-7" />
    <path
       style="color:#000000;fill:#000000;stroke-linecap:round;stroke-linejoin:round;-inkscape-stroke:none"
       d="m 30.566406,115.40234 a 1.41111,1.41111 0 0 0 -0.966797,0.48047 c -2.075229,2.38481 -3.546723,3.46195 -4.414062,4.06836 -0.216835,0.15161 -0.397016,0.27298 -0.572266,0.40235 -0.175249,0.12936 -0.358246,0.19689 -0.628906,0.63867 -0.13533,0.22088 -0.287302,0.63796 -0.207031,1.08008 0.08027,0.44211 0.34053,0.74327 0.521484,0.89843 0.361909,0.31033 0.551884,0.33673 0.761719,0.41602 0.92855,0.35089 1.824295,0.3371 3.177734,0.37695 1.35344,0.0399 3.083314,0.0541 5.21875,0.13672 a 1.41111,1.41111 0 0 0 1.464844,-1.35547 1.41111,1.41111 0 0 0 -1.355469,-1.46484 c -2.114474,-0.0818 -3.794131,-0.097 -5.082031,-0.13281 0.901517,-0.75706 1.959122,-1.73423 3.244141,-3.21094 a 1.41111,1.41111 0 0 0 -0.138672,-1.99219 1.41111,1.41111 0 0 0 -1.023438,-0.3418 z"
       id="path195233-2" />
  </g>
</svg>
