<?xml version="1.0" encoding="UTF-8" standalone="no"?>
<!-- Created with Inkscape (http://www.inkscape.org/) -->

<svg
   width="13.435714mm"
   height="53.167999mm"
   viewBox="0 0 13.435714 53.167999"
   version="1.1"
   id="svg70682"
   inkscape:version="1.2.1 (9c6d41e410, 2022-07-14)"
   sodipodi:docname="âµ.svg"
   xmlns:inkscape="http://www.inkscape.org/namespaces/inkscape"
   xmlns:sodipodi="http://sodipodi.sourceforge.net/DTD/sodipodi-0.dtd"
   xmlns="http://www.w3.org/2000/svg"
   xmlns:svg="http://www.w3.org/2000/svg">
  <sodipodi:namedview
     id="namedview70684"
     pagecolor="#ffffff"
     bordercolor="#000000"
     borderopacity="0.25"
     inkscape:showpageshadow="2"
     inkscape:pageopacity="0.0"
     inkscape:pagecheckerboard="0"
     inkscape:deskcolor="#d1d1d1"
     inkscape:document-units="mm"
     showgrid="false"
     inkscape:zoom="0.7483165"
     inkscape:cx="-5.3453318"
     inkscape:cy="50.112486"
     inkscape:window-width="1920"
     inkscape:window-height="1001"
     inkscape:window-x="-9"
     inkscape:window-y="-9"
     inkscape:window-maximized="1"
     inkscape:current-layer="layer1" />
  <defs
     id="defs70679" />
  <g
     inkscape:label="Capa 1"
     inkscape:groupmode="layer"
     id="layer1"
     transform="translate(-22.627937,-107.08885)">
    <path
       style="color:#000000;fill:#000000;stroke-linecap:round;stroke-linejoin:round"
       d="m 29.376953,119.03906 c -1.192279,0.0384 -2.548184,0.2118 -4.111328,0.48047 a 1.41111,1.41111 0 0 0 -1.152344,1.63086 1.41111,1.41111 0 0 0 1.63086,1.15234 c 2.953365,-0.50761 5.012188,-0.51 5.943359,-0.22656 0.465586,0.14172 0.607359,0.28326 0.691406,0.41602 0.04321,0.0683 0.03298,0.31491 0.05664,0.46484 -0.02846,0.0104 -0.02109,0.0112 -0.05273,0.0215 -0.466053,0.15188 -1.249895,0.29786 -2.113281,0.37109 -1.726772,0.14647 -3.865791,-0.0291 -4.818359,-0.39063 a 1.41111,1.41111 0 0 0 -1.820313,0.82032 1.41111,1.41111 0 0 0 0.81836,1.81836 c 1.761869,0.66871 4.026502,0.73681 6.058593,0.56445 1.016046,-0.0862 1.95144,-0.23975 2.75,-0.5 0.399281,-0.13012 0.766916,-0.27874 1.132813,-0.53516 0.365897,-0.25642 0.823862,-0.70248 0.902344,-1.42773 0.103054,-0.95235 -0.02089,-1.91375 -0.529297,-2.7168 -0.508403,-0.80305 -1.342676,-1.33005 -2.253906,-1.60742 -0.911231,-0.27737 -1.940534,-0.37434 -3.132813,-0.33594 z"
       id="path194495-4-3" />
    <path
       style="color:#000000;fill:#000000;stroke-linecap:round;stroke-linejoin:round"
       d="m 33.59375,115.5332 c -2.999094,0.29729 -5.101602,0.34349 -8.228516,0.29102 a 1.41111,1.41111 0 0 0 -1.435547,1.38672 1.41111,1.41111 0 0 0 1.386719,1.43554 c 3.17742,0.0533 5.454721,0.003 8.556641,-0.30468 a 1.41111,1.41111 0 0 0 1.265625,-1.54297 1.41111,1.41111 0 0 0 -1.544922,-1.26563 z"
       id="path196727-2" />
    <path
       style="color:#000000;fill:#000000;stroke-linecap:round;stroke-linejoin:round;-inkscape-stroke:none"
       d="m 25.271484,115.77539 a 1.41111,1.41111 0 0 0 -1.46289,1.35938 l -0.136719,3.71484 a 1.41111,1.41111 0 0 0 1.357422,1.46094 1.41111,1.41111 0 0 0 1.46289,-1.35742 l 0.136719,-3.71485 a 1.41111,1.41111 0 0 0 -1.357422,-1.46289 z"
       id="path201261" />
  </g>
</svg>
