<?xml version="1.0" encoding="UTF-8" standalone="no"?>
<!-- Created with Inkscape (http://www.inkscape.org/) -->

<svg
   width="13.435714mm"
   height="53.167999mm"
   viewBox="0 0 13.435714 53.167999"
   version="1.1"
   id="svg70682"
   inkscape:version="1.2.1 (9c6d41e410, 2022-07-14)"
   sodipodi:docname="â¶.svg"
   xmlns:inkscape="http://www.inkscape.org/namespaces/inkscape"
   xmlns:sodipodi="http://sodipodi.sourceforge.net/DTD/sodipodi-0.dtd"
   xmlns="http://www.w3.org/2000/svg"
   xmlns:svg="http://www.w3.org/2000/svg">
  <sodipodi:namedview
     id="namedview70684"
     pagecolor="#ffffff"
     bordercolor="#000000"
     borderopacity="0.25"
     inkscape:showpageshadow="2"
     inkscape:pageopacity="0.0"
     inkscape:pagecheckerboard="0"
     inkscape:deskcolor="#d1d1d1"
     inkscape:document-units="mm"
     showgrid="false"
     inkscape:zoom="0.7483165"
     inkscape:cx="-16.035995"
     inkscape:cy="51.448819"
     inkscape:window-width="1920"
     inkscape:window-height="1001"
     inkscape:window-x="-9"
     inkscape:window-y="-9"
     inkscape:window-maximized="1"
     inkscape:current-layer="layer1" />
  <defs
     id="defs70679" />
  <g
     inkscape:label="Capa 1"
     inkscape:groupmode="layer"
     id="layer1"
     transform="translate(-22.627937,-107.08885)">
    <path
       style="color:#000000;fill:#000000;stroke-linecap:round;stroke-linejoin:round;-inkscape-stroke:none"
       d="m 31.53125,115.21875 c -4.586963,-0.17267 -7.568884,3.15254 -7.947266,6.33984 -0.18919,1.59366 0.313662,3.33677 1.748047,4.3086 1.434385,0.97182 3.449772,0.99056 5.800781,0.0977 1.930538,-0.73321 3.235692,-1.73369 3.914063,-2.9707 0.678371,-1.23701 0.534017,-2.8652 -0.455078,-3.80078 -0.989095,-0.93558 -2.468155,-1.13588 -3.998047,-0.73438 -1.203057,0.31573 -2.502499,1.1354 -3.835938,2.26758 0.653826,-1.41162 2.171191,-2.78141 4.666016,-2.6875 a 1.41111,1.41111 0 0 0 1.464844,-1.35742 1.41111,1.41111 0 0 0 -1.357422,-1.46289 z m -0.220703,5.9707 c 0.881666,-0.23138 1.280678,-0.005 1.341797,0.0527 0.06112,0.0578 0.140575,-0.008 -0.08008,0.39453 -0.220653,0.40236 -0.935787,1.11762 -2.441407,1.68945 -1.34388,0.5104 -2.097665,0.48172 -2.630859,0.34961 a 1.41111,1.41111 0 0 0 0.1875,-0.0801 c 1.459726,-1.48468 2.741381,-2.17486 3.623047,-2.40625 z"
       id="path196783-3" />
  </g>
</svg>
