<?xml version="1.0" encoding="UTF-8" standalone="no"?>
<!-- Created with Inkscape (http://www.inkscape.org/) -->

<svg
   width="13.435714mm"
   height="53.167999mm"
   viewBox="0 0 13.435714 53.167999"
   version="1.1"
   id="svg70682"
   inkscape:version="1.2.1 (9c6d41e410, 2022-07-14)"
   sodipodi:docname="â·.svg"
   xmlns:inkscape="http://www.inkscape.org/namespaces/inkscape"
   xmlns:sodipodi="http://sodipodi.sourceforge.net/DTD/sodipodi-0.dtd"
   xmlns="http://www.w3.org/2000/svg"
   xmlns:svg="http://www.w3.org/2000/svg">
  <sodipodi:namedview
     id="namedview70684"
     pagecolor="#ffffff"
     bordercolor="#000000"
     borderopacity="0.25"
     inkscape:showpageshadow="2"
     inkscape:pageopacity="0.0"
     inkscape:pagecheckerboard="0"
     inkscape:deskcolor="#d1d1d1"
     inkscape:document-units="mm"
     showgrid="false"
     inkscape:zoom="0.7483165"
     inkscape:cx="-16.035995"
     inkscape:cy="51.448819"
     inkscape:window-width="1920"
     inkscape:window-height="1001"
     inkscape:window-x="-9"
     inkscape:window-y="-9"
     inkscape:window-maximized="1"
     inkscape:current-layer="layer1" />
  <defs
     id="defs70679" />
  <g
     inkscape:label="Capa 1"
     inkscape:groupmode="layer"
     id="layer1"
     transform="translate(-22.627937,-107.08885)">
    <path
       style="color:#000000;fill:#000000;stroke-linecap:round;stroke-linejoin:round;-inkscape-stroke:none"
       d="m 25.257812,115.61914 a 1.41111,1.41111 0 0 0 -1.429687,1.39063 1.41111,1.41111 0 0 0 1.390625,1.43164 c 2.201636,0.0303 2.361511,0.021 3.667969,0.0234 -0.140988,0.14274 -0.312734,0.20394 -0.44336,0.36524 -1.205254,1.48831 -1.511164,3.95026 0.01953,6.49805 a 1.41111,1.41111 0 0 0 1.935546,0.48242 1.41111,1.41111 0 0 0 0.484375,-1.93555 c -1.130841,-1.88225 -0.828314,-2.54862 -0.246093,-3.26758 0.582221,-0.71895 1.842053,-1.33817 2.791015,-1.68554 0.474481,-0.17369 0.709518,-0.19779 1.214844,-0.45313 0.06317,-0.0319 0.138568,-0.0684 0.253906,-0.1543 0.115339,-0.0859 0.316244,-0.1963 0.490235,-0.63672 0.173991,-0.44041 -0.03559,-1.25383 -0.322266,-1.53906 -0.286676,-0.28522 -0.468894,-0.31751 -0.591797,-0.35742 -0.49161,-0.15963 -0.560844,-0.10074 -0.826172,-0.10937 -1.061309,-0.0346 -3.415263,0.0157 -8.388672,-0.0527 z"
       id="path194501-5-5" />
  </g>
</svg>
