<?xml version="1.0" encoding="UTF-8" standalone="no"?>
<!-- Created with Inkscape (http://www.inkscape.org/) -->

<svg
   width="13.435714mm"
   height="53.167999mm"
   viewBox="0 0 13.435714 53.167999"
   version="1.1"
   id="svg70682"
   inkscape:version="1.2.1 (9c6d41e410, 2022-07-14)"
   sodipodi:docname="â¸.svg"
   xmlns:inkscape="http://www.inkscape.org/namespaces/inkscape"
   xmlns:sodipodi="http://sodipodi.sourceforge.net/DTD/sodipodi-0.dtd"
   xmlns="http://www.w3.org/2000/svg"
   xmlns:svg="http://www.w3.org/2000/svg">
  <sodipodi:namedview
     id="namedview70684"
     pagecolor="#ffffff"
     bordercolor="#000000"
     borderopacity="0.25"
     inkscape:showpageshadow="2"
     inkscape:pageopacity="0.0"
     inkscape:pagecheckerboard="0"
     inkscape:deskcolor="#d1d1d1"
     inkscape:document-units="mm"
     showgrid="false"
     inkscape:zoom="0.7483165"
     inkscape:cx="-16.035995"
     inkscape:cy="51.448819"
     inkscape:window-width="1920"
     inkscape:window-height="1001"
     inkscape:window-x="-9"
     inkscape:window-y="-9"
     inkscape:window-maximized="1"
     inkscape:current-layer="layer1" />
  <defs
     id="defs70679" />
  <g
     inkscape:label="Capa 1"
     inkscape:groupmode="layer"
     id="layer1"
     transform="translate(-22.627937,-107.08885)">
    <path
       style="color:#000000;fill:#000000;stroke-linecap:round;stroke-linejoin:round;-inkscape-stroke:none"
       d="m 29.3125,115.34375 c -1.331218,-0.003 -2.710516,0.18627 -3.886719,0.96289 -0.27611,0.18231 -0.578356,0.4181 -0.789062,0.875 -0.210706,0.4569 -0.165627,1.13123 0.04297,1.52734 0.231648,0.4399 0.485886,0.66642 0.746094,0.83008 -0.726689,0.31486 -1.342584,0.68085 -1.748047,1.33399 -0.484417,0.78032 -0.329192,1.92758 0.117188,2.55859 0.44638,0.63101 1.026302,1.01249 1.673828,1.3457 1.295053,0.66644 2.926645,1.07465 4.542969,1.12891 1.616324,0.0543 3.379971,-0.18091 4.449218,-1.63867 0.483077,-0.6586 0.743883,-1.53932 0.5625,-2.33203 -0.181382,-0.79271 -0.678182,-1.34872 -1.189453,-1.76367 -0.0041,-0.003 -0.0096,-0.005 -0.01367,-0.008 0.02911,-0.0114 0.07681,-0.0116 0.105469,-0.0234 0.57713,-0.23875 1.319474,-0.67608 1.435547,-1.6504 0.116073,-0.97431 -0.503774,-1.54958 -0.9375,-1.86328 -0.433726,-0.3137 -0.899089,-0.5154 -1.427734,-0.69531 -1.057291,-0.35981 -2.352376,-0.58492 -3.683594,-0.58789 z m 0.484375,2.89844 c 0.433162,0.0281 0.793378,0.11165 1.191406,0.18945 a 1.41111,1.41111 0 0 0 -0.191406,0.24219 c -0.176316,-0.0651 -0.326461,-0.18512 -0.501953,-0.24805 -0.204306,-0.0733 -0.297683,-0.11351 -0.498047,-0.18359 z m 0.03125,3.06836 c 0.920079,0.36082 1.858964,0.75438 2.226562,1.05273 0.223768,0.18162 0.234012,0.27641 0.216797,0.20117 -0.01721,-0.0752 0.06417,-0.17144 -0.08594,0.0332 -0.129176,0.17611 -0.917634,0.5273 -2.080078,0.48828 -1.162445,-0.039 -2.535442,-0.40241 -3.34375,-0.81836 -0.126448,-0.0651 -0.113966,-0.0831 -0.207032,-0.14649 0.121368,-0.0721 0.04178,-0.0502 0.271485,-0.13671 0.615362,-0.23174 1.63364,-0.47475 3.001953,-0.67383 z"
       id="path196739-3" />
  </g>
</svg>
