<?xml version="1.0" encoding="UTF-8" standalone="no"?>
<!-- Created with Inkscape (http://www.inkscape.org/) -->

<svg
   width="13.435714mm"
   height="53.167999mm"
   viewBox="0 0 13.435714 53.167999"
   version="1.1"
   id="svg70682"
   inkscape:version="1.2.1 (9c6d41e410, 2022-07-14)"
   sodipodi:docname="â¹.svg"
   xmlns:inkscape="http://www.inkscape.org/namespaces/inkscape"
   xmlns:sodipodi="http://sodipodi.sourceforge.net/DTD/sodipodi-0.dtd"
   xmlns="http://www.w3.org/2000/svg"
   xmlns:svg="http://www.w3.org/2000/svg">
  <sodipodi:namedview
     id="namedview70684"
     pagecolor="#ffffff"
     bordercolor="#000000"
     borderopacity="0.25"
     inkscape:showpageshadow="2"
     inkscape:pageopacity="0.0"
     inkscape:pagecheckerboard="0"
     inkscape:deskcolor="#d1d1d1"
     inkscape:document-units="mm"
     showgrid="false"
     inkscape:zoom="0.7483165"
     inkscape:cx="-16.035995"
     inkscape:cy="51.448819"
     inkscape:window-width="1920"
     inkscape:window-height="1001"
     inkscape:window-x="-9"
     inkscape:window-y="-9"
     inkscape:window-maximized="1"
     inkscape:current-layer="layer1" />
  <defs
     id="defs70679" />
  <g
     inkscape:label="Capa 1"
     inkscape:groupmode="layer"
     id="layer1"
     transform="translate(-22.627937,-107.08885)">
    <path
       style="color:#000000;fill:#000000;stroke-linecap:round;stroke-linejoin:round;-inkscape-stroke:none"
       d="m 27.638672,115.50781 c -1.181992,0.15096 -2.419521,0.45807 -3.214844,1.5918 -0.397661,0.56686 -0.570586,1.32612 -0.488281,2.04102 0.0823,0.71489 0.365823,1.39866 0.802734,2.11718 0.816137,1.34219 2.433054,1.78584 3.708985,1.62305 0.741489,-0.0946 1.362481,-0.46209 2.029296,-0.74609 -0.469417,0.91596 -0.989736,1.86375 -1.203125,2.6289 a 1.41111,1.41111 0 0 0 0.980469,1.73828 1.41111,1.41111 0 0 0 1.738281,-0.98047 c 0.138708,-0.49736 0.803213,-1.93944 1.494141,-3.19726 0.690929,-1.25782 1.537709,-2.54402 1.660156,-2.68555 0.10144,-0.11725 0.153872,-0.0862 0.34961,-0.50586 0.04893,-0.10492 0.141855,-0.24244 0.136718,-0.63476 -0.0029,-0.22114 -0.319331,-0.46067 -0.535156,-0.74414 a 1.41111,1.41111 0 0 0 -0.951172,-1.63672 c -1.484217,-0.45308 -4.143829,-0.9113 -6.507812,-0.60938 z m 0.357422,2.80078 c 1.051916,-0.13434 2.394104,0.001 3.582031,0.18555 -0.348398,0.22181 -0.605203,0.41316 -0.998047,0.62891 -0.887105,0.48718 -1.850786,0.8774 -2.490234,0.95898 -0.639448,0.0816 -0.716416,0.0758 -0.939453,-0.29101 -0.295346,-0.48572 -0.392997,-0.82361 -0.410157,-0.97266 -0.01716,-0.14905 -0.0089,-0.0934 -0.0059,-0.0977 0.006,-0.009 0.43775,-0.30687 1.261719,-0.41211 z"
       id="path199035-1" />
  </g>
</svg>
