<?xml version="1.0" encoding="UTF-8" standalone="no"?>
<!-- Created with Inkscape (http://www.inkscape.org/) -->

<svg
   width="14.420662mm"
   height="53.167999mm"
   viewBox="0 0 14.420662 53.167999"
   version="1.1"
   id="svg70682"
   inkscape:version="1.2.1 (9c6d41e410, 2022-07-14)"
   sodipodi:docname="â¿.svg"
   xmlns:inkscape="http://www.inkscape.org/namespaces/inkscape"
   xmlns:sodipodi="http://sodipodi.sourceforge.net/DTD/sodipodi-0.dtd"
   xmlns="http://www.w3.org/2000/svg"
   xmlns:svg="http://www.w3.org/2000/svg">
  <sodipodi:namedview
     id="namedview70684"
     pagecolor="#ffffff"
     bordercolor="#000000"
     borderopacity="0.25"
     inkscape:showpageshadow="2"
     inkscape:pageopacity="0.0"
     inkscape:pagecheckerboard="0"
     inkscape:deskcolor="#d1d1d1"
     inkscape:document-units="mm"
     showgrid="false"
     inkscape:zoom="2.8527371"
     inkscape:cx="93.594325"
     inkscape:cy="127.42149"
     inkscape:window-width="1920"
     inkscape:window-height="1001"
     inkscape:window-x="-9"
     inkscape:window-y="-9"
     inkscape:window-maximized="1"
     inkscape:current-layer="layer1" />
  <defs
     id="defs70679" />
  <g
     inkscape:label="Capa 1"
     inkscape:groupmode="layer"
     id="layer1"
     transform="translate(26.319675)">
    <rect
       style="fill:#e9afaf;stroke-width:2.47186;stroke-linecap:round;stroke-linejoin:round"
       id="rect81742"
       width="19.799999"
       height="53.167999"
       x="147.00026"
       y="128.83638" />
    <path
       style="color:#000000;fill:#000000;stroke-linecap:round;stroke-linejoin:round;-inkscape-stroke:none"
       d="m -17.251953,8.4941406 c -0.808015,0.038809 -1.574763,0.2569701 -2.240234,0.6054688 -0.683646,0.3580165 -1.274931,0.8292512 -1.802735,1.3515626 -0.106987,-0.256972 -0.224677,-0.5153263 -0.466797,-0.748047 -0.600325,-0.577021 -1.512234,-0.6664195 -2.208984,-0.5097656 a 1.41111,1.41111 0 0 0 -1.066406,1.6874996 1.41111,1.41111 0 0 0 1.113281,0.966797 c -0.03356,0.445337 -0.195253,1.258472 -0.496094,2.140625 -0.333791,0.978773 -0.738715,1.953005 -0.996094,2.638672 -0.06434,0.171417 -0.119842,0.324887 -0.167968,0.478516 -0.04813,0.153629 -0.113536,0.22649 -0.117188,0.644531 -9.13e-4,0.10451 -0.0022,0.241148 0.06641,0.460937 0.06856,0.21979 0.250156,0.576195 0.628907,0.804688 0.378751,0.228493 0.820379,0.224807 1.066406,0.167969 0.246027,-0.05684 0.371635,-0.136531 0.466797,-0.197266 0.380649,-0.242937 0.403517,-0.347398 0.52539,-0.496094 0.213115,-0.260016 0.220937,-0.335787 0.283204,-0.460937 0.06227,-0.12515 0.12385,-0.257934 0.193359,-0.410156 0.139018,-0.304446 0.308635,-0.683167 0.513672,-1.111329 0.410072,-0.856323 0.963877,-1.906164 1.623047,-2.830078 0.659169,-0.923914 1.427037,-1.697361 2.15039,-2.076171 0.723354,-0.378811 1.332283,-0.47451 2.279297,-0.05469 0.286511,0.127014 0.399146,0.292241 0.490234,0.896484 0.09109,0.604244 0.01234,1.503059 -0.162109,2.333985 -0.174453,0.830926 -0.429954,1.605482 -0.589844,2.029297 -0.02706,0.07172 -0.04477,0.115663 -0.06445,0.164062 a 1.41111,1.41111 0 0 0 -0.04297,0.01953 c -0.04817,0.126798 -0.07941,0.206028 -0.115235,0.328125 -0.009,0.03053 -0.01833,0.06345 -0.03125,0.123047 -0.0065,0.0298 -0.01373,0.0671 -0.02148,0.126953 -0.0078,0.05985 -0.006,0.323066 -0.0059,0.324219 5.7e-5,5.77e-4 0.118989,0.443023 0.119141,0.443359 1.52e-4,3.37e-4 0.761473,0.730371 0.761719,0.730469 2.46e-4,9.9e-5 1.056302,-0.0038 1.05664,-0.0039 3.39e-4,-1.37e-4 0.392148,-0.239863 0.392578,-0.240234 8.61e-4,-7.44e-4 0.185076,-0.189432 0.220704,-0.238282 0.03563,-0.04885 0.05452,-0.08137 0.07031,-0.107422 0.126361,-0.208385 0.118412,-0.226053 0.160156,-0.324218 0.04175,-0.09817 0.08913,-0.213115 0.140625,-0.34961 0.205977,-0.545978 0.496555,-1.424198 0.710938,-2.445312 0.214383,-1.021115 0.366394,-2.173185 0.191406,-3.333984 -0.174987,-1.1608 -0.826314,-2.4748559 -2.138672,-3.0566411 -0.833496,-0.3694985 -1.682219,-0.511465 -2.490234,-0.4726563 z m 1.68164,7.9550784 c -1.61e-4,6.5e-5 0.25136,4.97e-4 0.501954,0 a 1.41111,1.41111 0 0 0 -1.132813,0.507812 c 0.0087,-0.01307 0.01215,-0.01895 0.02539,-0.03711 0.03319,-0.04551 0.213751,-0.233166 0.21289,-0.232422 -4.3e-4,3.72e-4 0.392917,-0.238419 0.392578,-0.238281 z"
       id="path33911-5-4" />
  </g>
</svg>
