<?xml version="1.0" encoding="UTF-8" standalone="no"?>
<!-- Created with Inkscape (http://www.inkscape.org/) -->

<svg
   width="13.435713mm"
   height="53.167999mm"
   viewBox="0 0 13.435713 53.167999"
   version="1.1"
   id="svg1726"
   inkscape:version="1.2.1 (9c6d41e410, 2022-07-14)"
   sodipodi:docname="₀.svg"
   xmlns:inkscape="http://www.inkscape.org/namespaces/inkscape"
   xmlns:sodipodi="http://sodipodi.sourceforge.net/DTD/sodipodi-0.dtd"
   xmlns="http://www.w3.org/2000/svg"
   xmlns:svg="http://www.w3.org/2000/svg">
  <sodipodi:namedview
     id="namedview1728"
     pagecolor="#ffffff"
     bordercolor="#000000"
     borderopacity="0.25"
     inkscape:showpageshadow="2"
     inkscape:pageopacity="0.0"
     inkscape:pagecheckerboard="0"
     inkscape:deskcolor="#d1d1d1"
     inkscape:document-units="mm"
     showgrid="false"
     inkscape:zoom="0.7483165"
     inkscape:cx="499.78853"
     inkscape:cy="48.776153"
     inkscape:window-width="1920"
     inkscape:window-height="1001"
     inkscape:window-x="-9"
     inkscape:window-y="-9"
     inkscape:window-maximized="1"
     inkscape:current-layer="layer1" />
  <defs
     id="defs1723" />
  <g
     inkscape:label="Capa 1"
     inkscape:groupmode="layer"
     id="layer1"
     transform="translate(29.529123,-157.38892)">
    <path
       style="color:#000000;fill:#000000;stroke-linecap:round;stroke-linejoin:round;-inkscape-stroke:none"
       d="m -21.732422,191.47461 c -0.965152,-0.23472 -1.970942,-0.1969 -2.865234,0.0391 a 1.4112512,1.4112512 0 0 0 -0.01563,0.004 c -1.26668,0.35028 -2.791211,1.19963 -3.464844,2.90234 a 1.4112512,1.4112512 0 0 0 -0.02148,0.0586 c -0.529762,1.53713 -0.571365,3.43794 0.58789,4.94531 1.219114,1.60487 3.074934,2.1277 4.611328,2.18359 a 1.4112512,1.4112512 0 0 0 0.03125,0.002 c 1.530988,0.0224 3.334392,-0.37897 4.679688,-1.76562 1.143958,-1.1486 1.441028,-2.77893 1.050781,-4.2793 -0.05695,-0.24131 -0.124385,-0.47413 -0.203125,-0.69531 a 1.41111,1.41111 0 0 0 -1.464844,-0.69531 1.41111,1.41111 0 0 0 -0.310546,-1.09961 c -0.726848,-0.85814 -1.650082,-1.36489 -2.615235,-1.59961 z m -0.716797,2.71289 c 0.448924,0.10092 0.856386,0.32924 1.179688,0.71094 a 1.41111,1.41111 0 0 0 1.638672,0.13672 1.41111,1.41111 0 0 0 -0.371094,0.78125 c 0.04976,0.13977 0.09179,0.27808 0.123047,0.41406 a 1.4112512,1.4112512 0 0 0 0.0098,0.041 c 0.148327,0.56668 -0.06894,1.33717 -0.318359,1.58594 a 1.4112512,1.4112512 0 0 0 -0.01953,0.0195 c -0.649351,0.67349 -1.576311,0.92011 -2.603516,0.90821 -1.007155,-0.0391 -1.895831,-0.32928 -2.457031,-1.07032 a 1.4112512,1.4112512 0 0 0 -0.0078,-0.01 c -0.330446,-0.42837 -0.419662,-1.47361 -0.154296,-2.27735 0.262657,-0.62177 0.841641,-0.98512 1.560546,-1.18554 0.485884,-0.12681 0.974061,-0.15492 1.419922,-0.0547 z"
       id="path19354-8-7-6-3" />
  </g>
</svg>
