<?xml version="1.0" encoding="UTF-8" standalone="no"?>
<!-- Created with Inkscape (http://www.inkscape.org/) -->

<svg
   width="14.142857mm"
   height="53.167999mm"
   viewBox="0 0 14.142857 53.167999"
   version="1.1"
   id="svg1726"
   inkscape:version="1.2.1 (9c6d41e410, 2022-07-14)"
   sodipodi:docname="₂.svg"
   xmlns:inkscape="http://www.inkscape.org/namespaces/inkscape"
   xmlns:sodipodi="http://sodipodi.sourceforge.net/DTD/sodipodi-0.dtd"
   xmlns="http://www.w3.org/2000/svg"
   xmlns:svg="http://www.w3.org/2000/svg">
  <sodipodi:namedview
     id="namedview1728"
     pagecolor="#ffffff"
     bordercolor="#000000"
     borderopacity="0.25"
     inkscape:showpageshadow="2"
     inkscape:pageopacity="0.0"
     inkscape:pagecheckerboard="0"
     inkscape:deskcolor="#d1d1d1"
     inkscape:document-units="mm"
     showgrid="false"
     inkscape:zoom="0.7483165"
     inkscape:cx="503.79753"
     inkscape:cy="48.776153"
     inkscape:window-width="1920"
     inkscape:window-height="1001"
     inkscape:window-x="-9"
     inkscape:window-y="-9"
     inkscape:window-maximized="1"
     inkscape:current-layer="layer1" />
  <defs
     id="defs1723" />
  <g
     inkscape:label="Capa 1"
     inkscape:groupmode="layer"
     id="layer1"
     transform="translate(30.587458,-157.38892)">
    <path
       style="color:#000000;fill:#000000;stroke-linecap:round;stroke-linejoin:round;-inkscape-stroke:none"
       d="m -24.916016,191.14453 c -0.858457,0.0194 -1.702418,0.17961 -2.470703,0.50391 -0.768285,0.3243 -1.603418,0.92939 -1.83789,1.98047 -0.234473,1.05107 0.269254,2.05709 1.035156,2.87109 a 1.41111,1.41111 0 0 0 1.994141,0.0606 1.41111,1.41111 0 0 0 0.06055,-1.99414 c -0.425944,-0.4527 -0.293858,-0.51285 -0.335937,-0.32422 -0.04208,0.18863 -0.121372,0.13376 0.181641,0.006 0.606025,-0.25581 2.162188,-0.33689 3.134765,-0.0508 0.486289,0.14305 0.803605,0.3683 0.869141,0.44726 0.06554,0.079 0.07512,-0.0906 -0.01563,0.15234 -0.181489,0.4859 -1.757925,2.22508 -5.90625,4.30079 a 1.4112512,1.4112512 0 0 0 0.695312,2.67187 l 8.416016,-0.37891 a 1.41111,1.41111 0 0 0 1.347656,-1.4746 1.41111,1.41111 0 0 0 -1.474609,-1.34571 l -2.820313,0.12696 c 1.223581,-0.95443 2.001183,-1.88515 2.384766,-2.91211 0.375682,-1.00582 0.153439,-2.2078 -0.457031,-2.94336 -0.610471,-0.73556 -1.415372,-1.10834 -2.242188,-1.35157 -0.826816,-0.24322 -1.700136,-0.36508 -2.558594,-0.3457 z"
       id="path190723-5-3" />
  </g>
</svg>
