<?xml version="1.0" encoding="UTF-8" standalone="no"?>
<!-- Created with Inkscape (http://www.inkscape.org/) -->

<svg
   width="14.142857mm"
   height="53.167999mm"
   viewBox="0 0 14.142857 53.167999"
   version="1.1"
   id="svg1726"
   inkscape:version="1.2.1 (9c6d41e410, 2022-07-14)"
   sodipodi:docname="₃.svg"
   xmlns:inkscape="http://www.inkscape.org/namespaces/inkscape"
   xmlns:sodipodi="http://sodipodi.sourceforge.net/DTD/sodipodi-0.dtd"
   xmlns="http://www.w3.org/2000/svg"
   xmlns:svg="http://www.w3.org/2000/svg">
  <sodipodi:namedview
     id="namedview1728"
     pagecolor="#ffffff"
     bordercolor="#000000"
     borderopacity="0.25"
     inkscape:showpageshadow="2"
     inkscape:pageopacity="0.0"
     inkscape:pagecheckerboard="0"
     inkscape:deskcolor="#d1d1d1"
     inkscape:document-units="mm"
     showgrid="false"
     inkscape:zoom="0.7483165"
     inkscape:cx="503.79753"
     inkscape:cy="48.776153"
     inkscape:window-width="1920"
     inkscape:window-height="1001"
     inkscape:window-x="-9"
     inkscape:window-y="-9"
     inkscape:window-maximized="1"
     inkscape:current-layer="layer1" />
  <defs
     id="defs1723" />
  <g
     inkscape:label="Capa 1"
     inkscape:groupmode="layer"
     id="layer1"
     transform="translate(30.587458,-157.38892)">
    <path
       style="color:#000000;fill:#000000;stroke-linecap:round;stroke-linejoin:round"
       d="m -21.175781,194.05469 c -0.97759,-0.11691 -2.172955,-0.0795 -3.691406,0.0508 a 1.41111,1.41111 0 0 0 -1.285157,1.52539 1.41111,1.41111 0 0 0 1.525391,1.28516 c 2.788566,-0.23928 4.007,0.16764 4.140625,0.26757 0.06681,0.05 0.0043,-0.0517 0.01563,0.0312 0.01135,0.083 -0.0029,0.34701 -0.08008,0.70313 0.01768,-0.0816 -0.16003,0.23919 -0.84961,0.5 -0.68958,0.26081 -1.69522,0.42268 -2.603515,0.40625 -0.908296,-0.0164 -1.725409,-0.25194 -1.990235,-0.42578 -0.132412,-0.0869 -0.108441,-0.10369 -0.09375,-0.0586 0.01469,0.0451 -0.02747,0.0633 0.06055,-0.14062 a 1.41111,1.41111 0 0 0 -0.736328,-1.85547 1.41111,1.41111 0 0 0 -1.855469,0.73633 c -0.28944,0.6707 -0.377131,1.44488 -0.152343,2.13476 0.224787,0.68989 0.712533,1.20425 1.228515,1.54297 1.031964,0.67745 2.242107,0.86613 3.488282,0.88867 1.246174,0.0225 2.523793,-0.16105 3.652343,-0.58789 1.128551,-0.42684 2.30392,-1.1347 2.609375,-2.54492 0.102548,-0.47343 0.209111,-1.02382 0.119141,-1.68164 -0.08997,-0.65782 -0.477519,-1.42689 -1.121094,-1.9082 -0.643575,-0.48132 -1.403269,-0.75223 -2.380859,-0.86914 z"
       id="path194495-42-4" />
    <path
       style="color:#000000;fill:#000000;stroke-linecap:round;stroke-linejoin:round;-inkscape-stroke:none"
       d="m -20.513672,190.90234 c -2.054135,-0.19278 -5.186885,0.0107 -6.767578,0.0273 a 1.41111,1.41111 0 0 0 -1.396484,1.42578 1.41111,1.41111 0 0 0 1.425781,1.39648 c 1.191543,-0.0125 2.854406,-0.0226 4.402344,-0.0273 a 1.41111,1.41111 0 0 0 -0.53125,1.18164 1.41111,1.41111 0 0 0 1.820312,0.81641 c 0.95908,-0.3644 1.668667,-0.67394 2.21875,-0.98047 0.550083,-0.30654 1.045277,-0.45092 1.376953,-1.36914 0.165838,-0.45911 0.04057,-1.19987 -0.259765,-1.57618 -0.300339,-0.3763 -0.596353,-0.5019 -0.84375,-0.5996 -0.494795,-0.19541 -0.931779,-0.24673 -1.445313,-0.29493 z"
       id="path194501-0-6" />
  </g>
</svg>
