<?xml version="1.0" encoding="UTF-8" standalone="no"?>
<!-- Created with Inkscape (http://www.inkscape.org/) -->

<svg
   width="14.142857mm"
   height="53.167999mm"
   viewBox="0 0 14.142857 53.167999"
   version="1.1"
   id="svg1726"
   inkscape:version="1.2.1 (9c6d41e410, 2022-07-14)"
   sodipodi:docname="₄.svg"
   xmlns:inkscape="http://www.inkscape.org/namespaces/inkscape"
   xmlns:sodipodi="http://sodipodi.sourceforge.net/DTD/sodipodi-0.dtd"
   xmlns="http://www.w3.org/2000/svg"
   xmlns:svg="http://www.w3.org/2000/svg">
  <sodipodi:namedview
     id="namedview1728"
     pagecolor="#ffffff"
     bordercolor="#000000"
     borderopacity="0.25"
     inkscape:showpageshadow="2"
     inkscape:pageopacity="0.0"
     inkscape:pagecheckerboard="0"
     inkscape:deskcolor="#d1d1d1"
     inkscape:document-units="mm"
     showgrid="false"
     inkscape:zoom="0.7483165"
     inkscape:cx="503.79753"
     inkscape:cy="78.175478"
     inkscape:window-width="1920"
     inkscape:window-height="1001"
     inkscape:window-x="-9"
     inkscape:window-y="-9"
     inkscape:window-maximized="1"
     inkscape:current-layer="layer1" />
  <defs
     id="defs1723" />
  <g
     inkscape:label="Capa 1"
     inkscape:groupmode="layer"
     id="layer1"
     transform="translate(30.587458,-157.38892)">
    <path
       style="color:#000000;fill:#000000;stroke-linecap:round;stroke-linejoin:round"
       d="m -20.554687,191.39453 a 1.41111,1.41111 0 0 0 -1.546875,1.25781 l -0.822266,7.96094 a 1.41111,1.41111 0 0 0 1.259766,1.54883 1.41111,1.41111 0 0 0 1.548828,-1.25977 l 0.820312,-7.96093 a 1.41111,1.41111 0 0 0 -1.259765,-1.54688 z"
       id="path195229-7-8" />
    <path
       style="color:#000000;fill:#000000;stroke-linecap:round;stroke-linejoin:round;-inkscape-stroke:none"
       d="m -21.316406,191.44336 a 1.41111,1.41111 0 0 0 -1.990235,0.13867 c -2.075229,2.38481 -3.546723,3.46194 -4.414062,4.06836 -0.216835,0.1516 -0.397016,0.27298 -0.572266,0.40234 -0.175249,0.12937 -0.358246,0.1969 -0.628906,0.63868 -0.13533,0.22088 -0.287302,0.636 -0.207031,1.07812 0.08027,0.44212 0.34053,0.74523 0.521484,0.90039 0.361909,0.31032 0.549931,0.33673 0.759766,0.41602 0.92855,0.35088 1.826248,0.3371 3.179687,0.37695 1.35344,0.0399 3.083314,0.0542 5.21875,0.13672 a 1.41111,1.41111 0 0 0 1.462891,-1.35547 1.41111,1.41111 0 0 0 -1.355469,-1.46484 c -2.11445,-0.0818 -3.792183,-0.099 -5.080078,-0.13477 0.901489,-0.75704 1.959202,-1.73431 3.244141,-3.21094 a 1.41111,1.41111 0 0 0 -0.138672,-1.99023 z"
       id="path195233-2-4" />
  </g>
</svg>
