<?xml version="1.0" encoding="UTF-8" standalone="no"?>
<!-- Created with Inkscape (http://www.inkscape.org/) -->

<svg
   width="14.142857mm"
   height="53.167999mm"
   viewBox="0 0 14.142857 53.167999"
   version="1.1"
   id="svg1726"
   inkscape:version="1.2.1 (9c6d41e410, 2022-07-14)"
   sodipodi:docname="₆.svg"
   xmlns:inkscape="http://www.inkscape.org/namespaces/inkscape"
   xmlns:sodipodi="http://sodipodi.sourceforge.net/DTD/sodipodi-0.dtd"
   xmlns="http://www.w3.org/2000/svg"
   xmlns:svg="http://www.w3.org/2000/svg">
  <sodipodi:namedview
     id="namedview1728"
     pagecolor="#ffffff"
     bordercolor="#000000"
     borderopacity="0.25"
     inkscape:showpageshadow="2"
     inkscape:pageopacity="0.0"
     inkscape:pagecheckerboard="0"
     inkscape:deskcolor="#d1d1d1"
     inkscape:document-units="mm"
     showgrid="false"
     inkscape:zoom="0.7483165"
     inkscape:cx="503.79753"
     inkscape:cy="78.175478"
     inkscape:window-width="1920"
     inkscape:window-height="1001"
     inkscape:window-x="-9"
     inkscape:window-y="-9"
     inkscape:window-maximized="1"
     inkscape:current-layer="layer1" />
  <defs
     id="defs1723" />
  <g
     inkscape:label="Capa 1"
     inkscape:groupmode="layer"
     id="layer1"
     transform="translate(30.587458,-157.38892)">
    <path
       style="color:#000000;fill:#000000;stroke-linecap:round;stroke-linejoin:round;-inkscape-stroke:none"
       d="m -21.527344,190.91797 c -4.586962,-0.17267 -7.566931,3.15058 -7.945312,6.33789 -0.189191,1.59365 0.313661,3.33677 1.748047,4.30859 1.434385,0.97183 3.447818,0.99252 5.798828,0.0996 1.930537,-0.73321 3.235691,-1.73564 3.914062,-2.97265 0.678371,-1.23701 0.534017,-2.8652 -0.455078,-3.80079 -0.989095,-0.93558 -2.468155,-1.13392 -3.998047,-0.73242 -1.203558,0.31586 -2.503856,1.13455 -3.83789,2.26758 0.653248,-1.41238 2.173832,-2.78146 4.669922,-2.6875 a 1.41111,1.41111 0 0 0 1.46289,-1.35742 1.41111,1.41111 0 0 0 -1.357422,-1.46289 z m -0.220703,5.9707 c 0.881666,-0.23138 1.280678,-0.005 1.341797,0.0527 0.06112,0.0578 0.140575,-0.01 -0.08008,0.39257 -0.220653,0.40237 -0.935787,1.11958 -2.441406,1.69141 -1.343663,0.51032 -2.097643,0.48164 -2.63086,0.34961 a 1.41111,1.41111 0 0 0 0.1875,-0.0801 c 1.459726,-1.48468 2.741381,-2.17487 3.623047,-2.40625 z"
       id="path196783-3-9" />
  </g>
</svg>
