<?xml version="1.0" encoding="UTF-8" standalone="no"?>
<!-- Created with Inkscape (http://www.inkscape.org/) -->

<svg
   width="14.142857mm"
   height="53.167999mm"
   viewBox="0 0 14.142857 53.167999"
   version="1.1"
   id="svg1726"
   inkscape:version="1.2.1 (9c6d41e410, 2022-07-14)"
   sodipodi:docname="₇.svg"
   xmlns:inkscape="http://www.inkscape.org/namespaces/inkscape"
   xmlns:sodipodi="http://sodipodi.sourceforge.net/DTD/sodipodi-0.dtd"
   xmlns="http://www.w3.org/2000/svg"
   xmlns:svg="http://www.w3.org/2000/svg">
  <sodipodi:namedview
     id="namedview1728"
     pagecolor="#ffffff"
     bordercolor="#000000"
     borderopacity="0.25"
     inkscape:showpageshadow="2"
     inkscape:pageopacity="0.0"
     inkscape:pagecheckerboard="0"
     inkscape:deskcolor="#d1d1d1"
     inkscape:document-units="mm"
     showgrid="false"
     inkscape:zoom="0.7483165"
     inkscape:cx="503.79753"
     inkscape:cy="78.175478"
     inkscape:window-width="1920"
     inkscape:window-height="1001"
     inkscape:window-x="-9"
     inkscape:window-y="-9"
     inkscape:window-maximized="1"
     inkscape:current-layer="layer1" />
  <defs
     id="defs1723" />
  <g
     inkscape:label="Capa 1"
     inkscape:groupmode="layer"
     id="layer1"
     transform="translate(30.587458,-157.38892)">
    <path
       style="color:#000000;fill:#000000;stroke-linecap:round;stroke-linejoin:round;-inkscape-stroke:none"
       d="m -27.974609,191.31836 a 1.41111,1.41111 0 0 0 -1.431641,1.39062 1.41111,1.41111 0 0 0 1.392578,1.42969 c 2.201636,0.0303 2.361511,0.021 3.667969,0.0234 -0.141549,0.14321 -0.314198,0.20528 -0.445313,0.36719 -1.205254,1.4883 -1.511164,3.9483 0.01953,6.49609 a 1.41111,1.41111 0 0 0 1.9375,0.48438 1.41111,1.41111 0 0 0 0.482422,-1.9375 c -1.130842,-1.88225 -0.828315,-2.54863 -0.246094,-3.26758 0.58222,-0.71896 1.842053,-1.33817 2.791015,-1.68555 0.474481,-0.17369 0.711472,-0.19584 1.216797,-0.45117 0.06317,-0.0319 0.136615,-0.0684 0.251953,-0.1543 0.115339,-0.0859 0.316243,-0.19631 0.490235,-0.63672 0.173991,-0.44041 -0.03559,-1.25383 -0.322266,-1.53906 -0.286676,-0.28522 -0.468894,-0.31947 -0.591797,-0.35937 -0.491609,-0.15963 -0.558891,-0.0988 -0.824218,-0.10743 -1.061309,-0.0345 -3.415264,0.0157 -8.388672,-0.0527 z"
       id="path194501-5-5-3" />
  </g>
</svg>
