<?xml version="1.0" encoding="UTF-8" standalone="no"?>
<!-- Created with Inkscape (http://www.inkscape.org/) -->

<svg
   width="14.142857mm"
   height="53.167999mm"
   viewBox="0 0 14.142857 53.167999"
   version="1.1"
   id="svg1726"
   inkscape:version="1.2.1 (9c6d41e410, 2022-07-14)"
   sodipodi:docname="₈.svg"
   xmlns:inkscape="http://www.inkscape.org/namespaces/inkscape"
   xmlns:sodipodi="http://sodipodi.sourceforge.net/DTD/sodipodi-0.dtd"
   xmlns="http://www.w3.org/2000/svg"
   xmlns:svg="http://www.w3.org/2000/svg">
  <sodipodi:namedview
     id="namedview1728"
     pagecolor="#ffffff"
     bordercolor="#000000"
     borderopacity="0.25"
     inkscape:showpageshadow="2"
     inkscape:pageopacity="0.0"
     inkscape:pagecheckerboard="0"
     inkscape:deskcolor="#d1d1d1"
     inkscape:document-units="mm"
     showgrid="false"
     inkscape:zoom="0.7483165"
     inkscape:cx="503.79753"
     inkscape:cy="78.175478"
     inkscape:window-width="1920"
     inkscape:window-height="1001"
     inkscape:window-x="-9"
     inkscape:window-y="-9"
     inkscape:window-maximized="1"
     inkscape:current-layer="layer1" />
  <defs
     id="defs1723" />
  <g
     inkscape:label="Capa 1"
     inkscape:groupmode="layer"
     id="layer1"
     transform="translate(30.587458,-157.38892)">
    <path
       style="color:#000000;fill:#000000;stroke-linecap:round;stroke-linejoin:round;-inkscape-stroke:none"
       d="m -23.568359,191.04102 c -1.331219,-0.003 -2.71247,0.18822 -3.888672,0.96484 -0.276111,0.18231 -0.578357,0.4181 -0.789063,0.875 -0.210706,0.4569 -0.165626,1.12927 0.04297,1.52539 0.231673,0.43994 0.485856,0.66837 0.746094,0.83203 -0.72669,0.31486 -1.342585,0.68085 -1.748047,1.33399 -0.484417,0.78031 -0.329193,1.92758 0.117187,2.55859 0.44638,0.63101 1.028255,1.01053 1.675782,1.34375 1.295053,0.66643 2.924691,1.0766 4.541015,1.13086 1.616324,0.0543 3.379971,-0.18091 4.449219,-1.63867 0.483076,-0.65861 0.743882,-1.53932 0.5625,-2.33203 -0.181382,-0.79271 -0.678183,-1.34872 -1.189453,-1.76368 -0.005,-0.004 -0.01258,-0.004 -0.01758,-0.008 0.03026,-0.0118 0.07959,-0.0131 0.109375,-0.0254 0.57713,-0.23875 1.319474,-0.67412 1.435547,-1.64844 0.116072,-0.97431 -0.501821,-1.54958 -0.935547,-1.86328 -0.433726,-0.3137 -0.901042,-0.51736 -1.429688,-0.69726 -1.057291,-0.35982 -2.350422,-0.58493 -3.68164,-0.58789 z m 0.474609,2.89843 c 0.435931,0.0279 0.798644,0.11116 1.199219,0.18946 a 1.41111,1.41111 0 0 0 -0.191406,0.24414 c -0.175843,-0.0649 -0.324979,-0.18529 -0.5,-0.24805 -0.207975,-0.0746 -0.303975,-0.11427 -0.507813,-0.18555 z m 0.03516,3.06836 c 0.922091,0.36135 1.862219,0.75581 2.230469,1.05469 0.223768,0.18161 0.234012,0.27641 0.216797,0.20117 -0.01722,-0.0752 0.06417,-0.17144 -0.08594,0.0332 -0.129176,0.17612 -0.91568,0.52731 -2.078125,0.48829 -1.162444,-0.039 -2.537394,-0.40241 -3.345703,-0.81836 -0.12732,-0.0655 -0.115524,-0.0828 -0.208984,-0.14649 0.121552,-0.0725 0.04175,-0.0514 0.273437,-0.13867 0.6146,-0.23145 1.632388,-0.47488 2.998047,-0.67383 z"
       id="path196739-3-3" />
  </g>
</svg>
