<?xml version="1.0" encoding="UTF-8" standalone="no"?>
<!-- Created with Inkscape (http://www.inkscape.org/) -->

<svg
   width="14.142857mm"
   height="53.167999mm"
   viewBox="0 0 14.142857 53.167999"
   version="1.1"
   id="svg1726"
   inkscape:version="1.2.1 (9c6d41e410, 2022-07-14)"
   sodipodi:docname="₉.svg"
   xmlns:inkscape="http://www.inkscape.org/namespaces/inkscape"
   xmlns:sodipodi="http://sodipodi.sourceforge.net/DTD/sodipodi-0.dtd"
   xmlns="http://www.w3.org/2000/svg"
   xmlns:svg="http://www.w3.org/2000/svg">
  <sodipodi:namedview
     id="namedview1728"
     pagecolor="#ffffff"
     bordercolor="#000000"
     borderopacity="0.25"
     inkscape:showpageshadow="2"
     inkscape:pageopacity="0.0"
     inkscape:pagecheckerboard="0"
     inkscape:deskcolor="#d1d1d1"
     inkscape:document-units="mm"
     showgrid="false"
     inkscape:zoom="0.7483165"
     inkscape:cx="503.79753"
     inkscape:cy="78.175478"
     inkscape:window-width="1920"
     inkscape:window-height="1001"
     inkscape:window-x="-9"
     inkscape:window-y="-9"
     inkscape:window-maximized="1"
     inkscape:current-layer="layer1" />
  <defs
     id="defs1723" />
  <g
     inkscape:label="Capa 1"
     inkscape:groupmode="layer"
     id="layer1"
     transform="translate(30.587458,-157.38892)">
    <path
       style="color:#000000;fill:#000000;stroke-linecap:round;stroke-linejoin:round;-inkscape-stroke:none"
       d="m -25.597656,191.20703 c -1.181992,0.15096 -2.417568,0.45612 -3.212891,1.58984 -0.397661,0.56687 -0.572539,1.32808 -0.490234,2.04297 0.0823,0.7149 0.365823,1.39867 0.802734,2.11719 0.816137,1.34219 2.433054,1.78584 3.708985,1.62305 0.741488,-0.0946 1.362481,-0.46209 2.029296,-0.7461 -0.468922,0.91517 -0.989909,1.86243 -1.203125,2.62696 a 1.41111,1.41111 0 0 0 0.980469,1.73828 1.41111,1.41111 0 0 0 1.738281,-0.97852 c 0.138708,-0.49736 0.803212,-1.93944 1.494141,-3.19726 0.690929,-1.25782 1.539662,-2.54402 1.662109,-2.68555 0.10144,-0.11725 0.151918,-0.0881 0.347657,-0.50781 0.04893,-0.10493 0.143808,-0.2405 0.138672,-0.63281 -0.0029,-0.22143 -0.320835,-0.4624 -0.53711,-0.7461 a 1.41111,1.41111 0 0 0 -0.949219,-1.63476 c -1.484217,-0.45308 -4.145782,-0.9113 -6.509765,-0.60938 z m 0.359375,2.79883 c 1.052128,-0.13438 2.393983,0.003 3.582031,0.1875 -0.348575,0.22193 -0.604959,0.41303 -0.998047,0.62891 -0.887105,0.48718 -1.852739,0.87544 -2.492187,0.95703 -0.639448,0.0816 -0.716416,0.0777 -0.939453,-0.28907 -0.295346,-0.48571 -0.392997,-0.82361 -0.410157,-0.97265 -0.01716,-0.14905 -0.0069,-0.0953 -0.0039,-0.0996 0.006,-0.009 0.43775,-0.30688 1.261719,-0.41211 z"
       id="path199035-1-0" />
  </g>
</svg>
