<?xml version="1.0" encoding="UTF-8" standalone="no"?>
<!-- Created with Inkscape (http://www.inkscape.org/) -->

<svg
   width="14.142857mm"
   height="53.167999mm"
   viewBox="0 0 14.142857 53.167999"
   version="1.1"
   id="svg1726"
   inkscape:version="1.2.1 (9c6d41e410, 2022-07-14)"
   sodipodi:docname="₌.svg"
   xmlns:inkscape="http://www.inkscape.org/namespaces/inkscape"
   xmlns:sodipodi="http://sodipodi.sourceforge.net/DTD/sodipodi-0.dtd"
   xmlns="http://www.w3.org/2000/svg"
   xmlns:svg="http://www.w3.org/2000/svg">
  <sodipodi:namedview
     id="namedview1728"
     pagecolor="#ffffff"
     bordercolor="#000000"
     borderopacity="0.25"
     inkscape:showpageshadow="2"
     inkscape:pageopacity="0.0"
     inkscape:pagecheckerboard="0"
     inkscape:deskcolor="#d1d1d1"
     inkscape:document-units="mm"
     showgrid="false"
     inkscape:zoom="2.6464738"
     inkscape:cx="1.1335839"
     inkscape:cy="52.711649"
     inkscape:window-width="1920"
     inkscape:window-height="1001"
     inkscape:window-x="-9"
     inkscape:window-y="-9"
     inkscape:window-maximized="1"
     inkscape:current-layer="layer1" />
  <defs
     id="defs1723" />
  <g
     inkscape:label="Capa 1"
     inkscape:groupmode="layer"
     id="layer1"
     transform="translate(30.587458,-157.38892)">
    <path
       style="color:#000000;fill:#000000;stroke-linecap:round;stroke-linejoin:round"
       d="m -29.175781,192.61914 a 1.4111151,1.4111151 0 0 0 -1.41211,1.41016 1.4111151,1.4111151 0 0 0 1.41211,1.41211 h 11.126953 a 1.4111151,1.4111151 0 0 0 1.410156,-1.41211 1.4111151,1.4111151 0 0 0 -1.410156,-1.41016 z"
       id="path63055-0" />
    <g
       id="path63055-1-0"
       style="fill:#000000">
      <path
         style="color:#000000;fill:#000000;stroke-width:2.82223;stroke-linecap:round;stroke-linejoin:round;-inkscape-stroke:none"
         d="m -28.956253,198.97542 h 11.12682"
         id="path55196" />
      <path
         style="color:#000000;fill:#000000;stroke-linecap:round;stroke-linejoin:round;-inkscape-stroke:none"
         d="m -28.957031,197.56445 a 1.4111151,1.4111151 0 0 0 -1.410156,1.41016 1.4111151,1.4111151 0 0 0 1.410156,1.41211 h 11.126953 a 1.4111151,1.4111151 0 0 0 1.412109,-1.41211 1.4111151,1.4111151 0 0 0 -1.412109,-1.41016 z"
         id="path55198" />
    </g>
  </g>
</svg>
