<?xml version="1.0" encoding="UTF-8" standalone="no"?>
<!-- Created with Inkscape (http://www.inkscape.org/) -->

<svg
   width="14.142857mm"
   height="53.167999mm"
   viewBox="0 0 14.142857 53.167999"
   version="1.1"
   id="svg1726"
   inkscape:version="1.2.1 (9c6d41e410, 2022-07-14)"
   sodipodi:docname="ₙ.svg"
   xmlns:inkscape="http://www.inkscape.org/namespaces/inkscape"
   xmlns:sodipodi="http://sodipodi.sourceforge.net/DTD/sodipodi-0.dtd"
   xmlns="http://www.w3.org/2000/svg"
   xmlns:svg="http://www.w3.org/2000/svg">
  <sodipodi:namedview
     id="namedview1728"
     pagecolor="#ffffff"
     bordercolor="#000000"
     borderopacity="0.25"
     inkscape:showpageshadow="2"
     inkscape:pageopacity="0.0"
     inkscape:pagecheckerboard="0"
     inkscape:deskcolor="#d1d1d1"
     inkscape:document-units="mm"
     showgrid="false"
     inkscape:zoom="2.6464738"
     inkscape:cx="1.1335839"
     inkscape:cy="52.711649"
     inkscape:window-width="1920"
     inkscape:window-height="1001"
     inkscape:window-x="-9"
     inkscape:window-y="-9"
     inkscape:window-maximized="1"
     inkscape:current-layer="layer1" />
  <defs
     id="defs1723" />
  <g
     inkscape:label="Capa 1"
     inkscape:groupmode="layer"
     id="layer1"
     transform="translate(30.587458,-157.38892)">
    <path
       style="color:#000000;fill:#000000;stroke-linecap:round;stroke-linejoin:round;-inkscape-stroke:none"
       d="m -21.384766,191.39844 c -0.808014,0.0388 -1.574763,0.25697 -2.240234,0.60547 -0.684493,0.35846 -1.274446,0.83041 -1.802734,1.35351 -0.106984,-0.25747 -0.224223,-0.51684 -0.466797,-0.75 -0.600325,-0.57702 -1.510281,-0.66642 -2.207031,-0.50976 a 1.41111,1.41111 0 0 0 -1.06836,1.6875 1.41111,1.41111 0 0 0 1.167969,0.73828 c 0.0064,0.37446 -0.217832,1.39283 -0.550781,2.36914 -0.333791,0.97877 -0.736762,1.953 -0.994141,2.63867 -0.06434,0.17142 -0.119842,0.32489 -0.167969,0.47852 -0.04813,0.15362 -0.115489,0.22649 -0.11914,0.64453 -9.13e-4,0.10451 -1.98e-4,0.24115 0.06836,0.46093 0.06856,0.21979 0.250155,0.5762 0.628906,0.80469 0.378751,0.22849 0.818427,0.22481 1.064453,0.16797 0.246027,-0.0568 0.371635,-0.13653 0.466797,-0.19727 0.380649,-0.24293 0.403518,-0.34739 0.525391,-0.49609 0.213114,-0.26001 0.222889,-0.33579 0.285156,-0.46094 0.06227,-0.12515 0.12385,-0.25793 0.19336,-0.41015 0.139018,-0.30445 0.306682,-0.68317 0.511718,-1.11133 0.410073,-0.85632 0.963877,-1.90616 1.623047,-2.83008 0.65917,-0.92391 1.42899,-1.69736 2.152344,-2.07617 0.723353,-0.37881 1.33033,-0.47451 2.277344,-0.0547 0.286511,0.12702 0.399146,0.29224 0.490234,0.89649 0.09109,0.60424 0.01234,1.50305 -0.162109,2.33398 -0.174453,0.83093 -0.429955,1.60548 -0.589844,2.0293 -0.02706,0.0717 -0.04477,0.11566 -0.06445,0.16406 a 1.41111,1.41111 0 0 0 -0.04297,0.0195 c -0.04817,0.1268 -0.07746,0.20603 -0.113281,0.32813 -0.009,0.0305 -0.01833,0.0635 -0.03125,0.12304 -0.0065,0.0298 -0.01568,0.0671 -0.02344,0.12696 -0.0078,0.0599 -0.004,0.32306 -0.0039,0.32421 5.7e-5,5.8e-4 0.118989,0.44303 0.119141,0.44336 1.52e-4,3.4e-4 0.759519,0.73037 0.759765,0.73047 2.46e-4,1e-4 1.056302,-0.004 1.056641,-0.004 3.39e-4,-1.4e-4 0.394101,-0.23987 0.394531,-0.24024 8.6e-4,-7.4e-4 0.185076,-0.18943 0.220703,-0.23828 0.03563,-0.0489 0.05452,-0.0814 0.07031,-0.10742 0.126361,-0.20839 0.118412,-0.22605 0.160156,-0.32422 0.04174,-0.0982 0.08718,-0.21311 0.138672,-0.34961 0.205977,-0.54598 0.496554,-1.4242 0.710937,-2.44531 0.214383,-1.02112 0.366394,-2.17319 0.191407,-3.33399 -0.174988,-1.16079 -0.824362,-2.47485 -2.136719,-3.05664 -0.833497,-0.36949 -1.684173,-0.51146 -2.492188,-0.47265 z m -6.580078,3.14843 a 1.41111,1.41111 0 0 0 0.482422,0.30469 c 0.170051,-0.0382 -0.147712,0.002 -0.367187,-0.20898 -0.168115,-0.16159 -0.125568,-0.14321 -0.115235,-0.0957 z m 8.261719,4.80665 c -1.61e-4,6e-5 0.25136,4.9e-4 0.501953,0 a 1.41111,1.41111 0 0 0 -1.132812,0.50781 c 0.0087,-0.0131 0.01215,-0.019 0.02539,-0.0371 0.03319,-0.0455 0.215704,-0.23317 0.214844,-0.23242 -4.3e-4,3.7e-4 0.390964,-0.23842 0.390625,-0.23828 z"
       id="path51493" />
  </g>
</svg>
