<?xml version="1.0" encoding="UTF-8" standalone="no"?>
<!-- Created with Inkscape (http://www.inkscape.org/) -->

<svg
   width="45.610714mm"
   height="53.167999mm"
   viewBox="0 0 45.610716 53.167999"
   version="1.1"
   id="svg69450"
   inkscape:version="1.2.1 (9c6d41e410, 2022-07-14)"
   sodipodi:docname="ℕ.svg"
   xmlns:inkscape="http://www.inkscape.org/namespaces/inkscape"
   xmlns:sodipodi="http://sodipodi.sourceforge.net/DTD/sodipodi-0.dtd"
   xmlns="http://www.w3.org/2000/svg"
   xmlns:svg="http://www.w3.org/2000/svg">
  <sodipodi:namedview
     id="namedview69452"
     pagecolor="#ffffff"
     bordercolor="#000000"
     borderopacity="0.25"
     inkscape:showpageshadow="2"
     inkscape:pageopacity="0.0"
     inkscape:pagecheckerboard="0"
     inkscape:deskcolor="#d1d1d1"
     inkscape:document-units="mm"
     showgrid="false"
     inkscape:zoom="2.3192099"
     inkscape:cx="97.446979"
     inkscape:cy="118.79045"
     inkscape:window-width="1920"
     inkscape:window-height="1001"
     inkscape:window-x="-9"
     inkscape:window-y="-9"
     inkscape:window-maximized="1"
     inkscape:current-layer="layer1" />
  <defs
     id="defs69447" />
  <g
     inkscape:label="Capa 1"
     inkscape:groupmode="layer"
     id="layer1"
     transform="translate(-201.26753,-133.09798)"
     style="display:inline">
    <path
       style="color:#000000;fill:#000000;stroke-linecap:round;stroke-linejoin:round"
       d="m 209.50781,140.96289 a 1.4111151,1.4111151 0 0 0 -1.41211,1.41016 v 33.07226 a 1.4111151,1.4111151 0 0 0 1.41211,1.41016 1.4111151,1.4111151 0 0 0 1.41016,-1.41016 v -33.07226 a 1.4111151,1.4111151 0 0 0 -1.41016,-1.41016 z"
       id="path30582" />
    <path
       style="color:#000000;fill:#000000;stroke-linecap:round;stroke-linejoin:round"
       d="m 239.44922,140.6543 a 1.4111151,1.4111151 0 0 0 -1.37305,1.44922 l 0.83789,30.14648 -27.85742,-24.44531 a 1.4111151,1.4111151 0 0 0 -1.99219,0.1289 1.4111151,1.4111151 0 0 0 0.13086,1.99219 l 30.28906,26.58008 a 1.4112562,1.4112562 0 0 0 2.3418,-1.09961 l -0.92773,-33.38086 a 1.4111151,1.4111151 0 0 0 -1.44922,-1.37109 z"
       id="path30584" />
    <path
       style="color:#000000;fill:#000000;stroke-linecap:round;stroke-linejoin:round"
       d="m 209.74023,140.65625 a 1.4111151,1.4111151 0 0 0 -0.97461,0.46484 1.4111151,1.4111151 0 0 0 0.10743,1.99414 l 30.28906,27.19922 a 1.4111151,1.4111151 0 0 0 1.99414,-0.10742 1.4111151,1.4111151 0 0 0 -0.10742,-1.99414 l -30.28906,-27.19727 a 1.4111151,1.4111151 0 0 0 -1.01954,-0.35937 z"
       id="path30586" />
    <path
       style="color:#000000;fill:#000000;stroke-linecap:round;stroke-linejoin:round"
       d="m 205.0918,174.21289 a 1.4111151,1.4111151 0 0 0 -1.41211,1.41016 1.4111151,1.4111151 0 0 0 1.41211,1.41211 h 8.65429 a 1.4111151,1.4111151 0 0 0 1.41016,-1.41211 1.4111151,1.4111151 0 0 0 -1.41016,-1.41016 z"
       id="path30590" />
    <path
       style="color:#000000;fill:#000000;stroke-linecap:round;stroke-linejoin:round"
       d="m 234.94141,140.52344 a 1.4111151,1.4111151 0 0 0 -1.41211,1.41015 1.4111151,1.4111151 0 0 0 1.41211,1.41016 h 8.65234 a 1.4111151,1.4111151 0 0 0 1.41211,-1.41016 1.4111151,1.4111151 0 0 0 -1.41211,-1.41015 z"
       id="path30590-8" />
    <path
       style="color:#000000;fill:#000000;stroke-linecap:round;stroke-linejoin:round"
       d="m 205.17969,140.6543 a 1.4111151,1.4111151 0 0 0 -1.41016,1.41015 1.4111151,1.4111151 0 0 0 1.41016,1.41211 h 4.54687 a 1.4111151,1.4111151 0 0 0 1.41211,-1.41211 1.4111151,1.4111151 0 0 0 -1.41211,-1.41015 z"
       id="path30590-8-6" />
  </g>
</svg>
