<?xml version="1.0" encoding="UTF-8" standalone="no"?>
<!-- Created with Inkscape (http://www.inkscape.org/) -->

<svg
   width="47.864513mm"
   height="53.167999mm"
   viewBox="0 0 47.864516 53.167999"
   version="1.1"
   id="svg69450"
   inkscape:version="1.2.1 (9c6d41e410, 2022-07-14)"
   sodipodi:docname="ℚ.svg"
   xmlns:inkscape="http://www.inkscape.org/namespaces/inkscape"
   xmlns:sodipodi="http://sodipodi.sourceforge.net/DTD/sodipodi-0.dtd"
   xmlns="http://www.w3.org/2000/svg"
   xmlns:svg="http://www.w3.org/2000/svg">
  <sodipodi:namedview
     id="namedview69452"
     pagecolor="#ffffff"
     bordercolor="#000000"
     borderopacity="0.25"
     inkscape:showpageshadow="2"
     inkscape:pageopacity="0.0"
     inkscape:pagecheckerboard="0"
     inkscape:deskcolor="#d1d1d1"
     inkscape:document-units="mm"
     showgrid="false"
     inkscape:zoom="2.3192099"
     inkscape:cx="93.566347"
     inkscape:cy="118.79045"
     inkscape:window-width="1920"
     inkscape:window-height="1001"
     inkscape:window-x="-9"
     inkscape:window-y="-9"
     inkscape:window-maximized="1"
     inkscape:current-layer="layer1" />
  <defs
     id="defs69447" />
  <g
     inkscape:label="Capa 1"
     inkscape:groupmode="layer"
     id="layer1"
     transform="translate(-202.32585,-133.09798)"
     style="display:inline">
    <path
       style="color:#000000;fill:#000000;stroke-linecap:round;stroke-linejoin:round"
       d="m 227.03516,140.65625 a 1.4112562,1.4112562 0 0 0 -0.006,0.006 c -12.64859,-0.66324 -22.08728,7.90214 -23.75,17.08203 -0.83411,4.60508 0.37496,9.43518 4.12304,13.01367 3.71017,3.54229 9.77382,5.81275 18.47266,5.99219 a 1.4112562,1.4112562 0 0 0 0.24609,0.10742 c 8.338,0.12211 14.35164,-1.97186 18.20118,-5.37695 3.84954,-3.40509 5.42343,-8.09335 5.01171,-12.69141 -0.82133,-9.17282 -9.33167,-18.10826 -22.17382,-18.125 a 1.4112562,1.4112562 0 0 0 -0.01,-0.006 c -0.0155,-8.8e-4 -0.0294,0.003 -0.0449,0.002 -0.0136,1e-5 -0.0254,-0.004 -0.0391,-0.004 v 0.004 c -0.0108,-5.8e-4 -0.0205,0.003 -0.0312,0.002 z m -0.0449,2.74023 a 1.4112562,1.4112562 0 0 0 0.082,0.082 c 11.59371,-0.0258 18.76831,7.93629 19.45117,15.5625 0.34142,3.8131 -0.88667,7.50836 -4.07227,10.32617 -3.1462,2.78295 -8.33483,4.71908 -16.02148,4.65625 a 1.4112562,1.4112562 0 0 0 -0.26367,-0.0762 c -8.37415,-0.13041 -13.74673,-2.30155 -16.81446,-5.23047 -3.06773,-2.92893 -3.98732,-6.64795 -3.29492,-10.47071 1.38481,-7.64551 9.57268,-15.41884 20.93164,-14.76953 z"
       id="path51207" />
    <path
       style="color:#000000;fill:#000000;stroke-linecap:round;stroke-linejoin:round"
       d="m 211.29102,146.70508 a 1.4111151,1.4111151 0 0 0 -1.44922,1.37304 l -0.61719,23.49024 a 1.4111151,1.4111151 0 0 0 1.37305,1.44726 1.4111151,1.4111151 0 0 0 1.44726,-1.37304 l 0.61914,-23.49024 a 1.4111151,1.4111151 0 0 0 -1.37304,-1.44726 z"
       id="path51286" />
    <path
       style="color:#000000;fill:#000000;stroke-linecap:round;stroke-linejoin:round"
       d="m 242.14062,146.70508 a 1.4111151,1.4111151 0 0 0 -1.39062,1.42969 l 0.30859,21.94531 a 1.4111151,1.4111151 0 0 0 1.43164,1.39062 1.4111151,1.4111151 0 0 0 1.39063,-1.43164 l -0.30859,-21.94336 a 1.4111151,1.4111151 0 0 0 -1.43165,-1.39062 z"
       id="path51288" />
    <path
       style="color:#000000;fill:#000000;stroke-linecap:round;stroke-linejoin:round;-inkscape-stroke:none"
       d="m 239.86328,171.75 a 1.4111151,1.4111151 0 0 0 -1.04101,0.28711 1.4111151,1.4111151 0 0 0 -0.24805,1.98047 c 2.27518,2.92439 3.28369,4.2567 4.37109,5.70508 -0.95579,-0.44553 -1.35281,-0.61982 -2.70703,-1.22461 -2.90088,-1.29553 -6.69207,-2.85007 -11.27148,-4.22657 a 1.4111151,1.4111151 0 0 0 -1.75586,0.94532 1.4111151,1.4111151 0 0 0 0.94531,1.75781 c 4.42989,1.33155 8.09931,2.8347 10.93164,4.09961 2.83233,1.26491 4.72476,2.26789 6.03516,2.7168 0.3276,0.11222 0.6042,0.21604 1.07226,0.21289 0.23404,-0.002 0.55821,-0.0293 0.91992,-0.26172 0.36171,-0.23243 0.64044,-0.70912 0.70118,-1.07032 0.12148,-0.72239 -0.10054,-1.01668 -0.25977,-1.34179 -0.15923,-0.32512 -0.35967,-0.64594 -0.61719,-1.02735 -1.03005,-1.52563 -3.00864,-3.99887 -6.13672,-8.01953 a 1.4111151,1.4111151 0 0 0 -0.93945,-0.5332 z"
       id="path51292" />
  </g>
</svg>
