<?xml version="1.0" encoding="UTF-8" standalone="no"?>
<!-- Created with Inkscape (http://www.inkscape.org/) -->

<svg
   width="43.073013mm"
   height="53.167999mm"
   viewBox="0 0 43.073016 53.167999"
   version="1.1"
   id="svg69450"
   inkscape:version="1.2.1 (9c6d41e410, 2022-07-14)"
   sodipodi:docname="â„.svg"
   xmlns:inkscape="http://www.inkscape.org/namespaces/inkscape"
   xmlns:sodipodi="http://sodipodi.sourceforge.net/DTD/sodipodi-0.dtd"
   xmlns="http://www.w3.org/2000/svg"
   xmlns:svg="http://www.w3.org/2000/svg">
  <sodipodi:namedview
     id="namedview69452"
     pagecolor="#ffffff"
     bordercolor="#000000"
     borderopacity="0.25"
     inkscape:showpageshadow="2"
     inkscape:pageopacity="0.0"
     inkscape:pagecheckerboard="0"
     inkscape:deskcolor="#d1d1d1"
     inkscape:document-units="mm"
     showgrid="false"
     inkscape:zoom="2.3192099"
     inkscape:cx="91.841622"
     inkscape:cy="118.79045"
     inkscape:window-width="1920"
     inkscape:window-height="1001"
     inkscape:window-x="-9"
     inkscape:window-y="-9"
     inkscape:window-maximized="1"
     inkscape:current-layer="layer1" />
  <defs
     id="defs69447" />
  <g
     inkscape:label="Capa 1"
     inkscape:groupmode="layer"
     id="layer1"
     transform="translate(-202.80745,-133.09798)"
     style="display:inline">
    <path
       style="color:#000000;fill:#000000;stroke-linecap:round;stroke-linejoin:round"
       d="m 210.29297,140.96289 a 1.4111151,1.4111151 0 0 0 -1.4375,1.38477 l -0.61914,33.07031 a 1.4111151,1.4111151 0 0 0 1.38476,1.4375 1.4111151,1.4111151 0 0 0 1.4375,-1.38477 l 0.61914,-33.07031 a 1.4111151,1.4111151 0 0 0 -1.38476,-1.4375 z"
       id="path56884" />
    <path
       style="color:#000000;fill:#000000;stroke-linecap:round;stroke-linejoin:round"
       d="m 215.08008,141.27148 a 1.4111151,1.4111151 0 0 0 -1.41016,1.41211 v 32.45313 a 1.4111151,1.4111151 0 0 0 1.41016,1.41015 1.4111151,1.4111151 0 0 0 1.41211,-1.41015 v -32.45313 a 1.4111151,1.4111151 0 0 0 -1.41211,-1.41211 z"
       id="path56886" />
    <path
       style="color:#000000;fill:#000000;stroke-linecap:round;stroke-linejoin:round"
       d="m 205.32031,174.12305 a 1.4111151,1.4111151 0 0 0 -1.41015,1.41015 1.4111151,1.4111151 0 0 0 1.41015,1.41211 h 13.29102 a 1.4111151,1.4111151 0 0 0 1.41211,-1.41211 1.4111151,1.4111151 0 0 0 -1.41211,-1.41015 z"
       id="path56888" />
    <path
       style="color:#000000;fill:#000000;stroke-linecap:round;stroke-linejoin:round"
       d="m 222.13867,140.78125 c -4.8983,0.0755 -10.62749,0.24015 -17.24609,0.18164 a 1.4111151,1.4111151 0 0 0 -1.42188,1.39844 1.4111151,1.4111151 0 0 0 1.39844,1.42383 c 13.35559,0.11806 23.16534,-0.60828 29.17773,0.14843 3.0062,0.37836 4.95725,1.12116 6.05079,2.23633 1.09354,1.11518 1.61666,2.75671 1.39257,5.67774 -0.12381,1.61395 -0.7254,2.45458 -1.96484,3.1914 -1.23944,0.73682 -3.20708,1.21146 -5.66992,1.41602 -4.92569,0.40912 -11.72947,-0.19173 -18.74414,-0.34766 a 1.4111151,1.4111151 0 0 0 -1.44141,1.37891 1.4111151,1.4111151 0 0 0 1.37891,1.44336 c 6.8894,0.15315 13.68805,0.7825 19.04101,0.33789 2.67649,-0.22231 5.01749,-0.69616 6.87891,-1.80274 1.86142,-1.10657 3.15209,-3.00583 3.33594,-5.40234 0.25859,-3.37086 -0.40441,-6.04285 -2.19336,-7.86719 -1.78895,-1.82434 -4.41642,-2.64785 -7.71094,-3.0625 -3.29452,-0.41464 -7.36341,-0.42711 -12.26172,-0.35156 z"
       id="path56890" />
    <path
       style="color:#000000;fill:#000000;stroke-linecap:round;stroke-linejoin:round"
       d="m 225.04102,156.72656 a 1.4111151,1.4111151 0 0 0 -1.01758,0.36524 1.4111151,1.4111151 0 0 0 -0.0977,1.99218 l 14.83594,16.38086 a 1.4111151,1.4111151 0 0 0 1.99219,0.0996 1.4111151,1.4111151 0 0 0 0.0996,-1.99414 l -14.83594,-16.38086 a 1.4111151,1.4111151 0 0 0 -0.97656,-0.46289 z"
       id="path58344" />
    <path
       style="color:#000000;fill:#000000;stroke-linecap:round;stroke-linejoin:round;-inkscape-stroke:none"
       d="m 234.55273,173.59375 a 1.4111151,1.4111151 0 0 0 -1.41211,1.41211 1.4111151,1.4111151 0 0 0 1.41211,1.41016 h 9.27149 a 1.4111151,1.4111151 0 0 0 1.41211,-1.41016 1.4111151,1.4111151 0 0 0 -1.41211,-1.41211 z"
       id="path58346" />
  </g>
</svg>
