<?xml version="1.0" encoding="UTF-8" standalone="no"?>
<!-- Created with Inkscape (http://www.inkscape.org/) -->

<svg
   width="44.903572mm"
   height="53.167999mm"
   viewBox="0 0 44.903575 53.167999"
   version="1.1"
   id="svg70682"
   inkscape:version="1.2.1 (9c6d41e410, 2022-07-14)"
   sodipodi:docname="∑.svg"
   xmlns:inkscape="http://www.inkscape.org/namespaces/inkscape"
   xmlns:sodipodi="http://sodipodi.sourceforge.net/DTD/sodipodi-0.dtd"
   xmlns="http://www.w3.org/2000/svg"
   xmlns:svg="http://www.w3.org/2000/svg">
  <sodipodi:namedview
     id="namedview70684"
     pagecolor="#ffffff"
     bordercolor="#000000"
     borderopacity="0.25"
     inkscape:showpageshadow="2"
     inkscape:pageopacity="0.0"
     inkscape:pagecheckerboard="0"
     inkscape:deskcolor="#d1d1d1"
     inkscape:document-units="mm"
     showgrid="false"
     inkscape:zoom="0.7483165"
     inkscape:cx="-20.044994"
     inkscape:cy="51.448819"
     inkscape:window-width="1920"
     inkscape:window-height="1001"
     inkscape:window-x="-9"
     inkscape:window-y="-9"
     inkscape:window-maximized="1"
     inkscape:current-layer="layer1" />
  <defs
     id="defs70679" />
  <g
     inkscape:label="Capa 1"
     inkscape:groupmode="layer"
     id="layer1"
     transform="translate(-23.688652,-107.08885)">
    <path
       style="color:#000000;fill:#000000;stroke-linecap:round;stroke-linejoin:round;-inkscape-stroke:none"
       d="m 64.664062,114.17969 -37.359375,0.39062 a 1.4112512,1.4112512 0 0 0 -0.857421,2.51953 l 17.001953,13.38282 -17.873047,16.77929 a 1.4112512,1.4112512 0 0 0 0.935547,2.43946 l 38.138672,0.77929 a 1.4112512,1.4112512 0 0 0 1.4375,-1.33203 l 0.390625,-7.00586 a 1.41111,1.41111 0 0 0 -1.332032,-1.48633 1.41111,1.41111 0 0 0 -1.486328,1.33008 l -0.314453,5.64453 -33.314453,-0.67968 16.544922,-15.53321 a 1.4112512,1.4112512 0 0 0 -0.09375,-2.13672 l -15.140625,-11.91992 31.925781,-0.33398 v 4.80078 a 1.41111,1.41111 0 0 0 1.412109,1.41016 1.41111,1.41111 0 0 0 1.410157,-1.41016 v -6.22656 a 1.4112512,1.4112512 0 0 0 -1.425782,-1.41211 z"
       id="path29911" />
  </g>
</svg>
