<?xml version="1.0" encoding="UTF-8" standalone="no"?>
<!-- Created with Inkscape (http://www.inkscape.org/) -->

<svg
   width="33.967239mm"
   height="53.167999mm"
   viewBox="0 0 33.967242 53.167999"
   version="1.1"
   id="svg70682"
   inkscape:version="1.2.1 (9c6d41e410, 2022-07-14)"
   sodipodi:docname="∞.svg"
   xmlns:inkscape="http://www.inkscape.org/namespaces/inkscape"
   xmlns:sodipodi="http://sodipodi.sourceforge.net/DTD/sodipodi-0.dtd"
   xmlns="http://www.w3.org/2000/svg"
   xmlns:svg="http://www.w3.org/2000/svg">
  <sodipodi:namedview
     id="namedview70684"
     pagecolor="#ffffff"
     bordercolor="#000000"
     borderopacity="0.25"
     inkscape:showpageshadow="2"
     inkscape:pageopacity="0.0"
     inkscape:pagecheckerboard="0"
     inkscape:deskcolor="#d1d1d1"
     inkscape:document-units="mm"
     showgrid="false"
     inkscape:zoom="1.5500842"
     inkscape:cx="47.739343"
     inkscape:cy="121.6063"
     inkscape:window-width="1920"
     inkscape:window-height="1001"
     inkscape:window-x="-9"
     inkscape:window-y="-9"
     inkscape:window-maximized="1"
     inkscape:current-layer="layer1" />
  <defs
     id="defs70679" />
  <g
     inkscape:label="Capa 1"
     inkscape:groupmode="layer"
     id="layer1"
     transform="translate(-134.70067,-75.79953)">
    <path
       style="color:#000000;fill:#000000;stroke-linecap:round;stroke-linejoin:round;-inkscape-stroke:none"
       d="m 162.55469,92.132812 c -0.802,-0.145385 -1.67119,-0.106986 -2.54688,0.148438 -1.75138,0.510848 -3.56354,1.753465 -5.57422,3.851562 a 1.4111151,1.4111151 0 0 0 0.0352,1.982422 1.4111151,1.4111151 0 0 0 -0.32227,-0.257812 1.4111151,1.4111151 0 0 0 -1.85937,0.722656 c -0.18382,0.416944 -0.39456,0.622123 -0.58399,1.003906 -1.49269,-1.808097 -3.26264,-3.844833 -5.42773,-5.248047 -1.45482,-0.942883 -3.12989,-1.596157 -4.89648,-1.261718 -1.7666,0.334438 -3.3264,1.670714 -4.51368,3.875 -2.87368,5.335261 -0.62988,11.019541 3.78516,12.644531 2.20752,0.81249 4.89193,0.55782 7.40234,-1.02734 1.44618,-0.91317 2.81139,-2.38934 4.10743,-4.19922 1.8097,2.00542 3.51145,3.53157 5.09179,4.38672 1.9074,1.03211 3.76362,1.29142 5.34375,0.79101 1.58013,-0.50041 2.74737,-1.68909 3.51953,-3.07422 0.77217,-1.38512 1.19902,-2.99994 1.35157,-4.64648 0.30508,-3.293081 -0.34767,-6.823847 -2.76953,-8.738283 -0.60547,-0.478608 -1.34059,-0.807739 -2.14258,-0.953125 z m -0.50196,2.732422 c 0.33766,0.06012 0.61375,0.213184 0.89258,0.433594 1.11532,0.881639 1.95588,3.619793 1.71094,6.263672 -0.12247,1.32194 -0.48074,2.59317 -1.00586,3.53516 -0.52512,0.94198 -1.16651,1.52159 -1.90625,1.75586 -0.73974,0.23426 -1.71502,0.19466 -3.15039,-0.58204 -1.33553,-0.72267 -3.03169,-2.18902 -4.95508,-4.43945 0.40366,-0.73613 0.85591,-1.26367 1.23047,-2.11328 a 1.4111151,1.4111151 0 0 0 -0.38477,-1.589844 1.4111151,1.4111151 0 0 0 1.98633,-0.04297 c 1.80028,-1.878551 3.28763,-2.792776 4.32617,-3.095703 0.51928,-0.151463 0.91821,-0.185121 1.25586,-0.125 z m -20.14843,0.982422 c 0.75876,-0.143643 1.71887,0.131491 2.83593,0.855469 1.90684,1.235842 3.87088,3.560445 5.45313,5.478515 -1.21772,1.81017 -2.45852,3.24792 -3.64649,3.99805 -1.88469,1.19006 -3.5572,1.2679 -4.92187,0.76562 -2.72934,-1.00455 -4.49243,-4.54206 -2.27539,-8.658201 0.94232,-1.7495 1.79593,-2.29581 2.55469,-2.439453 z"
       id="path33798" />
  </g>
</svg>
