<?xml version="1.0" encoding="UTF-8" standalone="no"?>
<!-- Created with Inkscape (http://www.inkscape.org/) -->

<svg
   width="23.335714mm"
   height="53.167999mm"
   viewBox="0 0 23.335714 53.167999"
   version="1.1"
   id="svg70682"
   inkscape:version="1.2.1 (9c6d41e410, 2022-07-14)"
   sodipodi:docname="≈.svg"
   xmlns:inkscape="http://www.inkscape.org/namespaces/inkscape"
   xmlns:sodipodi="http://sodipodi.sourceforge.net/DTD/sodipodi-0.dtd"
   xmlns="http://www.w3.org/2000/svg"
   xmlns:svg="http://www.w3.org/2000/svg">
  <sodipodi:namedview
     id="namedview70684"
     pagecolor="#ffffff"
     bordercolor="#000000"
     borderopacity="0.25"
     inkscape:showpageshadow="2"
     inkscape:pageopacity="0.0"
     inkscape:pagecheckerboard="0"
     inkscape:deskcolor="#d1d1d1"
     inkscape:document-units="mm"
     showgrid="false"
     inkscape:zoom="3.5743118"
     inkscape:cx="55.535167"
     inkscape:cy="108.13271"
     inkscape:window-width="1920"
     inkscape:window-height="1001"
     inkscape:window-x="-9"
     inkscape:window-y="-9"
     inkscape:window-maximized="1"
     inkscape:current-layer="layer1" />
  <defs
     id="defs70679" />
  <g
     inkscape:label="Capa 1"
     inkscape:groupmode="layer"
     id="layer1"
     transform="translate(-0.52916664)">
    <path
       style="color:#000000;fill:#000000;stroke-linecap:round;stroke-linejoin:round"
       d="m 7.984375,21.736328 c -1.9688775,0.02842 -4.0383699,1.046331 -5.7753906,3.328125 a 1.41111,1.41111 0 0 0 0.2675781,1.976563 1.41111,1.41111 0 0 0 1.9765625,-0.267579 c 1.3752783,-1.8066 2.4256683,-2.198294 3.5722656,-2.214843 1.1465974,-0.01655 2.5370034,0.522563 4.0703124,1.197265 1.53331,0.674702 3.196687,1.482922 5.109375,1.5625 1.912688,0.07958 3.98469,-0.792453 5.664063,-2.919922 a 1.41111,1.41111 0 0 0 -0.232422,-1.982421 1.41111,1.41111 0 0 0 -1.982422,0.234375 c -1.277388,1.618225 -2.207013,1.894463 -3.332031,1.847656 -1.125018,-0.04681 -2.532543,-0.640913 -4.089844,-1.326172 -1.557301,-0.685259 -3.2791695,-1.463964 -5.248047,-1.435547 z"
       id="path33939" />
    <path
       style="color:#000000;fill:#000000;stroke-linecap:round;stroke-linejoin:round;-inkscape-stroke:none"
       d="m 8.1074219,28.15625 c -1.9688775,0.02842 -4.0403232,1.046331 -5.7773438,3.328125 a 1.41111,1.41111 0 0 0 0.2675782,1.976562 1.41111,1.41111 0 0 0 1.9785156,-0.267578 c 1.3752782,-1.8066 2.4256683,-2.198295 3.5722656,-2.214843 1.1465973,-0.01655 2.5350495,0.522563 4.0683595,1.197265 1.533309,0.674702 3.196687,1.482922 5.109375,1.5625 1.912688,0.07958 3.986643,-0.792453 5.666015,-2.919922 a 1.41111,1.41111 0 0 0 -0.232421,-1.982422 1.41111,1.41111 0 0 0 -1.982422,0.234375 c -1.277389,1.618226 -2.208967,1.894464 -3.333985,1.847657 -1.125018,-0.04681 -2.532542,-0.640913 -4.089843,-1.326172 -1.557301,-0.685259 -3.277217,-1.463964 -5.2460941,-1.435547 z"
       id="path33939-6" />
  </g>
</svg>
