<?xml version="1.0" encoding="UTF-8" standalone="no"?>
<!-- Created with Inkscape (http://www.inkscape.org/) -->

<svg
   width="23.335714mm"
   height="53.167999mm"
   viewBox="0 0 23.335714 53.167999"
   version="1.1"
   id="svg70682"
   inkscape:version="1.2.1 (9c6d41e410, 2022-07-14)"
   sodipodi:docname="≠.svg"
   xmlns:inkscape="http://www.inkscape.org/namespaces/inkscape"
   xmlns:sodipodi="http://sodipodi.sourceforge.net/DTD/sodipodi-0.dtd"
   xmlns="http://www.w3.org/2000/svg"
   xmlns:svg="http://www.w3.org/2000/svg">
  <sodipodi:namedview
     id="namedview70684"
     pagecolor="#ffffff"
     bordercolor="#000000"
     borderopacity="0.25"
     inkscape:showpageshadow="2"
     inkscape:pageopacity="0.0"
     inkscape:pagecheckerboard="0"
     inkscape:deskcolor="#d1d1d1"
     inkscape:document-units="mm"
     showgrid="false"
     inkscape:zoom="0.7483165"
     inkscape:cx="98.220472"
     inkscape:cy="456.3577"
     inkscape:window-width="1920"
     inkscape:window-height="1001"
     inkscape:window-x="-9"
     inkscape:window-y="-9"
     inkscape:window-maximized="1"
     inkscape:current-layer="layer1" />
  <defs
     id="defs70679" />
  <g
     inkscape:label="Capa 1"
     inkscape:groupmode="layer"
     id="layer1"
     transform="translate(-0.52916664)">
    <g
       id="path48598"
       style="fill:#000000">
      <path
         style="color:#000000;fill:#000000;stroke-width:2.82223;stroke-linecap:round;stroke-linejoin:round"
         d="M 3.0011974,23.344023 H 21.740479"
         id="path159658" />
      <path
         style="color:#000000;fill:#000000;stroke-linecap:round;stroke-linejoin:round"
         d="M 3.0019531,21.933594 A 1.4111151,1.4111151 0 0 0 1.5898437,23.34375 1.4111151,1.4111151 0 0 0 3.0019531,24.755859 H 21.740234 a 1.4111151,1.4111151 0 0 0 1.41211,-1.412109 1.4111151,1.4111151 0 0 0 -1.41211,-1.410156 z"
         id="path159660" />
    </g>
    <g
       id="path48598-1"
       style="fill:#000000">
      <path
         style="color:#000000;fill:#000000;stroke-width:2.82223;stroke-linecap:round;stroke-linejoin:round;-inkscape-stroke:none"
         d="M 3.3607194,31.813123 H 22.100002"
         id="path159664" />
      <path
         style="color:#000000;fill:#000000;stroke-linecap:round;stroke-linejoin:round;-inkscape-stroke:none"
         d="M 3.3613281,30.402344 A 1.4111151,1.4111151 0 0 0 1.9492187,31.8125 1.4111151,1.4111151 0 0 0 3.3613281,33.224609 H 22.099609 a 1.4111151,1.4111151 0 0 0 1.41211,-1.412109 1.4111151,1.4111151 0 0 0 -1.41211,-1.410156 z"
         id="path159666" />
    </g>
    <g
       id="path100946">
      <path
         style="color:#000000;fill:#000000;stroke-width:2.82222;stroke-linecap:round;stroke-linejoin:round;-inkscape-stroke:none"
         d="M 7.9541665,36.064285 16.086309,19.092857"
         id="path100950" />
      <path
         style="color:#000000;fill:#000000;stroke-linecap:round;stroke-linejoin:round;-inkscape-stroke:none"
         d="m 16.695312,17.820312 a 1.4111111,1.4111111 0 0 0 -1.880859,0.66211 L 6.6816406,35.455078 A 1.4111111,1.4111111 0 0 0 7.34375,37.335937 1.4111111,1.4111111 0 0 0 9.2265625,36.673828 L 17.359375,19.703125 a 1.4111111,1.4111111 0 0 0 -0.664063,-1.882813 z"
         id="path100952" />
    </g>
  </g>
</svg>
