<?xml version="1.0" encoding="UTF-8" standalone="no"?>
<!-- Created with Inkscape (http://www.inkscape.org/) -->

<svg
   width="23.335714mm"
   height="53.167999mm"
   viewBox="0 0 23.335714 53.167999"
   version="1.1"
   id="svg70682"
   inkscape:version="1.2.1 (9c6d41e410, 2022-07-14)"
   sodipodi:docname="⋯.svg"
   xmlns:inkscape="http://www.inkscape.org/namespaces/inkscape"
   xmlns:sodipodi="http://sodipodi.sourceforge.net/DTD/sodipodi-0.dtd"
   xmlns="http://www.w3.org/2000/svg"
   xmlns:svg="http://www.w3.org/2000/svg">
  <sodipodi:namedview
     id="namedview70684"
     pagecolor="#ffffff"
     bordercolor="#000000"
     borderopacity="0.25"
     inkscape:showpageshadow="2"
     inkscape:pageopacity="0.0"
     inkscape:pagecheckerboard="0"
     inkscape:deskcolor="#d1d1d1"
     inkscape:document-units="mm"
     showgrid="false"
     inkscape:zoom="2.8527371"
     inkscape:cx="48.199324"
     inkscape:cy="127.42149"
     inkscape:window-width="1920"
     inkscape:window-height="1001"
     inkscape:window-x="-9"
     inkscape:window-y="-9"
     inkscape:window-maximized="1"
     inkscape:current-layer="layer1" />
  <defs
     id="defs70679" />
  <g
     inkscape:label="Capa 1"
     inkscape:groupmode="layer"
     id="layer1"
     transform="translate(-0.52916664)">
    <path
       style="color:#000000;fill:#000000;stroke-linecap:round;stroke-linejoin:round"
       d="M 5.0898437,25.996094 A 1.4111151,1.4111151 0 0 0 4.09375,26.410156 l -0.1503906,0.148438 a 1.4111151,1.4111151 0 0 0 0,1.996093 1.4111151,1.4111151 0 0 0 1.9960937,0 L 6.0878906,28.40625 a 1.4111151,1.4111151 0 0 0 0,-1.996094 1.4111151,1.4111151 0 0 0 -0.9980469,-0.414062 z"
       id="path29801-3" />
    <path
       style="color:#000000;fill:#000000;stroke-linecap:round;stroke-linejoin:round"
       d="m 19.355469,26.060547 a 1.4111151,1.4111151 0 0 0 -0.998047,0.414062 l -0.148438,0.148438 a 1.4111151,1.4111151 0 0 0 0,1.99414 1.4111151,1.4111151 0 0 0 1.994141,0 l 0.150391,-0.148437 a 1.4111151,1.4111151 0 0 0 0,-1.994141 1.4111151,1.4111151 0 0 0 -0.998047,-0.414062 z"
       id="path29801-3-6" />
    <path
       style="color:#000000;fill:#000000;stroke-linecap:round;stroke-linejoin:round;-inkscape-stroke:none"
       d="m 12.289063,26.060547 a 1.4111151,1.4111151 0 0 0 -0.998047,0.414062 l -0.148438,0.148438 a 1.4111151,1.4111151 0 0 0 0,1.99414 1.4111151,1.4111151 0 0 0 1.996094,0 l 0.148437,-0.148437 a 1.4111151,1.4111151 0 0 0 0,-1.994141 1.4111151,1.4111151 0 0 0 -0.998046,-0.414062 z"
       id="path29801-3-2" />
  </g>
</svg>
